<svg id="Layer_1" data-name="Layer 1" xmlns="http://www.w3.org/2000/svg" xmlns:xlink="http://www.w3.org/1999/xlink" viewBox="0 0 100 100"><defs><style>.cls-1{fill:url(#linear-gradient);}.cls-2{fill:url(#linear-gradient-2);}</style><linearGradient id="linear-gradient" x1="48.97" y1="95.85" x2="48.97" y2="16.3" gradientUnits="userSpaceOnUse"><stop offset="0" stop-color="#af193d"/><stop offset="1" stop-color="#ff3270"/></linearGradient><linearGradient id="linear-gradient-2" x1="48.96" y1="95.85" x2="48.96" y2="16.3" xlink:href="#linear-gradient"/></defs><g id="Visist_the_website" data-name="Visist the website"><path class="cls-1" d="M34.92,42.68V11.33c0-3.16,1.33-4.5,4.49-4.51h19C61.7,6.83,63,8.13,63,11.37V42.68c1.8,0,3.49,0,5.18,0a3.78,3.78,0,0,1,4,2.23c.79,1.77.1,3.2-1.18,4.47Q61.43,58.9,51.9,68.44C50,70.37,48,70.35,46,68.41Q36.46,58.89,27,49.35C25.72,48.12,25,46.74,25.76,45s2.19-2.35,4-2.32C31.42,42.7,33.08,42.68,34.92,42.68Z"/><path class="cls-2" d="M49,78.86c10.79,0,21.58,0,32.36,0A7.14,7.14,0,0,1,83.05,93a11.27,11.27,0,0,1-2,.15q-32.1,0-64.18,0c-2.91,0-5.32-.93-6.84-3.49-2.94-4.93.49-10.79,6.35-10.81C27.24,78.83,38.12,78.86,49,78.86Z"/></g></svg>