<svg id="Layer_1" data-name="Layer 1" xmlns="http://www.w3.org/2000/svg" xmlns:xlink="http://www.w3.org/1999/xlink" viewBox="0 0 100 100"><defs><style>.cls-1{fill:url(#linear-gradient);}.cls-2{fill:url(#linear-gradient-2);}.cls-3{fill:url(#linear-gradient-3);}.cls-4{fill:url(#linear-gradient-4);}.cls-5{fill:url(#linear-gradient-5);}.cls-6{fill:url(#linear-gradient-6);}.cls-7{fill:url(#linear-gradient-7);}</style><linearGradient id="linear-gradient" x1="13.75" y1="95.85" x2="13.75" y2="16.3" gradientUnits="userSpaceOnUse"><stop offset="0" stop-color="#af193d"/><stop offset="1" stop-color="#ff3270"/></linearGradient><linearGradient id="linear-gradient-2" x1="81.2" y1="95.85" x2="81.2" y2="16.3" xlink:href="#linear-gradient"/><linearGradient id="linear-gradient-3" x1="44.9" y1="95.85" x2="44.9" y2="16.3" xlink:href="#linear-gradient"/><linearGradient id="linear-gradient-4" x1="57.48" y1="95.85" x2="57.48" y2="16.3" xlink:href="#linear-gradient"/><linearGradient id="linear-gradient-5" x1="26.12" y1="95.85" x2="26.12" y2="16.3" xlink:href="#linear-gradient"/><linearGradient id="linear-gradient-6" x1="69.93" y1="95.85" x2="69.93" y2="16.3" xlink:href="#linear-gradient"/><linearGradient id="linear-gradient-7" x1="65.1" y1="95.85" x2="65.1" y2="16.3" xlink:href="#linear-gradient"/></defs><g id="Open_and_enjoy" data-name="Open and enjoy"><path class="cls-1" d="M7,61V32.27C7,29.85,7.8,29,10.21,29s4.86,0,7.29,0c2,0,3,1,3,3q0,29.08,0,58.17c0,2-1,3-3,3q-3.77,0-7.55,0c-2,0-2.93-.92-2.93-3Q7,75.6,7,61Z"/><path class="cls-2" d="M76.1,93.17c-1.35,0-2.7,0-4,0-1.83,0-2.91-1.17-2.63-3q1.14-7,2.47-14.06c.08-.41.62-.82,1-1.06A22.16,22.16,0,0,0,83.56,61.86a22.05,22.05,0,0,0-4.13-21,3.15,3.15,0,0,1-.86-3c.48-2,.72-4.06,1.13-6.09A2.55,2.55,0,0,1,83,29.54l7.43,1.3c2.09.36,2.92,1.47,2.55,3.64-.63,3.76-1.35,7.51-2,11.26q-1.68,9.56-3.36,19.1T84.15,84.07c-.37,2.12-.73,4.24-1.11,6.36s-1.13,2.73-3.29,2.74Z"/><path class="cls-3" d="M49.94,93.17c-1.3,0-2.61,0-3.91,0a2.65,2.65,0,0,1-3-2.5c-.66-3.71-1.29-7.43-1.94-11.14q-2.35-13.39-4.73-26.79-1.62-9.23-3.24-18.44c-.34-2,.48-3.08,2.47-3.43,2.52-.45,5-.9,7.56-1.33a2.54,2.54,0,0,1,3.21,2.11q.57,2.56.88,5.18a1.84,1.84,0,0,1-.58,1.33,22.77,22.77,0,0,0,6.46,38.06A2.11,2.11,0,0,1,54.61,78C55.28,82,56,85.91,56.67,89.85A2.57,2.57,0,0,1,54,93.16C52.64,93.19,51.29,93.17,49.94,93.17Z"/><path class="cls-4" d="M62.27,72.92A17.79,17.79,0,0,1,46,47.15a1.45,1.45,0,0,1,1.79-1C58.45,48,65.8,53.85,69.55,64a41.78,41.78,0,0,1,1.26,5.22,1.34,1.34,0,0,1-.88,1.7A18.19,18.19,0,0,1,62.27,72.92Z"/><path class="cls-5" d="M13.18,14.06c-.41-2.41.34-3.47,2.57-3.86C21.81,9.13,27.86,8,33.93,7c2.9-.49,3.35-.16,4.39,2.64L42,9a2.64,2.64,0,0,1,3.18,1.8,2.52,2.52,0,0,1-2,3.15c-1.3.32-2.63.5-3.9.74-.07.16-.14.24-.14.32.12,2.37-.52,3.22-2.79,3.62L18.18,21.8c-2.55.44-3.33,0-4.22-2.67-1.21.19-2.44.41-3.67.58-1.86.25-3.06-.49-3.27-2s.63-2.67,2.5-3C10.71,14.47,11.9,14.28,13.18,14.06Z"/><path class="cls-6" d="M60.93,28.65c-1,.74-2,1.44-3,2.13a2.67,2.67,0,0,1-3.84-.39c-.89-1.25-.56-2.67.88-3.72,1-.74,2-1.46,3-2.18-1.27-2.75-1.11-3.31,1.38-5L73.82,9.3c2.37-1.66,3.07-1.61,5.15.5,1-.72,2.09-1.48,3.17-2.19a2.49,2.49,0,0,1,3.69.5,2.58,2.58,0,0,1-.78,3.65c-1,.77-2.12,1.5-3.16,2.23,1.29,2.58,1.09,3.34-1.25,5L66,29.26C63.68,30.85,62.88,30.77,60.93,28.65Z"/><path class="cls-7" d="M50.68,41.56c5.93-5.3,16.62-5.84,23.57,1s6.65,17.61,1.22,23.75A31.86,31.86,0,0,0,50.68,41.56Z"/></g></svg>