<svg id="Layer_1" data-name="Layer 1" xmlns="http://www.w3.org/2000/svg" xmlns:xlink="http://www.w3.org/1999/xlink" viewBox="0 0 100 100"><defs><style>.cls-1{fill:url(#linear-gradient);}.cls-2{fill:url(#linear-gradient-2);}</style><linearGradient id="linear-gradient" x1="50.45" y1="95.85" x2="50.45" y2="16.3" gradientUnits="userSpaceOnUse"><stop offset="0" stop-color="#af193d"/><stop offset="1" stop-color="#ff3270"/></linearGradient><linearGradient id="linear-gradient-2" x1="73.87" y1="95.85" x2="73.87" y2="16.3" xlink:href="#linear-gradient"/></defs><g id="Download_and_install" data-name="Download and install"><path class="cls-1" d="M46.89,63.46V58.8l.25,0L50.68,69.3c.71,2.13,1.32,4.29,2.16,6.37A18.61,18.61,0,0,1,54,84.59l1.52-.84c1,2.87,1.9,5.69,2.85,8.52-12.34,3-31.69-.94-43.45-17.81A43.15,43.15,0,1,1,92.82,57.88c-2.12-.71-4.26-1.32-6.3-2.18-.38-.17-.36-1.29-.58-2.19a17.07,17.07,0,0,0-2.14,0c-3.29.4-6.28-.7-9.3-1.72C69.28,50,64,48.33,58.79,46.61a3.23,3.23,0,0,1-.92-.34h7.48c-.43-3.69-.83-7.22-1.23-10.69l-10,1V46.2l1.81.14c-4.5.8-7.42,3.25-8.7,7.24-3.85-.14-7.64,0-11.66-.07.42,3.75.82,7.33,1.22,10.93ZM20.16,69.32l9.52-3.41c-.45-4.14-.9-8.23-1.34-12.32H14.67A35.63,35.63,0,0,0,20.16,69.32Zm60.6-38.63L71.23,34.1c.45,4,.9,8,1.35,12.08H86.23A35.68,35.68,0,0,0,80.76,30.69Zm-60.61,0A35.42,35.42,0,0,0,14.7,46.28c4.47,0,8.77,0,13.07,0,.27,0,.72-.57.76-.92.16-1.19.13-2.41.26-3.61.29-2.57.63-5.12.95-7.6ZM46.78,46.2V36.53l-10-1L35.57,46.2Zm.06-31c-4.39,3.65-6.41,8.26-8.12,13.34l8.12.72Zm7.31.11v14l8.06-.78C60.42,23.44,58.48,18.8,54.15,15.33ZM38.7,71.46c1.79,5.08,3.73,9.73,8.1,13.23v-14ZM35.48,17.34a34.91,34.91,0,0,0-10.64,7.52L31.41,27C32.8,23.69,34.11,20.61,35.48,17.34Zm29.94,0L69.52,27l6.56-2.16A35.11,35.11,0,0,0,65.42,17.33ZM31.39,73,24.82,75.2a35.66,35.66,0,0,0,10.66,7.43Z"/><path class="cls-2" d="M56.91,53.57c.79.23,1.74.49,2.67.8l31,10.34c.3.1.59.23.89.32a2.63,2.63,0,0,1,2.15,2.6,2.7,2.7,0,0,1-2,2.71c-4.65,1.78-9.31,3.54-13.93,5.39a3,3,0,0,0-1.48,1.48c-1.82,4.54-3.54,9.11-5.29,13.68-.61,1.58-1.53,2.34-2.82,2.27-1.52-.08-2.24-1-2.7-2.41q-5.47-16.53-11-33C53.49,55.13,55.05,53.7,56.91,53.57Z"/></g></svg>