<?xml version="1.0" encoding="utf-8"?>
<!-- Generator: Adobe Illustrator 26.0.1, SVG Export Plug-In . SVG Version: 6.00 Build 0)  -->
<svg version="1.1" xmlns="http://www.w3.org/2000/svg" xmlns:xlink="http://www.w3.org/1999/xlink" x="0px" y="0px"
	 viewBox="0 0 1920 476.13" style="enable-background:new 0 0 1920 476.13;" xml:space="preserve">
<style type="text/css">
	.st0{fill:url(#SVGID_1_);}
	.st1{opacity:0.06;}
	.st2{fill:url(#SVGID_00000176018190681843772220000011855862574376223413_);}
	.st3{fill:url(#SVGID_00000046314179473096976420000003002481742575409299_);}
	.st4{fill:url(#SVGID_00000065786910972162790020000007195152725137457059_);}
	.st5{fill:url(#SVGID_00000099643833090229421790000000557872317819543983_);}
	.st6{fill:url(#SVGID_00000159458229991426218160000016700321009869429427_);}
	.st7{fill:url(#SVGID_00000085231279959125999460000017431057340256449682_);}
	.st8{fill:url(#SVGID_00000135689679855338562080000002647484992912693413_);}
	.st9{fill:url(#SVGID_00000174564798771365119580000008421457263833623974_);}
	.st10{fill:url(#SVGID_00000095335412756629761480000011805379341383229619_);}
	.st11{fill:url(#SVGID_00000118387232508266966080000000511158209668288664_);}
	.st12{fill:url(#SVGID_00000068653755768708068830000012254008384131464622_);}
	.st13{fill:url(#SVGID_00000127730970691587557720000007036609913425746062_);}
	.st14{fill:url(#SVGID_00000032645024978908837800000004033469871421566351_);}
	.st15{fill:url(#SVGID_00000067930742289981823610000005174137719260058297_);}
	.st16{fill:url(#SVGID_00000125572943955130128140000008576133894641847179_);}
	.st17{fill:url(#SVGID_00000053506648320953487500000007253675576090767540_);}
	.st18{fill:url(#SVGID_00000054229203892728907160000016097236934539255959_);}
	.st19{fill:url(#SVGID_00000052103331165927968000000011842473377295658929_);}
	.st20{fill:url(#SVGID_00000121256516839077176060000014855662068154042550_);}
	.st21{fill:url(#SVGID_00000143587847262291800430000002391302671820941983_);}
	.st22{fill:url(#SVGID_00000078735226969818168480000016406736381458446775_);}
	.st23{fill:url(#SVGID_00000129903020524875249790000016347127253072723840_);}
	.st24{fill:url(#SVGID_00000093872926175824089740000002599954881179522472_);}
	.st25{fill:url(#SVGID_00000171694095840492973700000009688298197510273680_);}
	.st26{fill:url(#SVGID_00000165203031311994930950000000445108806021941676_);}
	.st27{fill:url(#SVGID_00000011752233973403301330000009522499972477640340_);}
	.st28{fill:url(#SVGID_00000039835410362516689570000014779683821281245079_);}
	.st29{fill:url(#SVGID_00000013872577576473313520000017412732746779296695_);}
	.st30{fill:url(#SVGID_00000099626247517180996190000013832141148447928993_);}
	.st31{fill:url(#SVGID_00000081607674719751803290000010169017806433113743_);}
	.st32{fill:url(#SVGID_00000174559933348587155790000015288952938892710061_);}
	.st33{fill:url(#SVGID_00000018213169270170716510000001672917525777369259_);}
	.st34{fill:url(#SVGID_00000160891100112655378760000004896365338183020458_);}
	.st35{fill:url(#SVGID_00000105392879842972569500000003008100481342910614_);}
	.st36{fill:url(#SVGID_00000065782719674728358510000003819040003062940544_);}
	.st37{fill:url(#SVGID_00000017505866464829742650000002919454150823626119_);}
	.st38{fill:url(#SVGID_00000044162299963115696770000012057140493409875893_);}
	.st39{fill:url(#SVGID_00000097493749054645889190000016189188917093439113_);}
	.st40{fill:url(#SVGID_00000106867468749273394490000013425439829088337329_);}
	.st41{fill:url(#SVGID_00000178922453843059855550000015586540998627195269_);}
	.st42{fill:url(#SVGID_00000114765994779220584850000014565635093117878960_);}
	.st43{fill:url(#SVGID_00000150801216654390942880000003938655574500496280_);}
	.st44{fill:url(#SVGID_00000099630243780933937160000003632201416698602898_);}
	.st45{fill:url(#SVGID_00000131348803643906583180000015873332753336934837_);}
	.st46{fill:url(#SVGID_00000000196121447791854270000003499931665682080650_);}
	.st47{fill:url(#SVGID_00000014606896875780029290000003676677601946724224_);}
	.st48{fill:url(#SVGID_00000072981453145767394770000017317439910816677262_);}
	.st49{fill:url(#SVGID_00000067941444781407889560000001252342881193701052_);}
	.st50{fill:url(#SVGID_00000178895162098261360490000010843561492342643900_);}
	.st51{fill:url(#SVGID_00000093154491688600154650000007229937361983440545_);}
	.st52{fill:url(#SVGID_00000060020277523190961590000012936101284083535526_);}
	.st53{fill:url(#SVGID_00000095330404299215778210000013381646711656311188_);}
	.st54{fill:url(#SVGID_00000016784485478535420060000001654191297214353047_);}
	.st55{fill:url(#SVGID_00000177474681416140214680000011927101153105104285_);}
	.st56{fill:url(#SVGID_00000018944927902230759730000001168018820218113943_);}
	.st57{fill:url(#SVGID_00000029728648534154282400000001942752193915936417_);}
	.st58{fill:url(#SVGID_00000083057616225614028550000008374102913641135793_);}
	.st59{fill:url(#SVGID_00000173872809591334968300000000391206053294604704_);}
	.st60{fill:url(#SVGID_00000041296105963646761140000008183638597295921316_);}
	.st61{fill:url(#SVGID_00000116220049817801516070000004433875444309750707_);}
	.st62{fill:url(#SVGID_00000173875486018264827750000014479432855034429089_);}
	.st63{fill:url(#SVGID_00000105416649868646759220000004696025117508668062_);}
	.st64{fill:url(#SVGID_00000124848995762026208970000006102174798863803804_);}
	.st65{fill:#FFFFFF;}
	.st66{fill:url(#SVGID_00000136404492614046912040000009403079969096897427_);}
	.st67{fill:url(#SVGID_00000169543373566773018880000000442936310754810757_);}
	.st68{fill:url(#SVGID_00000088827942637798081500000012984421504218056336_);}
	.st69{fill:url(#SVGID_00000004511497594779674600000016469716167725975483_);}
	.st70{fill:url(#SVGID_00000150104712682570710660000017514752044462510754_);}
	.st71{fill:url(#SVGID_00000042730207078208998030000000605058894450141858_);}
	.st72{fill:url(#SVGID_00000077324300633558592890000014096017142192613535_);}
	.st73{fill:url(#SVGID_00000011033462962434230100000007894726527968799136_);}
	.st74{fill:url(#SVGID_00000094612412451508261500000006317746957250590870_);}
	.st75{fill:url(#SVGID_00000153672889825731115380000006431670233465176487_);}
	.st76{fill:url(#SVGID_00000176016220100763418870000002121659555024645809_);}
	.st77{fill:url(#SVGID_00000016771789180667861870000005157541579395669419_);}
	.st78{fill:url(#SVGID_00000043450526414097891880000013126599004180379527_);}
	.st79{fill:url(#SVGID_00000013152277148107548890000004259991977756939178_);}
	.st80{fill:url(#SVGID_00000169555683173119928950000017205635888378464427_);}
	.st81{fill:none;stroke:#28254B;stroke-width:2;stroke-miterlimit:10;}
	.st82{fill:#DB1A5C;}
	.st83{fill:#28254B;}
	.st84{fill:url(#SVGID_00000145778094396460324500000008536269313730509731_);}
	.st85{fill:url(#SVGID_00000044865339615966864400000005449907383446524325_);}
	.st86{fill:url(#SVGID_00000003105188184772413990000016103490773011337631_);}
	.st87{fill:url(#SVGID_00000107555680563895299790000006621992542249975183_);}
	.st88{fill:url(#SVGID_00000003807386510957030710000008919140349729192631_);}
	.st89{fill:url(#SVGID_00000108998985074624940580000008662478017168573101_);}
	.st90{fill:url(#SVGID_00000088816871173242082940000011308886890936164786_);}
	.st91{fill:url(#SVGID_00000001624483583555306660000007692097218233394351_);}
	.st92{fill:url(#SVGID_00000124126117343192307690000006268501135527391678_);}
	.st93{fill:url(#SVGID_00000070814563153020092460000018314823880317217682_);}
	.st94{fill:url(#SVGID_00000178193624130369622920000005722719223744092085_);}
	.st95{fill:url(#SVGID_00000079478595227459056760000003080206617491804562_);}
	.st96{fill:url(#SVGID_00000085250789349574684190000006063368661318517634_);}
	.st97{fill:url(#SVGID_00000073700137349061763230000001170815102534701452_);}
	.st98{fill:url(#SVGID_00000054256057031980714990000000960084137608063412_);}
	.st99{fill:url(#SVGID_00000104692166564752505680000013358527135577725086_);}
	.st100{fill:url(#SVGID_00000123402765120016152040000006404823468642640009_);}
	.st101{fill:url(#SVGID_00000150824456340007493960000003204485873751408259_);}
	.st102{fill:url(#SVGID_00000080170353248258274150000015677911565729743744_);}
	.st103{fill:url(#SVGID_00000141455792234946885390000003668195139471584656_);}
	.st104{fill:url(#SVGID_00000102538055722344532260000010763977933535612859_);}
	.st105{fill:url(#SVGID_00000060721499354207149490000010931168761100896145_);}
	.st106{fill:url(#SVGID_00000055694535661392351060000011748476089081966492_);}
	.st107{fill:url(#SVGID_00000044863213649369513840000016125486168170885525_);}
	.st108{fill:url(#SVGID_00000056407841216028595670000002691629031913735054_);}
	.st109{fill:url(#SVGID_00000092444438602799289080000013581318260103514521_);}
	.st110{fill:url(#SVGID_00000073709699109196241470000000988339788698933377_);}
	.st111{fill:url(#SVGID_00000175305083819816469970000006662436927476808065_);}
</style>
<g id="Layer_2">
	<g>
		<g>
			<linearGradient id="SVGID_1_" gradientUnits="userSpaceOnUse" x1="1878.3704" y1="380.105" x2="545.4568" y2="242.3279">
				<stop  offset="0" style="stop-color:#28254B"/>
				<stop  offset="0.8127" style="stop-color:#DB1A5C"/>
			</linearGradient>
			<path class="st0" d="M532.18,205.19c6.94-12.66,16.6-22.53,29.01-29.61c12.4-7.07,26.46-10.61,42.18-10.61
				c19.26,0,35.75,5.13,49.46,15.39c13.71,10.26,22.88,24.24,27.51,41.96h-43.45c-3.23-6.84-7.82-12.04-13.75-15.62
				c-5.93-3.57-12.68-5.36-20.23-5.36c-12.17,0-22.04,4.28-29.58,12.82c-7.55,8.55-11.33,19.97-11.33,34.27
				c0,14.3,3.77,25.73,11.33,34.27c7.55,8.55,17.41,12.82,29.58,12.82c7.55,0,14.29-1.78,20.23-5.36
				c5.93-3.57,10.52-8.78,13.75-15.62h43.45c-4.62,17.72-13.79,31.67-27.51,41.84c-13.72,10.18-30.2,15.27-49.46,15.27
				c-15.72,0-29.78-3.53-42.18-10.61c-12.41-7.07-22.07-16.9-29.01-29.49c-6.93-12.59-10.4-26.96-10.4-43.13
				C521.78,232.28,525.25,217.86,532.18,205.19z"/>
			
				<linearGradient id="SVGID_00000156564339617491336490000000554624261961648552_" gradientUnits="userSpaceOnUse" x1="1878.3799" y1="381.9507" x2="545.1658" y2="244.1425">
				<stop  offset="0" style="stop-color:#28254B"/>
				<stop  offset="0.8127" style="stop-color:#DB1A5C"/>
			</linearGradient>
			<path style="fill:url(#SVGID_00000156564339617491336490000000554624261961648552_);" d="M761.47,205.19
				c6.93-4.12,14.64-6.18,23.11-6.18v42.19h-10.86c-9.86,0-17.26,2.14-22.19,6.41c-4.93,4.28-7.4,11.77-7.4,22.5v60.38h-39.53
				V200.42h39.53v21.68C748.76,214.95,754.54,209.31,761.47,205.19z"/>
			
				<linearGradient id="SVGID_00000026154732955587033710000008764192549601266601_" gradientUnits="userSpaceOnUse" x1="1884.0663" y1="347.7096" x2="548.1653" y2="209.6237">
				<stop  offset="0" style="stop-color:#28254B"/>
				<stop  offset="0.8127" style="stop-color:#DB1A5C"/>
			</linearGradient>
			<path style="fill:url(#SVGID_00000026154732955587033710000008764192549601266601_);" d="M806.43,180.72
				c-4.39-4.12-6.59-9.21-6.59-15.27c0-6.21,2.2-11.38,6.59-15.5c4.39-4.12,10.06-6.18,16.99-6.18c6.78,0,12.37,2.06,16.76,6.18
				c4.39,4.12,6.59,9.29,6.59,15.5c0,6.06-2.2,11.15-6.59,15.27c-4.39,4.12-9.98,6.18-16.76,6.18
				C816.48,186.89,810.82,184.84,806.43,180.72z M843.06,200.42V330.5h-39.53V200.42H843.06z"/>
			
				<linearGradient id="SVGID_00000035517038263731490270000013256935878379922082_" gradientUnits="userSpaceOnUse" x1="1879.9896" y1="363.7905" x2="547.0947" y2="226.0153">
				<stop  offset="0" style="stop-color:#28254B"/>
				<stop  offset="0.8127" style="stop-color:#DB1A5C"/>
			</linearGradient>
			<path style="fill:url(#SVGID_00000035517038263731490270000013256935878379922082_);" d="M872.07,230.02
				c5.47-10.1,13.1-17.87,22.88-23.31c9.78-5.44,21-8.16,33.63-8.16c16.18,0,29.7,4.28,40.56,12.82
				c10.86,8.55,17.99,20.59,21.38,36.13h-42.07c-3.55-9.94-10.4-14.92-20.57-14.92c-7.25,0-13.02,2.84-17.34,8.51
				c-4.32,5.67-6.47,13.79-6.47,24.36c0,10.57,2.16,18.69,6.47,24.36c4.31,5.68,10.09,8.51,17.34,8.51
				c10.17,0,17.03-4.97,20.57-14.92h42.07c-3.39,15.23-10.56,27.2-21.5,35.9c-10.94,8.71-24.43,13.05-40.45,13.05
				c-12.64,0-23.85-2.72-33.63-8.16c-9.79-5.44-17.41-13.21-22.88-23.31c-5.47-10.1-8.21-21.91-8.21-35.43
				C863.86,251.93,866.6,240.13,872.07,230.02z"/>
			
				<linearGradient id="SVGID_00000070113724912669415010000004230773065211720370_" gradientUnits="userSpaceOnUse" x1="1883.8865" y1="332.3676" x2="549.8521" y2="194.4746">
				<stop  offset="0" style="stop-color:#28254B"/>
				<stop  offset="0.8127" style="stop-color:#DB1A5C"/>
			</linearGradient>
			<path style="fill:url(#SVGID_00000070113724912669415010000004230773065211720370_);" d="M1090.38,330.5l-39.29-54.55v54.55
				h-39.53V157.99h39.53v95.35l39.06-52.92h48.77l-53.62,65.27l54.09,64.81H1090.38z"/>
			
				<linearGradient id="SVGID_00000035514154126966287950000005246411405243843467_" gradientUnits="userSpaceOnUse" x1="1882.8933" y1="334.6638" x2="550.0969" y2="196.8987">
				<stop  offset="0" style="stop-color:#28254B"/>
				<stop  offset="0.8127" style="stop-color:#DB1A5C"/>
			</linearGradient>
			<path style="fill:url(#SVGID_00000035514154126966287950000005246411405243843467_);" d="M1179.02,324.2
				c-10.09-5.44-18.03-13.21-23.81-23.31c-5.78-10.1-8.67-21.91-8.67-35.43c0-13.37,2.93-25.14,8.78-35.32
				c5.85-10.18,13.87-17.99,24.04-23.43c10.17-5.44,21.57-8.16,34.21-8.16c12.63,0,24.04,2.72,34.21,8.16
				c10.17,5.44,18.18,13.25,24.04,23.43c5.85,10.18,8.78,21.95,8.78,35.32c0,13.37-2.97,25.14-8.9,35.32
				c-5.93,10.18-14.02,17.99-24.27,23.43c-10.25,5.44-21.69,8.16-34.32,8.16C1200.47,332.36,1189.11,329.64,1179.02,324.2z
				 M1232.41,289.47c5.32-5.6,7.97-13.6,7.97-24.01c0-10.41-2.58-18.42-7.74-24.01c-5.16-5.59-11.52-8.39-19.07-8.39
				c-7.71,0-14.1,2.76-19.18,8.28c-5.08,5.52-7.63,13.56-7.63,24.13c0,10.41,2.5,18.42,7.51,24.01c5.01,5.59,11.28,8.39,18.84,8.39
				C1220.66,297.86,1227.09,295.06,1232.41,289.47z"/>
			
				<linearGradient id="SVGID_00000096775189833492734010000004331456919592570031_" gradientUnits="userSpaceOnUse" x1="1884.549" y1="317.3593" x2="551.9022" y2="179.6098">
				<stop  offset="0" style="stop-color:#28254B"/>
				<stop  offset="0.8127" style="stop-color:#DB1A5C"/>
			</linearGradient>
			<path style="fill:url(#SVGID_00000096775189833492734010000004331456919592570031_);" d="M1359.65,293.2l27.97-92.78h42.07
				l-45.76,130.08h-48.77l-45.76-130.08h42.3L1359.65,293.2z"/>
			
				<linearGradient id="SVGID_00000176007527009417952870000006951477724544784286_" gradientUnits="userSpaceOnUse" x1="1885.9321" y1="304.97" x2="553.127" y2="167.2041">
				<stop  offset="0" style="stop-color:#28254B"/>
				<stop  offset="0.8127" style="stop-color:#DB1A5C"/>
			</linearGradient>
			<path style="fill:url(#SVGID_00000176007527009417952870000006951477724544784286_);" d="M1567.21,275.01h-89.45
				c0.61,8.08,3.2,14.26,7.74,18.53c4.54,4.28,10.13,6.41,16.76,6.41c9.86,0,16.72-4.2,20.57-12.59h42.07
				c-2.16,8.55-6.05,16.24-11.67,23.08c-5.63,6.84-12.68,12.2-21.15,16.09c-8.47,3.89-17.95,5.83-28.43,5.83
				c-12.64,0-23.89-2.72-33.75-8.16c-9.86-5.44-17.57-13.21-23.11-23.31c-5.55-10.1-8.32-21.91-8.32-35.43
				c0-13.52,2.73-25.33,8.21-35.43c5.47-10.1,13.14-17.87,23-23.31c9.86-5.44,21.19-8.16,33.98-8.16c12.48,0,23.58,2.64,33.28,7.93
				c9.71,5.29,17.3,12.82,22.77,22.61c5.47,9.79,8.21,21.21,8.21,34.27C1567.9,267.09,1567.67,270.97,1567.21,275.01z
				 M1527.45,252.87c0-6.84-2.31-12.28-6.94-16.32c-4.62-4.04-10.4-6.06-17.33-6.06c-6.63,0-12.22,1.95-16.76,5.83
				c-4.55,3.89-7.36,9.4-8.44,16.55H1527.45z"/>
			
				<linearGradient id="SVGID_00000172419623228403368100000003606730592998216840_" gradientUnits="userSpaceOnUse" x1="1887.3536" y1="291.4937" x2="554.1395" y2="153.6855">
				<stop  offset="0" style="stop-color:#28254B"/>
				<stop  offset="0.8127" style="stop-color:#DB1A5C"/>
			</linearGradient>
			<path style="fill:url(#SVGID_00000172419623228403368100000003606730592998216840_);" d="M1645.56,205.19
				c6.93-4.12,14.64-6.18,23.11-6.18v42.19h-10.86c-9.86,0-17.26,2.14-22.19,6.41c-4.93,4.28-7.4,11.77-7.4,22.5v60.38h-39.53
				V200.42h39.53v21.68C1632.85,214.95,1638.63,209.31,1645.56,205.19z"/>
			
				<linearGradient id="SVGID_00000135656132519576077180000011173992750423772032_" gradientUnits="userSpaceOnUse" x1="1888.4434" y1="280.9389" x2="555.1585" y2="143.1234">
				<stop  offset="0" style="stop-color:#28254B"/>
				<stop  offset="0.8127" style="stop-color:#DB1A5C"/>
			</linearGradient>
			<path style="fill:url(#SVGID_00000135656132519576077180000011173992750423772032_);" d="M1710.05,326.53
				c-8.78-3.88-15.72-9.21-20.8-15.97c-5.08-6.76-7.94-14.34-8.55-22.73h39.06c0.46,4.51,2.54,8.16,6.24,10.96s8.24,4.2,13.64,4.2
				c4.93,0,8.74-0.97,11.44-2.91c2.7-1.94,4.05-4.47,4.05-7.58c0-3.73-1.93-6.49-5.78-8.28c-3.85-1.78-10.09-3.77-18.72-5.94
				c-9.24-2.17-16.95-4.47-23.11-6.88c-6.17-2.41-11.48-6.21-15.95-11.42c-4.47-5.2-6.7-12.24-6.7-21.1c0-7.46,2.04-14.26,6.13-20.4
				c4.08-6.14,10.09-10.99,18.03-14.57c7.93-3.57,17.37-5.36,28.31-5.36c16.18,0,28.93,4.04,38.25,12.12
				c9.32,8.08,14.68,18.8,16.06,32.17h-36.52c-0.62-4.51-2.58-8.08-5.89-10.72c-3.32-2.64-7.67-3.96-13.06-3.96
				c-4.62,0-8.17,0.9-10.63,2.68c-2.46,1.79-3.7,4.24-3.7,7.34c0,3.73,1.96,6.53,5.89,8.39c3.93,1.86,10.05,3.73,18.38,5.59
				c9.55,2.49,17.34,4.94,23.34,7.34c6.01,2.41,11.29,6.29,15.83,11.66c4.54,5.36,6.89,12.55,7.05,21.56
				c0,7.62-2.12,14.42-6.36,20.4c-4.24,5.98-10.33,10.69-18.26,14.1c-7.94,3.42-17.14,5.13-27.62,5.13
				C1728.85,332.36,1718.83,330.42,1710.05,326.53z"/>
		</g>
		<g>
			<g>
				<g>
					
						<linearGradient id="SVGID_00000119795920099570237900000002597547176833433273_" gradientUnits="userSpaceOnUse" x1="226.1989" y1="146.1875" x2="358.5389" y2="340.0376">
						<stop  offset="0.2253" style="stop-color:#28254B"/>
						<stop  offset="0.5267" style="stop-color:#DB1A5C"/>
					</linearGradient>
					<path style="fill:url(#SVGID_00000119795920099570237900000002597547176833433273_);" d="M239.86,279l0.37,1.75
						c-12.07-13.24-19.1-31.12-18.24-50.49c1.69-38.66,34.12-68.57,72.41-66.86c9.57,0.43,18.62,2.78,26.78,6.69
						C244.55,201.76,239.86,279,239.86,279z"/>
					
						<linearGradient id="SVGID_00000131352707557984028810000005043865401701663880_" gradientUnits="userSpaceOnUse" x1="231.1864" y1="142.1787" x2="363.8936" y2="336.5669">
						<stop  offset="0.2253" style="stop-color:#28254B"/>
						<stop  offset="0.5267" style="stop-color:#DB1A5C"/>
					</linearGradient>
					<path style="fill:url(#SVGID_00000131352707557984028810000005043865401701663880_);" d="M258.76,295.19
						c-2.66-1.4-5.18-3.01-7.6-4.71l-1.26-10.11c5.98-78.07,79.01-103.98,79.01-103.98l1.09-0.42c4.79,3.11,8.18,5.38,12.06,9.56
						C264.33,216.32,258.87,293.61,258.76,295.19z"/>
					
						<linearGradient id="SVGID_00000101097711827183116520000009350239573975048871_" gradientUnits="userSpaceOnUse" x1="235.6425" y1="139.432" x2="367.8166" y2="333.0391">
						<stop  offset="0.2253" style="stop-color:#28254B"/>
						<stop  offset="0.5267" style="stop-color:#DB1A5C"/>
					</linearGradient>
					<path style="fill:url(#SVGID_00000101097711827183116520000009350239573975048871_);" d="M288.28,303.31
						c-6.67-0.3-13.08-1.55-19.07-3.59l-0.41-3.13c5.96-78.07,79-103.99,79-103.99c8.76,12.3,13.63,27.54,12.92,43.86
						C359.03,275.08,326.57,305.02,288.28,303.31z"/>
				</g>
				
					<linearGradient id="SVGID_00000070086891335236810350000005391133805539083953_" gradientUnits="userSpaceOnUse" x1="226.1989" y1="146.1875" x2="358.5389" y2="340.0376">
					<stop  offset="0.2253" style="stop-color:#28254B"/>
					<stop  offset="0.5267" style="stop-color:#DB1A5C"/>
				</linearGradient>
				<path style="fill:url(#SVGID_00000070086891335236810350000005391133805539083953_);" d="M239.86,279l0.37,1.75
					c-12.07-13.24-19.1-31.12-18.24-50.49c1.69-38.66,34.12-68.57,72.41-66.86c9.57,0.43,18.62,2.78,26.78,6.69
					C244.55,201.76,239.86,279,239.86,279z"/>
				
					<linearGradient id="SVGID_00000139993685771150661250000001591981327051777205_" gradientUnits="userSpaceOnUse" x1="231.1864" y1="142.1787" x2="363.8936" y2="336.5669">
					<stop  offset="0.2253" style="stop-color:#28254B"/>
					<stop  offset="0.5267" style="stop-color:#DB1A5C"/>
				</linearGradient>
				<path style="fill:url(#SVGID_00000139993685771150661250000001591981327051777205_);" d="M258.76,295.19
					c-2.66-1.4-5.18-3.01-7.6-4.71l-1.26-10.11c5.98-78.07,79.01-103.98,79.01-103.98l1.09-0.42c4.79,3.11,8.18,5.38,12.06,9.56
					C264.33,216.32,258.87,293.61,258.76,295.19z"/>
				
					<linearGradient id="SVGID_00000132063041330152790890000000233762796599689614_" gradientUnits="userSpaceOnUse" x1="235.6425" y1="139.432" x2="367.8166" y2="333.0391">
					<stop  offset="0.2253" style="stop-color:#28254B"/>
					<stop  offset="0.5267" style="stop-color:#DB1A5C"/>
				</linearGradient>
				<path style="fill:url(#SVGID_00000132063041330152790890000000233762796599689614_);" d="M288.28,303.31
					c-6.67-0.3-13.08-1.55-19.07-3.59l-0.41-3.13c5.96-78.07,79-103.99,79-103.99c8.76,12.3,13.63,27.54,12.92,43.86
					C359.03,275.08,326.57,305.02,288.28,303.31z"/>
			</g>
			
				<linearGradient id="SVGID_00000075157463481435876340000014346284887210221199_" gradientUnits="userSpaceOnUse" x1="226.2501" y1="49.9886" x2="356.1716" y2="154.0897">
				<stop  offset="0" style="stop-color:#28254B"/>
				<stop  offset="0.8127" style="stop-color:#DB1A5C"/>
			</linearGradient>
			<path style="fill:url(#SVGID_00000075157463481435876340000014346284887210221199_);" d="M436.71,35.7
				c0,0-11.08,47.19-93.57,51.53c0,0-120.43-13.01-204.77,74.9c-0.1,0.11-0.16,0.17-0.19,0.21h-0.01c0.01-0.02,0.02-0.06,0.02-0.09
				c7.33-19.22,15.84-35.93,25.21-50.46c0.05-0.09,0.1-0.17,0.16-0.24C195.58,63.53,262.3,1.87,387.63,23.66
				c0.05,0.01,0.07,0.01,0.07,0.01C403.14,26.35,419.46,30.3,436.71,35.7z"/>
			
				<linearGradient id="SVGID_00000058580274590699253760000002278589356176706187_" gradientUnits="userSpaceOnUse" x1="122.4646" y1="476.8996" x2="435.0407" y2="283.225">
				<stop  offset="0.3415" style="stop-color:#28254B"/>
				<stop  offset="0.7033" style="stop-color:#DB1A5C"/>
			</linearGradient>
			<path style="fill:url(#SVGID_00000058580274590699253760000002278589356176706187_);" d="M436.71,437.39
				c-24.77,9.08-47.68,14.74-68.84,17.57c-0.05,0.01-0.1,0.01-0.13,0.02c-18.14,2.42-35,2.78-50.63,1.48c-0.01,0-0.01,0-0.02,0
				c-52.11-5.12-132.03-32.56-178.92-144.46V312c-0.01-0.02-0.01-0.02-0.01-0.02c0.01,0.01,0.01,0.01,0.02,0.02
				c0.05,0.05,0.22,0.22,0.49,0.49c0.16,0.16,0.31,0.32,0.48,0.47c0.37,0.36,0.86,0.84,1.45,1.4c0.49,0.49,0.99,0.96,1.48,1.42
				c0.77,0.73,1.64,1.56,2.63,2.48c87.3,80.68,201.5,69.46,201.5,69.46C415.17,386.49,436.71,437.39,436.71,437.39z"/>
			
				<linearGradient id="SVGID_00000122696678052009920240000001761183202892723130_" gradientUnits="userSpaceOnUse" x1="157.6221" y1="208.5192" x2="313.5326" y2="260.7636">
				<stop  offset="0.0947" style="stop-color:#28254B"/>
				<stop  offset="0.3756" style="stop-color:#DB1A5C"/>
			</linearGradient>
			<path style="fill:url(#SVGID_00000122696678052009920240000001761183202892723130_);" d="M236.64,341.16
				c0,0-98.49-103.06,5.54-210.47c0,0-101.57,34.77-113.27,94.99C128.92,225.68,109.46,293.72,236.64,341.16z"/>
			
				<linearGradient id="SVGID_00000011748005218836284840000009475474454259509433_" gradientUnits="userSpaceOnUse" x1="511.5229" y1="329.962" x2="421.7402" y2="409.0099">
				<stop  offset="0.1678" style="stop-color:#28254B"/>
				<stop  offset="0.8525" style="stop-color:#DB1A5C"/>
			</linearGradient>
			<path style="fill:url(#SVGID_00000011748005218836284840000009475474454259509433_);" d="M393.62,376.55
				c0,0,38.17-8.69,68.33,48.43c0,0,18.06-10.62,34.1-24.18c15.25-12.89,14.63-36.74-1.29-48.78l-3.58-2.71
				c-16.42-12.42-39.03-11.6-54.85,1.58C425.18,360.17,410.64,370.05,393.62,376.55z"/>
			
				<linearGradient id="SVGID_00000078758022237139135260000006298788054581131966_" gradientUnits="userSpaceOnUse" x1="508.8908" y1="137.7876" x2="433.7578" y2="77.2908">
				<stop  offset="0.1699" style="stop-color:#28254B"/>
				<stop  offset="0.8525" style="stop-color:#DB1A5C"/>
			</linearGradient>
			<path style="fill:url(#SVGID_00000078758022237139135260000006298788054581131966_);" d="M393.66,98.4
				c0,0,38.17,8.69,68.33-48.43c0,0,18.06,10.62,34.1,24.18c15.25,12.89,14.63,36.74-1.29,48.78l-3.58,2.71
				c-16.42,12.42-39.03,11.6-54.85-1.58C425.22,114.78,410.68,104.9,393.66,98.4z"/>
			
				<linearGradient id="SVGID_00000052782373360356566280000009558112471389397155_" gradientUnits="userSpaceOnUse" x1="104.459" y1="-18.2143" x2="255.4347" y2="87.7551">
				<stop  offset="0.4797" style="stop-color:#28254B"/>
				<stop  offset="0.8127" style="stop-color:#DB1A5C"/>
			</linearGradient>
			<path style="fill:url(#SVGID_00000052782373360356566280000009558112471389397155_);" d="M387.71,23.67
				C276.09,18,144.36,155.79,138.37,162.12c-0.1,0.11-0.16,0.17-0.19,0.21c-0.01,0.01-0.02,0.02-0.02,0.02
				c0-0.01,0.01-0.01,0.01-0.02c0.01-0.02,0.02-0.06,0.02-0.09c7.33-19.22,15.84-35.93,25.21-50.46c0.05-0.09,0.1-0.17,0.16-0.24
				c79.47-122.92,220.56-88.76,224.08-87.88C387.68,23.67,387.71,23.67,387.71,23.67z"/>
			
				<linearGradient id="SVGID_00000057834064219783657470000012790750203893216694_" gradientUnits="userSpaceOnUse" x1="159.5052" y1="480.6529" x2="305.8184" y2="328.618">
				<stop  offset="0.2072" style="stop-color:#28254B"/>
				<stop  offset="0.6294" style="stop-color:#DB1A5C"/>
			</linearGradient>
			<path style="fill:url(#SVGID_00000057834064219783657470000012790750203893216694_);" d="M367.88,454.96c0,0-0.05,0.01-0.13,0.02
				c-1.84,0.38-22.06,4.28-50.63,1.48c-0.01,0-0.01,0-0.02,0c-52.11-5.12-132.03-32.56-178.92-144.46V312h0.01
				c0.05,0.05,0.22,0.22,0.49,0.49c0.13,0.13,0.29,0.29,0.48,0.47c0.37,0.36,0.86,0.84,1.45,1.4c0.43,0.41,0.93,0.89,1.48,1.42
				c0.77,0.73,1.64,1.56,2.63,2.48C170.46,342.42,268.15,429.3,367.88,454.96z"/>
			
				<linearGradient id="SVGID_00000130616245065127509620000004812988906887635647_" gradientUnits="userSpaceOnUse" x1="19.1061" y1="90.0376" x2="265.6086" y2="259.3273">
				<stop  offset="0.407" style="stop-color:#28254B"/>
				<stop  offset="0.7033" style="stop-color:#DB1A5C"/>
			</linearGradient>
			<path style="fill:url(#SVGID_00000130616245065127509620000004812988906887635647_);" d="M242.18,130.69
				c0,0-121.12,116.68-70.98,176.35c0,0-47.61-33.63-43.26-74.57S176.93,153.66,242.18,130.69z"/>
		</g>
	</g>
</g>
<g id="Layer_1">
</g>
</svg>
