<?xml version="1.0" encoding="utf-8"?>
<!-- Generator: Adobe Illustrator 26.0.1, SVG Export Plug-In . SVG Version: 6.00 Build 0)  -->
<svg version="1.1" xmlns="http://www.w3.org/2000/svg" xmlns:xlink="http://www.w3.org/1999/xlink" x="0px" y="0px"
	 viewBox="0 0 1920 476.13" style="enable-background:new 0 0 1920 476.13;" xml:space="preserve">
<style type="text/css">
	.st0{fill:url(#SVGID_1_);}
	.st1{opacity:0.06;}
	.st2{fill:url(#SVGID_00000044877692944957096850000008516921968300678288_);}
	.st3{fill:url(#SVGID_00000076581395703782509560000000281415935033921156_);}
	.st4{fill:url(#SVGID_00000137094420400188213200000014489034388662949258_);}
	.st5{fill:url(#SVGID_00000036941129323858083620000009983562149717940119_);}
	.st6{fill:url(#SVGID_00000113334917945672843430000007052228518720307865_);}
	.st7{fill:url(#SVGID_00000021799702923875105300000013456603637084485518_);}
	.st8{fill:url(#SVGID_00000116951053841053886280000013815311538334354060_);}
	.st9{fill:url(#SVGID_00000051345728868774569350000003075238471693831564_);}
	.st10{fill:url(#SVGID_00000050642077437132029150000010671563946197184659_);}
	.st11{fill:url(#SVGID_00000163046573659279108080000001712512869452865667_);}
	.st12{fill:url(#SVGID_00000140722054477590738990000012222199183341591726_);}
	.st13{fill:url(#SVGID_00000056386335568824706880000011732901340994173099_);}
	.st14{fill:url(#SVGID_00000098909750292901916900000002642841322741541800_);}
	.st15{fill:url(#SVGID_00000107550316282433639650000015528026849346091683_);}
	.st16{fill:url(#SVGID_00000083803403015866716970000002540955681201566649_);}
	.st17{fill:url(#SVGID_00000106107044788037755290000006746605370270298253_);}
	.st18{fill:url(#SVGID_00000078045795387514446690000000553555841380284088_);}
	.st19{fill:url(#SVGID_00000072993593659990581980000004965885061478720181_);}
	.st20{fill:url(#SVGID_00000173845042639409034830000009015117790948087479_);}
	.st21{fill:url(#SVGID_00000114071199593628723510000011767422107520540556_);}
	.st22{fill:url(#SVGID_00000078748647198667834840000007983992494927072925_);}
	.st23{fill:url(#SVGID_00000039117662527574460150000013428557667199048836_);}
	.st24{fill:url(#SVGID_00000183938278639704245590000010587037861833965981_);}
	.st25{fill:url(#SVGID_00000124879937352719848350000016989092243958917005_);}
	.st26{fill:url(#SVGID_00000091704472562812826890000002731967095602522774_);}
	.st27{fill:url(#SVGID_00000042730079210593781170000008889282971200976831_);}
	.st28{fill:url(#SVGID_00000109731969144132748340000010899043662966404021_);}
	.st29{fill:url(#SVGID_00000098222690785277113240000012596324493498759040_);}
	.st30{fill:url(#SVGID_00000103258912155189986150000004642378941873724857_);}
	.st31{fill:url(#SVGID_00000116928487857726368300000017517005925273981366_);}
	.st32{fill:url(#SVGID_00000155114597460265749130000001662080030732143784_);}
	.st33{fill:url(#SVGID_00000070093518298131634730000007178537290556459913_);}
	.st34{fill:url(#SVGID_00000179621390070909969570000016660703556253388169_);}
	.st35{fill:url(#SVGID_00000106853207249119501560000016048105271984246963_);}
	.st36{fill:url(#SVGID_00000129891411438011533040000003985765621499926194_);}
	.st37{fill:url(#SVGID_00000094589801040477166410000015347205560234247605_);}
	.st38{fill:url(#SVGID_00000064349896165947765140000017310651219327701658_);}
	.st39{fill:url(#SVGID_00000175324866899100450340000004460688474996787610_);}
	.st40{fill:url(#SVGID_00000111899953866010495720000011476390072380512444_);}
	.st41{fill:#FFFFFF;}
	.st42{fill:url(#SVGID_00000145741241547358812380000008904950890596212393_);}
	.st43{fill:url(#SVGID_00000103247900753340622620000009887498880442506410_);}
	.st44{fill:url(#SVGID_00000173868685313368240240000007772233766937136524_);}
	.st45{fill:url(#SVGID_00000035490710694971615410000016732202314233365899_);}
	.st46{fill:url(#SVGID_00000124128705190194717150000011405443818849158548_);}
	.st47{fill:url(#SVGID_00000084501380819513338890000003972138583072140944_);}
	.st48{fill:url(#SVGID_00000034050514280450557550000002254375398878598552_);}
	.st49{fill:url(#SVGID_00000078044154905222569460000011524606858780872104_);}
	.st50{fill:url(#SVGID_00000067236008036084558290000007443316324076550298_);}
	.st51{fill:url(#SVGID_00000064339758190954337420000012315519805300214660_);}
	.st52{fill:url(#SVGID_00000054977283285788384370000009872048044842515083_);}
	.st53{fill:url(#SVGID_00000129172380430455161840000006237108972940809907_);}
	.st54{fill:url(#SVGID_00000045610939865368021010000014029821231053486006_);}
	.st55{fill:url(#SVGID_00000032650356398751674780000006906713382176634010_);}
	.st56{fill:url(#SVGID_00000044895646841734488180000010593680687382227864_);}
	.st57{fill:none;stroke:#28254B;stroke-width:2;stroke-miterlimit:10;}
	.st58{fill:#DB1A5C;}
	.st59{fill:#28254B;}
	.st60{fill:url(#SVGID_00000168835581791252159750000008056620414402859683_);}
	.st61{fill:url(#SVGID_00000091719904457973204550000009522045362244420737_);}
	.st62{fill:url(#SVGID_00000016770121652778742040000012137506810665403563_);}
	.st63{fill:url(#SVGID_00000099635502393497716470000003336306151855386803_);}
	.st64{fill:url(#SVGID_00000049905560358583153190000006557723298228451502_);}
	.st65{fill:url(#SVGID_00000108285031258646633710000010139088018541620120_);}
	.st66{fill:url(#SVGID_00000137104028615348315300000002841036387139030149_);}
	.st67{fill:url(#SVGID_00000090988159440544698320000011087873377847874984_);}
	.st68{fill:url(#SVGID_00000036247947288786472360000001026118734976144799_);}
	.st69{fill:url(#SVGID_00000013904813441931564020000012218930781923223185_);}
	.st70{fill:url(#SVGID_00000063597877377481565070000005478255137977622447_);}
	.st71{fill:url(#SVGID_00000114771325699410171180000011632852646855051395_);}
	.st72{fill:url(#SVGID_00000173135653166311600380000012514706798302808967_);}
	.st73{fill:url(#SVGID_00000065073497579162585880000005050749683824277176_);}
	.st74{fill:url(#SVGID_00000008142660003756918160000000763881648903109257_);}
	.st75{fill:url(#SVGID_00000130613964798721431220000008620540512358059153_);}
	.st76{fill:url(#SVGID_00000020368228370859862110000005389204790825869975_);}
	.st77{fill:url(#SVGID_00000124139455972745814960000009134928704282216345_);}
	.st78{fill:url(#SVGID_00000000907166502978256560000007730210024431506331_);}
	.st79{fill:url(#SVGID_00000015323016025560998060000004072843254399371929_);}
	.st80{fill:url(#SVGID_00000093865966431461122860000003787900024440461244_);}
	.st81{fill:url(#SVGID_00000117663730399412881360000006172473336319944579_);}
	.st82{fill:url(#SVGID_00000150091892334554393110000014848545061898210692_);}
	.st83{fill:url(#SVGID_00000130641156408425833860000018333948077967057815_);}
	.st84{fill:url(#SVGID_00000026163092176451934690000014076456815940424333_);}
	.st85{fill:url(#SVGID_00000149367922034000535440000008726035199242447542_);}
	.st86{fill:url(#SVGID_00000018219624041189086300000009495187430871310764_);}
	.st87{fill:url(#SVGID_00000175282283354591224770000011501051803110549653_);}
</style>
<g id="Layer_2">
	<g>
		<g>
			<path class="st41" d="M532.18,205.19c6.94-12.66,16.6-22.53,29.01-29.61c12.4-7.07,26.46-10.61,42.18-10.61
				c19.26,0,35.75,5.13,49.46,15.39c13.71,10.26,22.88,24.24,27.51,41.96h-43.45c-3.23-6.84-7.82-12.04-13.75-15.62
				c-5.93-3.57-12.68-5.36-20.23-5.36c-12.17,0-22.04,4.28-29.58,12.82c-7.55,8.55-11.33,19.97-11.33,34.27
				c0,14.3,3.77,25.73,11.33,34.27c7.55,8.55,17.41,12.82,29.58,12.82c7.55,0,14.29-1.78,20.23-5.36
				c5.93-3.57,10.52-8.78,13.75-15.62h43.45c-4.62,17.72-13.79,31.67-27.51,41.84c-13.72,10.18-30.2,15.27-49.46,15.27
				c-15.72,0-29.78-3.53-42.18-10.61c-12.41-7.07-22.07-16.9-29.01-29.49c-6.93-12.59-10.4-26.96-10.4-43.13
				C521.78,232.28,525.25,217.86,532.18,205.19z"/>
			<path class="st41" d="M761.47,205.19c6.93-4.12,14.64-6.18,23.11-6.18v42.19h-10.86c-9.86,0-17.26,2.14-22.19,6.41
				c-4.93,4.28-7.4,11.77-7.4,22.5v60.38h-39.53V200.42h39.53v21.68C748.76,214.95,754.54,209.31,761.47,205.19z"/>
			<path class="st41" d="M806.43,180.72c-4.39-4.12-6.59-9.21-6.59-15.27c0-6.21,2.2-11.38,6.59-15.5
				c4.39-4.12,10.06-6.18,16.99-6.18c6.78,0,12.37,2.06,16.76,6.18c4.39,4.12,6.59,9.29,6.59,15.5c0,6.06-2.2,11.15-6.59,15.27
				c-4.39,4.12-9.98,6.18-16.76,6.18C816.48,186.89,810.82,184.84,806.43,180.72z M843.06,200.42V330.5h-39.53V200.42H843.06z"/>
			<path class="st41" d="M872.07,230.02c5.47-10.1,13.1-17.87,22.88-23.31c9.78-5.44,21-8.16,33.63-8.16
				c16.18,0,29.7,4.28,40.56,12.82c10.86,8.55,17.99,20.59,21.38,36.13h-42.07c-3.55-9.94-10.4-14.92-20.57-14.92
				c-7.25,0-13.02,2.84-17.34,8.51c-4.32,5.67-6.47,13.79-6.47,24.36c0,10.57,2.16,18.69,6.47,24.36
				c4.31,5.68,10.09,8.51,17.34,8.51c10.17,0,17.03-4.97,20.57-14.92h42.07c-3.39,15.23-10.56,27.2-21.5,35.9
				c-10.94,8.71-24.43,13.05-40.45,13.05c-12.64,0-23.85-2.72-33.63-8.16c-9.79-5.44-17.41-13.21-22.88-23.31
				c-5.47-10.1-8.21-21.91-8.21-35.43C863.86,251.93,866.6,240.13,872.07,230.02z"/>
			<path class="st41" d="M1090.38,330.5l-39.29-54.55v54.55h-39.53V157.99h39.53v95.35l39.06-52.92h48.77l-53.62,65.27l54.09,64.81
				H1090.38z"/>
			<path class="st41" d="M1179.02,324.2c-10.09-5.44-18.03-13.21-23.81-23.31c-5.78-10.1-8.67-21.91-8.67-35.43
				c0-13.37,2.93-25.14,8.78-35.32c5.85-10.18,13.87-17.99,24.04-23.43c10.17-5.44,21.57-8.16,34.21-8.16
				c12.63,0,24.04,2.72,34.21,8.16c10.17,5.44,18.18,13.25,24.04,23.43c5.85,10.18,8.78,21.95,8.78,35.32
				c0,13.37-2.97,25.14-8.9,35.32c-5.93,10.18-14.02,17.99-24.27,23.43c-10.25,5.44-21.69,8.16-34.32,8.16
				C1200.47,332.36,1189.11,329.64,1179.02,324.2z M1232.41,289.47c5.32-5.6,7.97-13.6,7.97-24.01c0-10.41-2.58-18.42-7.74-24.01
				c-5.16-5.59-11.52-8.39-19.07-8.39c-7.71,0-14.1,2.76-19.18,8.28c-5.08,5.52-7.63,13.56-7.63,24.13c0,10.41,2.5,18.42,7.51,24.01
				c5.01,5.59,11.28,8.39,18.84,8.39C1220.66,297.86,1227.09,295.06,1232.41,289.47z"/>
			<path class="st41" d="M1359.65,293.2l27.97-92.78h42.07l-45.76,130.08h-48.77l-45.76-130.08h42.3L1359.65,293.2z"/>
			<path class="st41" d="M1567.21,275.01h-89.45c0.61,8.08,3.2,14.26,7.74,18.53c4.54,4.28,10.13,6.41,16.76,6.41
				c9.86,0,16.72-4.2,20.57-12.59h42.07c-2.16,8.55-6.05,16.24-11.67,23.08c-5.63,6.84-12.68,12.2-21.15,16.09
				c-8.47,3.89-17.95,5.83-28.43,5.83c-12.64,0-23.89-2.72-33.75-8.16c-9.86-5.44-17.57-13.21-23.11-23.31
				c-5.55-10.1-8.32-21.91-8.32-35.43c0-13.52,2.73-25.33,8.21-35.43c5.47-10.1,13.14-17.87,23-23.31
				c9.86-5.44,21.19-8.16,33.98-8.16c12.48,0,23.58,2.64,33.28,7.93c9.71,5.29,17.3,12.82,22.77,22.61
				c5.47,9.79,8.21,21.21,8.21,34.27C1567.9,267.09,1567.67,270.97,1567.21,275.01z M1527.45,252.87c0-6.84-2.31-12.28-6.94-16.32
				c-4.62-4.04-10.4-6.06-17.33-6.06c-6.63,0-12.22,1.95-16.76,5.83c-4.55,3.89-7.36,9.4-8.44,16.55H1527.45z"/>
			<path class="st41" d="M1645.56,205.19c6.93-4.12,14.64-6.18,23.11-6.18v42.19h-10.86c-9.86,0-17.26,2.14-22.19,6.41
				c-4.93,4.28-7.4,11.77-7.4,22.5v60.38h-39.53V200.42h39.53v21.68C1632.85,214.95,1638.63,209.31,1645.56,205.19z"/>
			<path class="st41" d="M1710.05,326.53c-8.78-3.88-15.72-9.21-20.8-15.97c-5.08-6.76-7.94-14.34-8.55-22.73h39.06
				c0.46,4.51,2.54,8.16,6.24,10.96s8.24,4.2,13.64,4.2c4.93,0,8.74-0.97,11.44-2.91c2.7-1.94,4.05-4.47,4.05-7.58
				c0-3.73-1.93-6.49-5.78-8.28c-3.85-1.78-10.09-3.77-18.72-5.94c-9.24-2.17-16.95-4.47-23.11-6.88
				c-6.17-2.41-11.48-6.21-15.95-11.42c-4.47-5.2-6.7-12.24-6.7-21.1c0-7.46,2.04-14.26,6.13-20.4
				c4.08-6.14,10.09-10.99,18.03-14.57c7.93-3.57,17.37-5.36,28.31-5.36c16.18,0,28.93,4.04,38.25,12.12
				c9.32,8.08,14.68,18.8,16.06,32.17h-36.52c-0.62-4.51-2.58-8.08-5.89-10.72c-3.32-2.64-7.67-3.96-13.06-3.96
				c-4.62,0-8.17,0.9-10.63,2.68c-2.46,1.79-3.7,4.24-3.7,7.34c0,3.73,1.96,6.53,5.89,8.39c3.93,1.86,10.05,3.73,18.38,5.59
				c9.55,2.49,17.34,4.94,23.34,7.34c6.01,2.41,11.29,6.29,15.83,11.66c4.54,5.36,6.89,12.55,7.05,21.56
				c0,7.62-2.12,14.42-6.36,20.4c-4.24,5.98-10.33,10.69-18.26,14.1c-7.94,3.42-17.14,5.13-27.62,5.13
				C1728.85,332.36,1718.83,330.42,1710.05,326.53z"/>
		</g>
		<g>
			<g>
				<g>
					<path class="st41" d="M239.86,279l0.37,1.75c-12.07-13.24-19.1-31.12-18.24-50.49c1.69-38.66,34.12-68.57,72.41-66.86
						c9.57,0.43,18.62,2.78,26.78,6.69C244.55,201.76,239.86,279,239.86,279z"/>
					<path class="st41" d="M258.76,295.19c-2.66-1.4-5.18-3.01-7.6-4.71l-1.26-10.11c5.98-78.07,79.01-103.98,79.01-103.98
						l1.09-0.42c4.79,3.11,8.18,5.38,12.06,9.56C264.33,216.32,258.87,293.61,258.76,295.19z"/>
					<path class="st41" d="M288.28,303.31c-6.67-0.3-13.08-1.55-19.07-3.59l-0.41-3.13c5.96-78.07,79-103.99,79-103.99
						c8.76,12.3,13.63,27.54,12.92,43.86C359.03,275.08,326.57,305.02,288.28,303.31z"/>
				</g>
				<path class="st41" d="M239.86,279l0.37,1.75c-12.07-13.24-19.1-31.12-18.24-50.49c1.69-38.66,34.12-68.57,72.41-66.86
					c9.57,0.43,18.62,2.78,26.78,6.69C244.55,201.76,239.86,279,239.86,279z"/>
				<path class="st41" d="M258.76,295.19c-2.66-1.4-5.18-3.01-7.6-4.71l-1.26-10.11c5.98-78.07,79.01-103.98,79.01-103.98l1.09-0.42
					c4.79,3.11,8.18,5.38,12.06,9.56C264.33,216.32,258.87,293.61,258.76,295.19z"/>
				<path class="st41" d="M288.28,303.31c-6.67-0.3-13.08-1.55-19.07-3.59l-0.41-3.13c5.96-78.07,79-103.99,79-103.99
					c8.76,12.3,13.63,27.54,12.92,43.86C359.03,275.08,326.57,305.02,288.28,303.31z"/>
			</g>
			<path class="st41" d="M436.71,35.7c0,0-11.08,47.19-93.57,51.53c0,0-120.43-13.01-204.77,74.9c-0.1,0.11-0.16,0.17-0.19,0.21
				h-0.01c0.01-0.02,0.02-0.06,0.02-0.09c7.33-19.22,15.84-35.93,25.21-50.46c0.05-0.09,0.1-0.17,0.16-0.24
				C195.58,63.53,262.3,1.87,387.63,23.66c0.05,0.01,0.07,0.01,0.07,0.01C403.14,26.35,419.46,30.3,436.71,35.7z"/>
			<path class="st41" d="M436.71,437.39c-24.77,9.08-47.68,14.74-68.84,17.57c-0.05,0.01-0.1,0.01-0.13,0.02
				c-18.14,2.42-35,2.78-50.63,1.48c-0.01,0-0.01,0-0.02,0c-52.11-5.12-132.03-32.56-178.92-144.46V312
				c-0.01-0.02-0.01-0.02-0.01-0.02c0.01,0.01,0.01,0.01,0.02,0.02c0.05,0.05,0.22,0.22,0.49,0.49c0.16,0.16,0.31,0.32,0.48,0.47
				c0.37,0.36,0.86,0.84,1.45,1.4c0.49,0.49,0.99,0.96,1.48,1.42c0.77,0.73,1.64,1.56,2.63,2.48c87.3,80.68,201.5,69.46,201.5,69.46
				C415.17,386.49,436.71,437.39,436.71,437.39z"/>
			<path class="st41" d="M236.64,341.16c0,0-98.49-103.06,5.54-210.47c0,0-101.57,34.77-113.27,94.99
				C128.92,225.68,109.46,293.72,236.64,341.16z"/>
			<path class="st41" d="M393.62,376.55c0,0,38.17-8.69,68.33,48.43c0,0,18.06-10.62,34.1-24.18c15.25-12.89,14.63-36.74-1.29-48.78
				l-3.58-2.71c-16.42-12.42-39.03-11.6-54.85,1.58C425.18,360.17,410.64,370.05,393.62,376.55z"/>
			<path class="st41" d="M393.66,98.4c0,0,38.17,8.69,68.33-48.43c0,0,18.06,10.62,34.1,24.18c15.25,12.89,14.63,36.74-1.29,48.78
				l-3.58,2.71c-16.42,12.42-39.03,11.6-54.85-1.58C425.22,114.78,410.68,104.9,393.66,98.4z"/>
			<path class="st41" d="M387.71,23.67C276.09,18,144.36,155.79,138.37,162.12c-0.1,0.11-0.16,0.17-0.19,0.21
				c-0.01,0.01-0.02,0.02-0.02,0.02c0-0.01,0.01-0.01,0.01-0.02c0.01-0.02,0.02-0.06,0.02-0.09c7.33-19.22,15.84-35.93,25.21-50.46
				c0.05-0.09,0.1-0.17,0.16-0.24c79.47-122.92,220.56-88.76,224.08-87.88C387.68,23.67,387.71,23.67,387.71,23.67z"/>
			<path class="st41" d="M367.88,454.96c0,0-0.05,0.01-0.13,0.02c-1.84,0.38-22.06,4.28-50.63,1.48c-0.01,0-0.01,0-0.02,0
				c-52.11-5.12-132.03-32.56-178.92-144.46V312h0.01c0.05,0.05,0.22,0.22,0.49,0.49c0.13,0.13,0.29,0.29,0.48,0.47
				c0.37,0.36,0.86,0.84,1.45,1.4c0.43,0.41,0.93,0.89,1.48,1.42c0.77,0.73,1.64,1.56,2.63,2.48
				C170.46,342.42,268.15,429.3,367.88,454.96z"/>
			<path class="st41" d="M242.18,130.69c0,0-121.12,116.68-70.98,176.35c0,0-47.61-33.63-43.26-74.57S176.93,153.66,242.18,130.69z"
				/>
		</g>
	</g>
</g>
<g id="Layer_1">
</g>
</svg>
