<?xml version="1.0" encoding="utf-8"?>
<!-- Generator: Adobe Illustrator 26.0.1, SVG Export Plug-In . SVG Version: 6.00 Build 0)  -->
<svg version="1.1" xmlns="http://www.w3.org/2000/svg" xmlns:xlink="http://www.w3.org/1999/xlink" x="0px" y="0px"
	 viewBox="0 0 64 64" style="enable-background:new 0 0 64 64;" xml:space="preserve">
<style type="text/css">
	.st0{fill:url(#SVGID_1_);}
	.st1{opacity:0.06;}
	.st2{fill:url(#SVGID_00000124119472706297582050000008321211399803615631_);}
	.st3{fill:url(#SVGID_00000094612337236980115620000013110176022102118048_);}
	.st4{fill:url(#SVGID_00000129906129608798487720000000564047528999307681_);}
	.st5{fill:url(#SVGID_00000176738168270964870940000009929457782688711302_);}
	.st6{fill:url(#SVGID_00000048479320308700904710000000184212343417496484_);}
	.st7{fill:url(#SVGID_00000000901166798819706760000004225860327645633694_);}
	.st8{fill:url(#SVGID_00000065760439044926856320000004255504364123468215_);}
	.st9{fill:url(#SVGID_00000168838995311011422340000017469089255910162873_);}
	.st10{fill:url(#SVGID_00000005241175483902352080000011535744894596572560_);}
	.st11{fill:url(#SVGID_00000071531429224125458470000002045850590823840428_);}
	.st12{fill:url(#SVGID_00000065070857667035330170000001099719316220837795_);}
	.st13{fill:url(#SVGID_00000029033219951230834440000004324209978388381860_);}
	.st14{fill:url(#SVGID_00000070114466862213874200000005879855081496040584_);}
	.st15{fill:url(#SVGID_00000155865399452337323470000010634941573451486886_);}
	.st16{fill:url(#SVGID_00000005947718113091969600000012116938539459818624_);}
	.st17{fill:url(#SVGID_00000156573480822871399940000017220369558960077746_);}
	.st18{fill:url(#SVGID_00000036217371725587784930000007131922577323172236_);}
	.st19{fill:url(#SVGID_00000022561137227119657850000000257774129047945910_);}
	.st20{fill:url(#SVGID_00000041285160984334663590000011107299794996466334_);}
	.st21{fill:url(#SVGID_00000155840994546898170760000003882365695725630861_);}
	.st22{fill:url(#SVGID_00000040544079211425645470000010571509113760101249_);}
	.st23{fill:url(#SVGID_00000038385688952803046290000014267767981559928466_);}
	.st24{fill:url(#SVGID_00000168090077704871462940000004752398985492229305_);}
	.st25{fill:url(#SVGID_00000094576140690122523220000013107808717958527400_);}
	.st26{fill:url(#SVGID_00000125566484894812418090000009102796124463791277_);}
	.st27{fill:url(#SVGID_00000031201969708558912010000014252343202728082326_);}
	.st28{fill:url(#SVGID_00000087388646470826185470000002246983837213011867_);}
	.st29{fill:url(#SVGID_00000076583998141638772350000013646721652563553976_);}
	.st30{fill:url(#SVGID_00000104666270221895883220000006397188119072519850_);}
	.st31{fill:url(#SVGID_00000142168191481514914160000004055061575128016296_);}
	.st32{fill:url(#SVGID_00000112598321586366673090000000243337738005487752_);}
	.st33{fill:url(#SVGID_00000108271084512533262800000001105024565293524413_);}
	.st34{fill:url(#SVGID_00000166660678440592921870000005373853805084465564_);}
	.st35{fill:url(#SVGID_00000141443222743994189860000003513979344243076996_);}
	.st36{fill:url(#SVGID_00000033329902483975605870000012391404347992118712_);}
	.st37{fill:url(#SVGID_00000147930498226634286780000000841576820567340424_);}
	.st38{fill:url(#SVGID_00000160890742878612427320000011973244977889670318_);}
	.st39{fill:url(#SVGID_00000151508102200399548650000014589558833495283103_);}
	.st40{fill:url(#SVGID_00000134929034230859956870000007259933998066257837_);}
	.st41{fill:#FFFFFF;}
	.st42{fill:url(#SVGID_00000147923499716888345020000007821221050641837210_);}
	.st43{fill:url(#SVGID_00000011009325075729106460000001486851221320254085_);}
	.st44{fill:url(#SVGID_00000139277929067967649250000005097909244102383252_);}
	.st45{fill:url(#SVGID_00000092456911766132427400000011570950444305594303_);}
	.st46{fill:url(#SVGID_00000008142982455163078000000016374621198107169924_);}
	.st47{fill:url(#SVGID_00000127738974196430290250000008492810619574329529_);}
	.st48{fill:url(#SVGID_00000059298803332530818570000012614639300728449193_);}
	.st49{fill:url(#SVGID_00000012452340537026306520000007841121801776851333_);}
	.st50{fill:url(#SVGID_00000079447708661358408170000007910470068916823207_);}
	.st51{fill:url(#SVGID_00000124142338758326884710000012997849958586191754_);}
	.st52{fill:url(#SVGID_00000021096555414924017410000009872516730672406676_);}
	.st53{fill:url(#SVGID_00000047774176263928762820000014983178907260155063_);}
	.st54{fill:url(#SVGID_00000092428074666878621750000004001003102106553257_);}
	.st55{fill:url(#SVGID_00000125597184985024176920000002771454100065998015_);}
	.st56{fill:url(#SVGID_00000168837339534152713630000010652540725600946581_);}
	.st57{fill:none;stroke:#28254B;stroke-width:2;stroke-miterlimit:10;}
	.st58{fill:#DB1A5C;}
	.st59{fill:#28254B;}
	.st60{fill:url(#SVGID_00000091007693912937636110000012595322358378369684_);}
	.st61{fill:url(#SVGID_00000065764895223366907290000008394881528985729687_);}
	.st62{fill:url(#SVGID_00000086671752064609484810000004873475484149323936_);}
	.st63{fill:url(#SVGID_00000034806444704790518750000000739817929210500517_);}
	.st64{fill:url(#SVGID_00000175310664517091596110000001098037498834053560_);}
	.st65{fill:url(#SVGID_00000019670879975944421820000009622346930676031161_);}
	.st66{fill:url(#SVGID_00000085240101191383200570000015152255823850721684_);}
	.st67{fill:url(#SVGID_00000011010983521955477230000001332621441165933732_);}
	.st68{fill:url(#SVGID_00000037667878327693195900000002040616672618315176_);}
	.st69{fill:url(#SVGID_00000029745108332373028130000013700312646823907715_);}
	.st70{fill:url(#SVGID_00000043422772188459152340000000587334592901110439_);}
	.st71{fill:url(#SVGID_00000182513445715865128150000011573642690431903414_);}
	.st72{fill:url(#SVGID_00000134969959812193109720000002718047075555881124_);}
	.st73{fill:url(#SVGID_00000036222810340494536180000005977269122933622677_);}
	.st74{fill:url(#SVGID_00000154383698262031083850000008918107472672984716_);}
	.st75{fill:url(#SVGID_00000141425975812276105300000007758743394699105454_);}
	.st76{fill:url(#SVGID_00000156569792588593213350000002135387656362657434_);}
	.st77{fill:url(#SVGID_00000031201756362196206590000000104560807704834724_);}
	.st78{fill:url(#SVGID_00000106858048402260937250000006378439909653945481_);}
	.st79{fill:url(#SVGID_00000021814784751310186490000014220667908402648975_);}
	.st80{fill:url(#SVGID_00000064337081691231002070000015083341510659510429_);}
	.st81{fill:url(#SVGID_00000155120572504886942860000015666902561730067858_);}
	.st82{fill:url(#SVGID_00000098215920684605497710000009370433355161131186_);}
	.st83{fill:url(#SVGID_00000058573310864862971780000001435069791792473749_);}
	.st84{fill:url(#SVGID_00000150082639510687617940000010168640568858696076_);}
	.st85{fill:url(#SVGID_00000002367434516735003920000004428200616641873036_);}
	.st86{fill:url(#SVGID_00000074412746137400962230000008360283427269951378_);}
	.st87{fill:url(#SVGID_00000092435893986361569400000012728119086930539964_);}
</style>
<g id="Layer_2">
	<g>
		<g>
			<g>
				<linearGradient id="SVGID_1_" gradientUnits="userSpaceOnUse" x1="19.1223" y1="19.0278" x2="37.8077" y2="46.3979">
					<stop  offset="0.2253" style="stop-color:#28254B"/>
					<stop  offset="0.5267" style="stop-color:#DB1A5C"/>
				</linearGradient>
				<path class="st0" d="M21.05,37.78l0.05,0.25c-1.7-1.87-2.7-4.39-2.58-7.13c0.24-5.46,4.82-9.68,10.22-9.44
					c1.35,0.06,2.63,0.39,3.78,0.94C21.71,26.87,21.05,37.78,21.05,37.78z"/>
				
					<linearGradient id="SVGID_00000026869016800846246500000017845474293547457161_" gradientUnits="userSpaceOnUse" x1="19.8265" y1="18.4618" x2="38.5638" y2="45.9079">
					<stop  offset="0.2253" style="stop-color:#28254B"/>
					<stop  offset="0.5267" style="stop-color:#DB1A5C"/>
				</linearGradient>
				<path style="fill:url(#SVGID_00000026869016800846246500000017845474293547457161_);" d="M23.72,40.07
					c-0.38-0.2-0.73-0.42-1.07-0.66l-0.18-1.43c0.84-11.02,11.16-14.68,11.16-14.68l0.15-0.06c0.68,0.44,1.16,0.76,1.7,1.35
					C24.51,28.93,23.73,39.84,23.72,40.07z"/>
				
					<linearGradient id="SVGID_00000088824768918301999150000011896769982390291107_" gradientUnits="userSpaceOnUse" x1="20.4557" y1="18.0739" x2="39.1176" y2="45.4098">
					<stop  offset="0.2253" style="stop-color:#28254B"/>
					<stop  offset="0.5267" style="stop-color:#DB1A5C"/>
				</linearGradient>
				<path style="fill:url(#SVGID_00000088824768918301999150000011896769982390291107_);" d="M27.89,41.21
					c-0.94-0.04-1.85-0.22-2.69-0.51l-0.06-0.44c0.84-11.02,11.15-14.68,11.15-14.68c1.24,1.74,1.92,3.89,1.82,6.19
					C37.88,37.23,33.29,41.45,27.89,41.21z"/>
			</g>
			
				<linearGradient id="SVGID_00000134221024017709848520000004327627765390795668_" gradientUnits="userSpaceOnUse" x1="19.1223" y1="19.0278" x2="37.8077" y2="46.3979">
				<stop  offset="0.2253" style="stop-color:#28254B"/>
				<stop  offset="0.5267" style="stop-color:#DB1A5C"/>
			</linearGradient>
			<path style="fill:url(#SVGID_00000134221024017709848520000004327627765390795668_);" d="M21.05,37.78l0.05,0.25
				c-1.7-1.87-2.7-4.39-2.58-7.13c0.24-5.46,4.82-9.68,10.22-9.44c1.35,0.06,2.63,0.39,3.78,0.94
				C21.71,26.87,21.05,37.78,21.05,37.78z"/>
			
				<linearGradient id="SVGID_00000152976876981460490840000001916988448142417055_" gradientUnits="userSpaceOnUse" x1="19.8265" y1="18.4618" x2="38.5638" y2="45.9079">
				<stop  offset="0.2253" style="stop-color:#28254B"/>
				<stop  offset="0.5267" style="stop-color:#DB1A5C"/>
			</linearGradient>
			<path style="fill:url(#SVGID_00000152976876981460490840000001916988448142417055_);" d="M23.72,40.07
				c-0.38-0.2-0.73-0.42-1.07-0.66l-0.18-1.43c0.84-11.02,11.16-14.68,11.16-14.68l0.15-0.06c0.68,0.44,1.16,0.76,1.7,1.35
				C24.51,28.93,23.73,39.84,23.72,40.07z"/>
			
				<linearGradient id="SVGID_00000145058744248722971210000015565029141526202011_" gradientUnits="userSpaceOnUse" x1="20.4557" y1="18.0739" x2="39.1176" y2="45.4098">
				<stop  offset="0.2253" style="stop-color:#28254B"/>
				<stop  offset="0.5267" style="stop-color:#DB1A5C"/>
			</linearGradient>
			<path style="fill:url(#SVGID_00000145058744248722971210000015565029141526202011_);" d="M27.89,41.21
				c-0.94-0.04-1.85-0.22-2.69-0.51l-0.06-0.44c0.84-11.02,11.15-14.68,11.15-14.68c1.24,1.74,1.92,3.89,1.82,6.19
				C37.88,37.23,33.29,41.45,27.89,41.21z"/>
		</g>
		
			<linearGradient id="SVGID_00000090254583795878969000000013139107552396106668_" gradientUnits="userSpaceOnUse" x1="19.1296" y1="5.4452" x2="37.4735" y2="20.1435">
			<stop  offset="0" style="stop-color:#28254B"/>
			<stop  offset="0.8127" style="stop-color:#DB1A5C"/>
		</linearGradient>
		<path style="fill:url(#SVGID_00000090254583795878969000000013139107552396106668_);" d="M48.84,3.43c0,0-1.56,6.66-13.21,7.28
			c0,0-17-1.84-28.91,10.57c-0.01,0.02-0.02,0.02-0.03,0.03h0c0,0,0-0.01,0-0.01c1.03-2.71,2.24-5.07,3.56-7.12
			c0.01-0.01,0.01-0.02,0.02-0.03C14.8,7.36,24.22-1.35,41.92,1.73c0.01,0,0.01,0,0.01,0C44.1,2.11,46.41,2.67,48.84,3.43z"/>
		
			<linearGradient id="SVGID_00000039104619462523307010000012365048508388751531_" gradientUnits="userSpaceOnUse" x1="4.4758" y1="65.7218" x2="48.6092" y2="38.3764">
			<stop  offset="0.3415" style="stop-color:#28254B"/>
			<stop  offset="0.7033" style="stop-color:#DB1A5C"/>
		</linearGradient>
		<path style="fill:url(#SVGID_00000039104619462523307010000012365048508388751531_);" d="M48.84,60.14
			c-3.5,1.28-6.73,2.08-9.72,2.48c-0.01,0-0.01,0-0.02,0c-2.56,0.34-4.94,0.39-7.15,0.21c0,0,0,0,0,0
			c-7.36-0.72-18.64-4.6-25.26-20.4v0c0,0,0,0,0,0c0,0,0,0,0,0c0.01,0.01,0.03,0.03,0.07,0.07c0.02,0.02,0.04,0.04,0.07,0.07
			c0.05,0.05,0.12,0.12,0.2,0.2c0.07,0.07,0.14,0.14,0.21,0.2c0.11,0.1,0.23,0.22,0.37,0.35c12.33,11.39,28.45,9.81,28.45,9.81
			C45.8,52.96,48.84,60.14,48.84,60.14z"/>
		
			<linearGradient id="SVGID_00000048490935395753864680000016068541189827897729_" gradientUnits="userSpaceOnUse" x1="9.4398" y1="27.8285" x2="31.4532" y2="35.205">
			<stop  offset="0.0947" style="stop-color:#28254B"/>
			<stop  offset="0.3756" style="stop-color:#DB1A5C"/>
		</linearGradient>
		<path style="fill:url(#SVGID_00000048490935395753864680000016068541189827897729_);" d="M20.6,46.56c0,0-13.91-14.55,0.78-29.72
			c0,0-14.34,4.91-15.99,13.41C5.39,30.25,2.64,39.86,20.6,46.56z"/>
		
			<linearGradient id="SVGID_00000052794480602008495730000006761917612814554781_" gradientUnits="userSpaceOnUse" x1="59.4079" y1="44.9753" x2="46.7312" y2="56.1363">
			<stop  offset="0.1678" style="stop-color:#28254B"/>
			<stop  offset="0.8525" style="stop-color:#DB1A5C"/>
		</linearGradient>
		<path style="fill:url(#SVGID_00000052794480602008495730000006761917612814554781_);" d="M42.76,51.55c0,0,5.39-1.23,9.65,6.84
			c0,0,2.55-1.5,4.81-3.41c2.15-1.82,2.06-5.19-0.18-6.89l-0.51-0.38c-2.32-1.75-5.51-1.64-7.74,0.22
			C47.22,49.24,45.16,50.64,42.76,51.55z"/>
		
			<linearGradient id="SVGID_00000066500672743461811070000012101905586124066488_" gradientUnits="userSpaceOnUse" x1="59.0362" y1="17.8418" x2="48.428" y2="9.3001">
			<stop  offset="0.1699" style="stop-color:#28254B"/>
			<stop  offset="0.8525" style="stop-color:#DB1A5C"/>
		</linearGradient>
		<path style="fill:url(#SVGID_00000066500672743461811070000012101905586124066488_);" d="M42.77,12.28c0,0,5.39,1.23,9.65-6.84
			c0,0,2.55,1.5,4.81,3.41c2.15,1.82,2.06,5.19-0.18,6.89l-0.51,0.38c-2.32,1.75-5.51,1.64-7.74-0.22
			C47.22,14.59,45.17,13.2,42.77,12.28z"/>
		
			<linearGradient id="SVGID_00000090268948427747415830000017679198235461683645_" gradientUnits="userSpaceOnUse" x1="1.9336" y1="-4.1845" x2="23.2502" y2="10.7776">
			<stop  offset="0.4797" style="stop-color:#28254B"/>
			<stop  offset="0.8127" style="stop-color:#DB1A5C"/>
		</linearGradient>
		<path style="fill:url(#SVGID_00000090268948427747415830000017679198235461683645_);" d="M41.93,1.73
			C26.17,0.93,7.57,20.38,6.72,21.28c-0.01,0.02-0.02,0.02-0.03,0.03c0,0,0,0,0,0c0,0,0,0,0,0c0,0,0-0.01,0-0.01
			c1.03-2.71,2.24-5.07,3.56-7.12c0.01-0.01,0.01-0.02,0.02-0.03C21.5-3.22,41.42,1.6,41.92,1.73C41.92,1.73,41.93,1.73,41.93,1.73z
			"/>
		
			<linearGradient id="SVGID_00000042006457401724172450000004548567218569159095_" gradientUnits="userSpaceOnUse" x1="9.7057" y1="66.2517" x2="30.364" y2="44.7855">
			<stop  offset="0.2072" style="stop-color:#28254B"/>
			<stop  offset="0.6294" style="stop-color:#DB1A5C"/>
		</linearGradient>
		<path style="fill:url(#SVGID_00000042006457401724172450000004548567218569159095_);" d="M39.13,62.62c0,0-0.01,0-0.02,0
			c-0.26,0.05-3.11,0.6-7.15,0.21c0,0,0,0,0,0c-7.36-0.72-18.64-4.6-25.26-20.4v0h0c0.01,0.01,0.03,0.03,0.07,0.07
			c0.02,0.02,0.04,0.04,0.07,0.07c0.05,0.05,0.12,0.12,0.2,0.2c0.06,0.06,0.13,0.13,0.21,0.2c0.11,0.1,0.23,0.22,0.37,0.35
			C11.25,46.73,25.05,59,39.13,62.62z"/>
		
			<linearGradient id="SVGID_00000032611082427988994080000011986970943668090273_" gradientUnits="userSpaceOnUse" x1="-10.1176" y1="11.0998" x2="24.6867" y2="35.0022">
			<stop  offset="0.407" style="stop-color:#28254B"/>
			<stop  offset="0.7033" style="stop-color:#DB1A5C"/>
		</linearGradient>
		<path style="fill:url(#SVGID_00000032611082427988994080000011986970943668090273_);" d="M21.38,16.84c0,0-17.1,16.47-10.02,24.9
			c0,0-6.72-4.75-6.11-10.53S12.17,20.08,21.38,16.84z"/>
	</g>
</g>
<g id="Layer_1">
</g>
</svg>
