<svg id="Layer_1" data-name="Layer 1" xmlns="http://www.w3.org/2000/svg" xmlns:xlink="http://www.w3.org/1999/xlink" viewBox="0 0 100 100"><defs><style>.cls-1{fill:url(#linear-gradient);}.cls-2{fill:url(#linear-gradient-2);}.cls-3{fill:url(#linear-gradient-3);}</style><linearGradient id="linear-gradient" x1="50" y1="96.79" x2="50" y2="15.08" gradientUnits="userSpaceOnUse"><stop offset="0" stop-color="#af193d"/><stop offset="1" stop-color="#ff3270"/></linearGradient><linearGradient id="linear-gradient-2" x1="78.43" y1="96.79" x2="78.43" y2="15.08" xlink:href="#linear-gradient"/><linearGradient id="linear-gradient-3" x1="22.08" y1="96.79" x2="22.08" y2="15.08" xlink:href="#linear-gradient"/></defs><path class="cls-1" d="M61.92,68.46c.29-.28.78-.53.82-.84a4.76,4.76,0,0,1,4.12-4.22V51.59c0-3,1.2-4.22,4.25-4.23H85.83c3,0,4.17,1.19,4.18,4.15,0,4.3,0,8.6,0,12.9,0,.84.13,1.35,1,1.62a3.24,3.24,0,0,1,2.41,3.38q0,9.39,0,18.79a3.46,3.46,0,0,1-3.71,3.66c-.74,0-1.49,0-2.24,0-3.13,0-4.17-.92-4.6-4.42a8,8,0,0,0-2.42,1.06c-2.77,2.73-6.08,3.54-9.87,3.39-4.2-.16-8.41-.06-12.61,0a4.31,4.31,0,0,1-4-2,1.42,1.42,0,0,0-1-.53c-2,0-3.93,0-5.89,0a1.57,1.57,0,0,0-1.07.61,4.21,4.21,0,0,1-3.77,2q-7.43-.06-14.86,0a10,10,0,0,1-7.12-2.75c-1.5-1.37-1.84-1.47-2.87-1.37A14.1,14.1,0,0,1,15.84,91C14.55,92.42,9,92.42,7.7,91a4.35,4.35,0,0,1-1.11-2.59c-.1-6.3-.07-12.61,0-18.92,0-1.9.89-2.84,3.4-3.73V64.29c0-4.34,0-8.69,0-13,0-2.61,1.24-3.88,3.85-3.89,5.1,0,10.19,0,15.28,0,2.74,0,3.94,1.21,4,3.92,0,4,0,8,0,12.14,1.85.42,3.35,1.26,4,3.15.13.4.12.84.28,1.22s.41.39.62.58c.18-.22.46-.42.52-.68a4.56,4.56,0,0,0,0-1.11v-30c0-3.29,1.08-4.37,4.38-4.38H57.11c3.31,0,4.42,1.15,4.42,4.5q0,14.93,0,29.85V68.1Zm-20.59,0c1,0,1.84,0,2.67,0,3.11.07,4.82,2.46,4,5.44a3.66,3.66,0,0,0,.16,1.48c.17,1.07.79,2.29.46,3.15a10.7,10.7,0,0,0-.92,4.79c.08,1-.87,2-1.36,3H54c-1.72-2.21-2-3.13-1.66-4.72A2.3,2.3,0,0,0,52,80a4.23,4.23,0,0,1-.21-4.74A2.35,2.35,0,0,0,52,73.67a4,4,0,0,1,3.83-5.35c.92,0,1.84,0,2.82,0,0-.38.07-.61.07-.83q0-15.56,0-31.12c0-1.1-.47-1.34-1.43-1.33-4.76,0-9.53.06-14.29,0-1.46,0-1.8.44-1.79,1.84.06,10,0,20,0,30C41.26,67.3,41.3,67.76,41.33,68.41ZM83,73c-1.79-.42-1.82-.39-3.2-2.46s-3.14-3.79-5.76-4a47.82,47.82,0,0,0-7-.08,2.17,2.17,0,0,0-1.41,1.55c-.15,2.41-.06,4.83-.06,7.24,2.18.14,3-.72,3-3.21,0-1.09-.27-2.5,1.39-2.54s1.45,1.4,1.4,2.46c-.12,3,.77,5.41,3.63,6.83.85.42,1.33,1.13.78,2a1.39,1.39,0,0,1-2.28.3C72,79.88,70.56,78.61,69,77.3A3.21,3.21,0,0,0,67.76,81a4,4,0,0,1-.05,3.51,1.83,1.83,0,0,0-.21,1.11c.23,1.1.57,2.18.91,3.39,1.34,0,2.88,0,4.41,0a6.5,6.5,0,0,0,4.61-1.7C79,85.91,80.66,84.65,83,84.8ZM31.06,77.44c-1.72,1.38-3.23,2.64-4.8,3.82-.74.55-1.67.45-2-.44a2.78,2.78,0,0,1,.54-1.89c.2-.36.75-.52,1.14-.76A4.91,4.91,0,0,0,28.47,74a15.54,15.54,0,0,1,.2-3.06,2.32,2.32,0,0,1,1.26-1.49c.95-.24,1.38.56,1.47,1.44.07.7,0,1.4.12,2.1.18,1.71,1,2.36,2.91,2.17,0-2.36,0-4.73,0-7.1,0-1.2-.76-1.75-1.91-1.76-1.4,0-2.8,0-4.2,0a8.52,8.52,0,0,0-8,4.16C19.52,71.72,18.76,73,17,73V84.3c1.68.84,3.45,1.27,4.54,2.37,3.05,3.06,6.71,2.35,10,2.38a15.09,15.09,0,0,0,.94-3.37,20.21,20.21,0,0,0-.63-3.19A3.27,3.27,0,0,1,32.28,81,3,3,0,0,0,31.06,77.44ZM87.18,65.65c0-4.86,0-9.67,0-14.48,0-.85-.46-1-1.16-1-5,0-10.1,0-15.14,0-1,0-1.24.47-1.23,1.38,0,3.64,0,7.29,0,10.93a9.77,9.77,0,0,0,.13,1.09c5.69-.69,10.12,1.23,13,6.53C83.43,66.87,84.26,66,87.18,65.65Zm-57-2.06c0-4.36,0-8.51-.06-12.64,0-.27-.84-.73-1.3-.74-4.9-.05-9.8,0-14.7-.05-1.13,0-1.42.42-1.4,1.49.06,3.45,0,6.91,0,10.36v3.4c1.22.56,2.37.79,3.08,1.48a11.25,11.25,0,0,1,1.55,3C20.07,64.82,24.53,63,30.19,63.59ZM39.77,84a27.86,27.86,0,0,0,3.77-.06c.52-.07,1-.73,1.43-1.13-.48-.4-.94-1.11-1.44-1.13q-3.7-.18-7.41,0c-.5,0-1,.74-1.45,1.14.49.39.94,1,1.47,1.12A25.83,25.83,0,0,0,39.77,84Zm20.54-2.44a31.86,31.86,0,0,0-3.91.06c-.48.05-.89.69-1.34,1.07.45.42.88,1.19,1.35,1.22,2.51.12,5,.12,7.54,0,.47,0,.91-.8,1.36-1.23-.46-.37-.88-1-1.37-1.07A29.26,29.26,0,0,0,60.31,81.51Zm4.7-3c-.7-.52-1.34-.77-1.61-1.23a1.87,1.87,0,0,0-2-.91c-1.92,0-3.83,0-5.75,0-.86,0-1.69.09-1.65,1.19s.79,1.13,1.62,1.13c2.66,0,5.32,0,8,0A11.71,11.71,0,0,0,65,78.51Zm-29.18.23c2.55,0,5.62.05,8.68,0A1.89,1.89,0,0,0,46,77.63c.14-.87-.59-1.23-1.47-1.22-2.15,0-4.3,0-6.45,0a1.35,1.35,0,0,0-.95.34A23.36,23.36,0,0,0,35.83,78.74Zm26.81-7.6c-2.33,0-4.6-.06-6.86,0a1.58,1.58,0,0,0-1.09,1.12,1.6,1.6,0,0,0,1,1.19c2.29.11,4.6,0,6.91,0Zm-1.9,17.91H64c.84,0,1.47-.4,1.29-1.21a1.72,1.72,0,0,0-1.28-1,54.65,54.65,0,0,0-6.27,0,1.77,1.77,0,0,0-1.3,1c-.17.8.44,1.24,1.28,1.23Zm-21.55,0a20.1,20.1,0,0,0,3.2,0c.48-.07.87-.7,1.31-1.07-.43-.4-.84-1.11-1.29-1.14a57.11,57.11,0,0,0-6.41,0c-.46,0-.89.72-1.33,1.11.44.38.83,1,1.31,1.1A20.21,20.21,0,0,0,39.19,89.08ZM37.36,73.59c2.36,0,4.63,0,6.9,0a1.48,1.48,0,0,0,1-1.05c0-.37-.49-1.15-.8-1.16-2.35-.1-4.7,0-7.09,0Z"/><path class="cls-2" d="M73,43.86a1.56,1.56,0,0,1-.94-.31,1.58,1.58,0,0,1-.59-1.79l1.66-5.1a.17.17,0,0,0-.06-.2l-4.34-3.15a1.6,1.6,0,0,1,.94-2.9h5.37a.17.17,0,0,0,.16-.12l1.66-5.11a1.61,1.61,0,0,1,3,0l1.66,5.11a.17.17,0,0,0,.16.12h5.37a1.56,1.56,0,0,1,1.52,1.1,1.59,1.59,0,0,1-.58,1.8l-4.34,3.15a.19.19,0,0,0-.06.2l1.66,5.1a1.61,1.61,0,0,1-2.47,1.79L78.53,40.4a.17.17,0,0,0-.21,0L74,43.55A1.56,1.56,0,0,1,73,43.86Zm-3.33-12a.15.15,0,0,0-.16.12.16.16,0,0,0,.06.19L74,35.3a1.6,1.6,0,0,1,.58,1.8l-1.65,5.1a.15.15,0,0,0,.06.19.14.14,0,0,0,.2,0l4.34-3.15a1.61,1.61,0,0,1,1.89,0l4.34,3.15a.14.14,0,0,0,.2,0A.16.16,0,0,0,84,42.2l-1.66-5.1a1.6,1.6,0,0,1,.58-1.8l4.34-3.15A.15.15,0,0,0,87.3,32a.15.15,0,0,0-.16-.12H81.77a1.6,1.6,0,0,1-1.52-1.11l-1.66-5.1a.16.16,0,0,0-.17-.12.16.16,0,0,0-.16.12l-1.66,5.1a1.6,1.6,0,0,1-1.52,1.11Z"/><path class="cls-3" d="M16.69,43.86a1.6,1.6,0,0,1-.94-.31,1.58,1.58,0,0,1-.58-1.79l1.66-5.11a.18.18,0,0,0-.07-.19l-4.34-3.15a1.6,1.6,0,0,1,.95-2.9h5.36a.16.16,0,0,0,.16-.12l1.66-5.11a1.58,1.58,0,0,1,1.53-1.1,1.56,1.56,0,0,1,1.52,1.1l1.66,5.11a.18.18,0,0,0,.17.12h5.36a1.6,1.6,0,0,1,.94,2.9l-4.34,3.15a.19.19,0,0,0-.06.2L29,41.76a1.6,1.6,0,0,1-2.47,1.79L22.18,40.4a.15.15,0,0,0-.2,0l-4.34,3.15A1.61,1.61,0,0,1,16.69,43.86Zm-3.32-12a.17.17,0,0,0-.11.31L17.6,35.3a1.61,1.61,0,0,1,.59,1.8l-1.66,5.1a.15.15,0,0,0,.06.19.17.17,0,0,0,.21,0l4.34-3.15a1.59,1.59,0,0,1,1.88,0l4.34,3.15a.18.18,0,0,0,.27-.19L26,37.1a1.6,1.6,0,0,1,.58-1.8l4.34-3.15A.16.16,0,0,0,31,32a.16.16,0,0,0-.17-.12H25.43a1.61,1.61,0,0,1-1.53-1.11l-1.66-5.1a.16.16,0,0,0-.16-.12.16.16,0,0,0-.17.12l-1.65,5.1a1.61,1.61,0,0,1-1.53,1.11Z"/><path class="cls-1" d="M44.16,26.08a1.75,1.75,0,0,1-1.65-2.28l1.8-5.53a.19.19,0,0,0-.07-.21l-4.7-3.42a1.73,1.73,0,0,1,1-3.14h5.81a.21.21,0,0,0,.18-.13l1.8-5.53a1.73,1.73,0,0,1,3.3,0l1.8,5.53a.21.21,0,0,0,.18.13h5.81a1.73,1.73,0,0,1,1,3.14l-4.7,3.42a.19.19,0,0,0-.07.21l1.8,5.53a1.7,1.7,0,0,1-.63,1.94,1.73,1.73,0,0,1-2,0l-4.7-3.42a.22.22,0,0,0-.22,0l-4.7,3.42A1.72,1.72,0,0,1,44.16,26.08Zm-3.6-13a.17.17,0,0,0-.18.13.17.17,0,0,0,.07.21l4.7,3.41a1.74,1.74,0,0,1,.63,1.95L44,24.28a.17.17,0,0,0,.06.21.18.18,0,0,0,.22,0L49,21.07a1.73,1.73,0,0,1,2,0l4.71,3.42a.17.17,0,0,0,.22,0,.18.18,0,0,0,.06-.22l-1.79-5.52a1.74,1.74,0,0,1,.63-1.95l4.7-3.41a.17.17,0,0,0,.07-.21.17.17,0,0,0-.18-.13H53.63A1.73,1.73,0,0,1,52,11.84l-1.8-5.52a.19.19,0,0,0-.36,0L48,11.84a1.73,1.73,0,0,1-1.65,1.21Z"/></svg>