<svg id="Layer_1" data-name="Layer 1" xmlns="http://www.w3.org/2000/svg" xmlns:xlink="http://www.w3.org/1999/xlink" viewBox="0 0 100 100"><defs><style>.cls-1{fill:url(#linear-gradient);}.cls-2{fill:url(#linear-gradient-2);}.cls-3{fill:url(#linear-gradient-3);}.cls-4{fill:url(#linear-gradient-4);}.cls-5{fill:url(#linear-gradient-5);}.cls-6{fill:url(#linear-gradient-6);}.cls-7{fill:url(#linear-gradient-7);}.cls-8{fill:url(#linear-gradient-8);}.cls-9{fill:url(#linear-gradient-9);}.cls-10{fill:url(#linear-gradient-10);}.cls-11{fill:url(#linear-gradient-11);}</style><linearGradient id="linear-gradient" x1="18.15" y1="86.01" x2="63.43" y2="36.31" gradientUnits="userSpaceOnUse"><stop offset="0" stop-color="#af193d"/><stop offset="1" stop-color="#ff3270"/></linearGradient><linearGradient id="linear-gradient-2" x1="18.25" y1="86.1" x2="63.53" y2="36.4" xlink:href="#linear-gradient"/><linearGradient id="linear-gradient-3" x1="18.48" y1="86.31" x2="63.76" y2="36.61" xlink:href="#linear-gradient"/><linearGradient id="linear-gradient-4" x1="6.78" y1="75.65" x2="52.06" y2="25.95" xlink:href="#linear-gradient"/><linearGradient id="linear-gradient-5" x1="28.66" y1="95.58" x2="73.93" y2="45.88" xlink:href="#linear-gradient"/><linearGradient id="linear-gradient-6" x1="13.81" y1="82.05" x2="59.08" y2="32.35" xlink:href="#linear-gradient"/><linearGradient id="linear-gradient-7" x1="20.47" y1="88.13" x2="65.75" y2="38.42" xlink:href="#linear-gradient"/><linearGradient id="linear-gradient-8" x1="21.21" y1="88.8" x2="66.49" y2="39.1" xlink:href="#linear-gradient"/><linearGradient id="linear-gradient-9" x1="13.07" y1="81.38" x2="58.34" y2="31.68" xlink:href="#linear-gradient"/><linearGradient id="linear-gradient-10" x1="28.08" y1="95.05" x2="73.35" y2="45.35" xlink:href="#linear-gradient"/><linearGradient id="linear-gradient-11" x1="6.2" y1="75.13" x2="51.48" y2="25.43" xlink:href="#linear-gradient"/></defs><path class="cls-1" d="M53.15,26.16A24.07,24.07,0,0,1,64.06,31a26.83,26.83,0,0,1,9.72,13.89c.34,1.14.16,1.7-1,2.22a15.27,15.27,0,0,1-17.69-3.56A15,15,0,0,1,53.15,26.16Z"/><path class="cls-2" d="M75.86,45.3c-3.5-11-10.61-17.83-21.87-21,1.41-1.27,2.55-2.4,3.81-3.36a2,2,0,0,1,1.59,0A30.51,30.51,0,0,1,79,40a3.59,3.59,0,0,1-.24,2,3.27,3.27,0,0,1-.78,1.1C77.39,43.74,76.75,44.38,75.86,45.3Z"/><path class="cls-3" d="M80.47,38.44A33.48,33.48,0,0,0,60.93,19.55c4-2.49,10.84-1.33,15.33,2.46A14.86,14.86,0,0,1,80.47,38.44Z"/><path class="cls-4" d="M46.28,34.86a8.24,8.24,0,0,1-.87,1.45Q39.07,42.7,32.68,49.06c-.87.86-1.89.93-2.55.19a1.59,1.59,0,0,1,.14-2.44c4.27-4.29,8.52-8.59,12.85-12.81a2.6,2.6,0,0,1,2-.47C45.53,33.61,45.84,34.34,46.28,34.86Z"/><path class="cls-5" d="M65.08,54.3c1.64,0,2.37,1.32,1.7,2.43a5,5,0,0,1-.77.89L53.93,69.71a5,5,0,0,1-.67.63,1.56,1.56,0,0,1-2.16-.12A1.59,1.59,0,0,1,51,68.06a3.55,3.55,0,0,1,.53-.57q6.18-6.19,12.38-12.37A7,7,0,0,1,65.08,54.3Z"/><path class="cls-6" d="M47.66,47.49a7.12,7.12,0,0,1-.82,1.35q-6.21,6.27-12.46,12.48c-.88.86-1.89.91-2.54.13A1.68,1.68,0,0,1,32.05,59c4.15-4.16,8.28-8.34,12.5-12.43a2.53,2.53,0,0,1,2-.4C47,46.24,47.27,47,47.66,47.49Z"/><path class="cls-7" d="M41.86,67.26a8.3,8.3,0,0,1-.9,1.43Q34.8,74.9,28.59,81.07a1.67,1.67,0,0,1-2.55.19,1.72,1.72,0,0,1,.26-2.56c4.08-4.11,8.16-8.22,12.31-12.26a2.83,2.83,0,0,1,2.09-.52C41.11,66,41.44,66.74,41.86,67.26Z"/><path class="cls-8" d="M54.66,54.4A9,9,0,0,1,53.71,56q-3.76,3.84-7.6,7.61c-1,1-1.91,1.06-2.63.23a1.68,1.68,0,0,1,.26-2.54c2.57-2.56,5.1-5.17,7.74-7.66a2.64,2.64,0,0,1,2-.49C53.88,53.17,54.21,53.89,54.66,54.4Z"/><path class="cls-9" d="M30.24,64.88a9.59,9.59,0,0,1-1,1.59q-3.73,3.8-7.53,7.54c-.93.92-2,1-2.64.24s-.52-1.76.26-2.55c2.55-2.53,5.06-5.11,7.66-7.59a2.62,2.62,0,0,1,2-.56C29.4,63.62,29.76,64.37,30.24,64.88Z"/><path class="cls-10" d="M48.63,74.36a1.64,1.64,0,0,1-1.87,1.55,1.61,1.61,0,1,1,1.87-1.55Z"/><path class="cls-11" d="M27.65,53.43A1.48,1.48,0,0,1,26.08,55,1.61,1.61,0,1,1,26,51.74,1.59,1.59,0,0,1,27.65,53.43Z"/></svg>