<svg id="Layer_1" data-name="Layer 1" xmlns="http://www.w3.org/2000/svg" xmlns:xlink="http://www.w3.org/1999/xlink" viewBox="0 0 100 100"><defs><style>.cls-1{fill:url(#linear-gradient);}.cls-2{fill:url(#linear-gradient-2);}.cls-3{fill:url(#linear-gradient-3);}.cls-4{fill:url(#linear-gradient-4);}.cls-5{fill:url(#linear-gradient-5);}.cls-6{fill:url(#linear-gradient-6);}.cls-7{fill:url(#linear-gradient-7);}.cls-8{fill:url(#linear-gradient-8);}</style><linearGradient id="linear-gradient" x1="50.01" y1="97.47" x2="50.01" y2="10.25" gradientUnits="userSpaceOnUse"><stop offset="0" stop-color="#af193d"/><stop offset="1" stop-color="#ff3270"/></linearGradient><linearGradient id="linear-gradient-2" x1="50" y1="97.47" x2="50" y2="10.25" xlink:href="#linear-gradient"/><linearGradient id="linear-gradient-3" x1="14.98" y1="97.47" x2="14.98" y2="10.25" xlink:href="#linear-gradient"/><linearGradient id="linear-gradient-4" x1="85.02" y1="97.47" x2="85.02" y2="10.25" xlink:href="#linear-gradient"/><linearGradient id="linear-gradient-5" x1="50" y1="97.47" x2="50" y2="10.25" xlink:href="#linear-gradient"/><linearGradient id="linear-gradient-6" x1="28.15" y1="97.47" x2="28.15" y2="10.25" xlink:href="#linear-gradient"/><linearGradient id="linear-gradient-7" x1="50.02" y1="97.47" x2="50.02" y2="10.25" xlink:href="#linear-gradient"/><linearGradient id="linear-gradient-8" x1="71.87" y1="97.47" x2="71.87" y2="10.25" xlink:href="#linear-gradient"/></defs><g id="Captancy_skills" data-name="Captancy skills"><path class="cls-1" d="M51.71,53.26v4.62H84.1c2.14,0,2.6.45,2.6,2.56,0,1.69,0,3.39,0,5.07a1.48,1.48,0,0,0,1.08,1.7,7.24,7.24,0,0,1,4.44,8.06,7.33,7.33,0,0,1-7.27,5.87,7.24,7.24,0,0,1-7-5.75,7.15,7.15,0,0,1,4.42-8.2,1.46,1.46,0,0,0,1.09-1.68c-.06-1.36,0-2.72,0-4.21H51.65c0,1.62-.09,3.24.06,4.85,0,.41.8.87,1.31,1.12a7.27,7.27,0,0,1-1.77,13.79,7.28,7.28,0,0,1-7.68-3.8,7.15,7.15,0,0,1,3.54-10,1.65,1.65,0,0,0,1.26-1.9c-.08-1.35,0-2.7,0-4.13H16.28c0,1.61-.07,3.18.06,4.73,0,.39.66.88,1.12,1.07a7.27,7.27,0,0,1-1.82,14.07A7.19,7.19,0,0,1,8,76c-1.2-3.74.66-7.21,5-9.14,0-2.19,0-4.42,0-6.65,0-1.86.45-2.29,2.34-2.29H48.27V53.26H46.55c-4.09,0-8.18,0-12.28,0-1.92,0-2.25-.44-1.77-2.24,2.21-8.34,9.13-13.8,17.47-13.8S65.21,42.59,67.48,51c.51,1.91.21,2.3-1.84,2.3Z"/><path class="cls-2" d="M49.86,96.1c-4,0-8,0-11.94,0-1.94,0-2.26-.42-1.8-2.23a14.37,14.37,0,0,1,27.8.12c.39,1.66.07,2.11-1.63,2.12-4.14,0-8.28,0-12.43,0Z"/><path class="cls-3" d="M14.79,96.1c-4,0-8,0-11.94,0-1.94,0-2.21-.39-1.74-2.25A14.44,14.44,0,0,1,15,83.2,14.6,14.6,0,0,1,28.92,94c.37,1.58,0,2.1-1.69,2.1-4.15,0-8.29,0-12.44,0Z"/><path class="cls-4" d="M85,96.1c-4,0-8.07,0-12.1,0-1.81,0-2.19-.49-1.77-2.15a14.37,14.37,0,0,1,27.8,0c.44,1.77.15,2.19-1.65,2.19-4.09,0-8.19,0-12.28,0Z"/><path class="cls-5" d="M50.06,35.1a9.07,9.07,0,1,1,9-9A9.08,9.08,0,0,1,50.06,35.1Z"/><path class="cls-6" d="M28.51,4a11.81,11.81,0,0,1,.61,1.79c.33,1.85,1.36,2.54,3.2,2.23a8,8,0,0,1,1.87.13l.17.42A13.11,13.11,0,0,1,32.61,10c-1.34.77-1.83,1.68-1.05,3.17a10.3,10.3,0,0,1,.56,2.25l-.42.3a17,17,0,0,1-2.05-1.37,1.94,1.94,0,0,0-3-.07,9.85,9.85,0,0,1-2.32,1.15A9.17,9.17,0,0,1,24.79,13c.67-1.41.17-2.21-1-2.92a16.62,16.62,0,0,1-1.82-1.46l.16-.5a21.1,21.1,0,0,1,2.63-.1c1.23.09,1.93-.29,2.19-1.58a15.64,15.64,0,0,1,1-2.59Z"/><path class="cls-7" d="M46,15.46a11.94,11.94,0,0,1,.63-2.33c.71-1.43.27-2.32-1-3.06a13.87,13.87,0,0,1-1.82-1.44L43.94,8c.88,0,1.77-.06,2.64,0,1.23.11,1.94-.26,2.19-1.57A15,15,0,0,1,49.7,4l.52-.06A10.18,10.18,0,0,1,51,5.82C51.3,7.57,52.21,8.33,54,8.05a9.14,9.14,0,0,1,2,.13l.21.49c-.78.6-1.51,1.26-2.33,1.78a1.52,1.52,0,0,0-.7,2.18A24,24,0,0,1,54,15.45l-.47.31a25,25,0,0,1-2.33-1.57,1.6,1.6,0,0,0-2.43,0,23.42,23.42,0,0,1-2.33,1.6Z"/><path class="cls-8" d="M67.73,15.78a19.35,19.35,0,0,1,.82-2.84,1.81,1.81,0,0,0-.86-2.69,18.58,18.58,0,0,1-2-1.54l.08-.53a16.83,16.83,0,0,1,2.55-.13c1.38.13,2.14-.32,2.39-1.75a12.79,12.79,0,0,1,.89-2.36l.52-.06a16.58,16.58,0,0,1,1,2.56A1.75,1.75,0,0,0,75.25,8c.84-.08,1.69,0,2.54,0l.28.58a12.67,12.67,0,0,1-1.81,1.49c-1.34.75-1.72,1.69-1,3.07a5.26,5.26,0,0,1,.45,1.39,3.07,3.07,0,0,1-.07.9c-.34,0-.82.05-1-.15-1.91-2-3.74-1.91-5.61,0C68.86,15.54,68.48,15.54,67.73,15.78Z"/></g></svg>