<svg id="Layer_1" data-name="Layer 1" xmlns="http://www.w3.org/2000/svg" xmlns:xlink="http://www.w3.org/1999/xlink" viewBox="0 0 100 100"><defs><style>.cls-1{fill:url(#linear-gradient);}.cls-2{fill:url(#linear-gradient-2);}.cls-3{fill:url(#linear-gradient-3);}</style><linearGradient id="linear-gradient" x1="50" y1="90.63" x2="50" y2="21.24" gradientUnits="userSpaceOnUse"><stop offset="0" stop-color="#af193d"/><stop offset="1" stop-color="#ff3270"/></linearGradient><linearGradient id="linear-gradient-2" x1="50" y1="90.63" x2="50" y2="21.24" xlink:href="#linear-gradient"/><linearGradient id="linear-gradient-3" x1="50.64" y1="90.63" x2="50.64" y2="21.24" xlink:href="#linear-gradient"/></defs><g id="Etertainment_Value" data-name="Etertainment Value"><path class="cls-1" d="M96.11,72.59c-.1,6.22-1.25,11.75-4.67,16.58a20.1,20.1,0,0,1-3.93,4.15c-5,3.93-11.13,3.69-16-.48a21.33,21.33,0,0,1-6.08-9.41,19.38,19.38,0,0,0-2.82-5.09,5.47,5.47,0,0,0-4.67-2c-5,0-10,0-15,0-4.25,0-6.86,1.79-8.17,5.94a22.14,22.14,0,0,1-5.9,10.09c-5.2,4.82-11.82,5-17.23.37A20.88,20.88,0,0,1,5,81.48c-2.51-10.41-.87-20.16,5.31-29A12.7,12.7,0,0,1,22,46.68c3,.16,6,0,9.05,0a7.79,7.79,0,0,1,6.58,2.78c2.46,3.17,5.47,4.26,9.41,3.88,3.32-.32,6.69,0,10-.12a3.46,3.46,0,0,0,2.41-1C63,47.66,67.58,46,73.21,46.67a27.17,27.17,0,0,0,4.94,0c5-.32,8.66,2,11.51,5.79C94.19,58.55,95.87,65.55,96.11,72.59ZM23.66,63.18c0-1.63,0-3,0-4.46,0-1.12-.34-2-1.58-2.07s-1.72.91-1.71,2.1c0,1.45,0,2.9,0,4.43-1.61,0-3,0-4.34,0-1.16,0-2.18.27-2.2,1.61s1,1.69,2.15,1.68c1.44,0,2.9,0,4.39,0,0,1.7,0,3.12,0,4.54,0,1.14.43,2,1.66,2s1.64-.89,1.63-2c0-1.46,0-2.92,0-4.52h4.59c1.14,0,2-.47,2-1.69s-.83-1.59-1.9-1.59Zm52.71-9.87a3.28,3.28,0,1,0,3.24,3.27A3.32,3.32,0,0,0,76.37,53.31ZM73,63.25a3.28,3.28,0,1,0-3.31,3.2A3.32,3.32,0,0,0,73,63.25Zm13.17,0a3.28,3.28,0,1,0-3.31,3.2A3.32,3.32,0,0,0,86.19,63.25Zm-9.84,3.23a3.28,3.28,0,1,0,3.26,3.26A3.32,3.32,0,0,0,76.35,66.48Z"/><path class="cls-2" d="M49.85,43.42H27.64c-4.6,0-7.27-2.66-7.27-7.24q0-12.49,0-25c0-4.6,2.65-7.27,7.23-7.27H72.35c4.6,0,7.27,2.65,7.27,7.23q0,12.51,0,25c0,4.6-2.65,7.26-7.23,7.27Zm3.37-9.88H29.77c-.55,0-1.22-.13-1.61.13a2.56,2.56,0,0,0-1.1,1.58c0,.47.59,1.12,1.09,1.42a3.34,3.34,0,0,0,1.6.14H53.22C53.39,38.26,53,40,54.88,40s1.56-1.81,1.8-3.21H67.51a21.4,21.4,0,0,0,3.93-.1,2.21,2.21,0,0,0,1.46-1.54c0-.54-.84-1.21-1.46-1.58-.41-.25-1.07-.07-1.62-.07H56.65c-.19-1.4.28-3.25-1.76-3.22S53.38,32.1,53.22,33.54ZM43.42,18.7c0,2,0,3.95,0,5.92,0,2.15,1,2.81,2.94,1.87,4-2,8-4,12-6.06a2.71,2.71,0,0,0,1.35-1.78c0-.51-.71-1.31-1.31-1.62-4-2.1-8.09-4.12-12.17-6.13-1.79-.88-2.81-.19-2.84,1.87S43.42,16.72,43.42,18.7Z"/><path class="cls-3" d="M46.74,22.63V14.82l7.81,3.9Z"/></g></svg>