<svg id="Layer_1" data-name="Layer 1" xmlns="http://www.w3.org/2000/svg" xmlns:xlink="http://www.w3.org/1999/xlink" viewBox="0 0 100 100"><defs><style>.cls-1{fill:url(#linear-gradient);}.cls-2{fill:url(#linear-gradient-2);}.cls-3{fill:url(#linear-gradient-3);}.cls-4{fill:url(#linear-gradient-4);}.cls-5{fill:url(#linear-gradient-5);}.cls-6{fill:url(#linear-gradient-6);}.cls-7{fill:url(#linear-gradient-7);}.cls-8{fill:url(#linear-gradient-8);}</style><linearGradient id="linear-gradient" x1="48.55" y1="90.83" x2="48.55" y2="36.39" gradientUnits="userSpaceOnUse"><stop offset="0" stop-color="#af193d"/><stop offset="1" stop-color="#ff3270"/></linearGradient><linearGradient id="linear-gradient-2" x1="58.89" y1="90.83" x2="58.89" y2="36.39" xlink:href="#linear-gradient"/><linearGradient id="linear-gradient-3" x1="87.41" y1="90.83" x2="87.41" y2="36.39" xlink:href="#linear-gradient"/><linearGradient id="linear-gradient-4" x1="13.26" y1="90.83" x2="13.26" y2="36.39" xlink:href="#linear-gradient"/><linearGradient id="linear-gradient-5" x1="33.37" y1="90.83" x2="33.37" y2="36.39" xlink:href="#linear-gradient"/><linearGradient id="linear-gradient-6" x1="40.67" y1="90.83" x2="40.67" y2="36.39" xlink:href="#linear-gradient"/><linearGradient id="linear-gradient-7" x1="26.84" y1="90.83" x2="26.84" y2="36.39" xlink:href="#linear-gradient"/><linearGradient id="linear-gradient-8" x1="46.7" y1="90.83" x2="46.7" y2="36.39" xlink:href="#linear-gradient"/></defs><g id="Real_Engagement" data-name="Real Engagement"><path class="cls-1" d="M60.57,84.6a4,4,0,0,1-4.78,3.15,13.61,13.61,0,0,1-5.47-2.43c.19-.36.38-.76.61-1.12a4.14,4.14,0,0,0,.24-4.66,4,4,0,0,0-4.27-1.83,4.91,4.91,0,0,0-6.76-4.53,5.39,5.39,0,0,0-2.59-4.33,5.21,5.21,0,0,0-5.09-.23c-.48-2.21-1.63-3.71-3.9-4-2.91-.34-4.23,1.64-5.28,4L16,65c.2-.48.39-.93.59-1.37,3.26-7.25,6.55-14.48,9.77-21.75A2,2,0,0,1,28,40.52c4.78-.94,9.55-2,14.35-2.84a46.22,46.22,0,0,1,5.14-.36l.06.22a3.17,3.17,0,0,1-.39.34A76.85,76.85,0,0,0,37.24,46a11.05,11.05,0,0,0-2.72,5.26C34,52.87,33.58,54.48,33,56a11.17,11.17,0,0,1-1.42,2.29c-.38.54-.55,1.15-.13,1.62a7.54,7.54,0,0,0,2.17,1.86c3.25,1.52,6.19.73,8.83-1.52A13.42,13.42,0,0,0,46,55.4a5,5,0,0,1,3.75-3,11.8,11.8,0,0,1,7.08.2,4.88,4.88,0,0,1,1.87,1.32c4.73,5.32,10.21,9.57,17,11.86a23.41,23.41,0,0,0,4.43.83c.62.08.82.31.84.86s.07,1.17,0,1.75c-.12,2.37-1.47,3.51-3.87,3.3a18.4,18.4,0,0,1-6.09-1.72c-1.77-.81-3.48-1.76-5.25-2.58a1.65,1.65,0,0,0-1.29,0c-.21.1-.31.7-.24,1s.42.5.7.66a37.07,37.07,0,0,0,10.81,4.36.88.88,0,0,1,.21.12,4.36,4.36,0,0,1-4.53,4.48,16.85,16.85,0,0,1-7.33-1.81c-1.09-.48-2.15-1-3.23-1.58q-1.12-.57-1.59.27c-.29.53,0,1.06.72,1.45a34.64,34.64,0,0,0,7.73,3.14c.18,0,.36.12.53.18,0,2.08-1.09,3.27-3.11,3.21a14.59,14.59,0,0,1-6.14-2c-.3-.15-.59-.32-.88-.48a.93.93,0,0,0-1.37.36.87.87,0,0,0,.39,1.28c1,.52,1.94,1,2.92,1.47Z"/><path class="cls-2" d="M84.36,64.17a11,11,0,0,1-5.48.43A25,25,0,0,1,68.4,60a40.05,40.05,0,0,1-8.48-7.65,6,6,0,0,0-3.71-1.94,13.85,13.85,0,0,0-9,.9A5.42,5.42,0,0,0,44.58,54a13.58,13.58,0,0,1-3.78,5.15,5.93,5.93,0,0,1-6.94.66c-.15-.1-.29-.23-.45-.36,1.7-2.48,2.31-5.34,3.09-8.12a9.25,9.25,0,0,1,2.76-4.56,75,75,0,0,1,9.45-7.59,10.24,10.24,0,0,1,8.35-1.66c4.85,1.09,9.86,1.52,14.8,2.22a4,4,0,0,0,.91.11c1.47-.16,1.94.77,2.41,2,2.94,7.26,5.95,14.49,8.94,21.74C84.2,63.71,84.27,63.92,84.36,64.17Z"/><path class="cls-3" d="M87.81,64.25A1.92,1.92,0,0,1,86,63L79.79,48Q78,43.62,76.24,39.28a1.73,1.73,0,0,1,1.08-2.55q4.5-1.84,9-3.66a1.8,1.8,0,0,1,2.56,1.14l6.81,16.56c.93,2.27,1.88,4.53,2.81,6.8.64,1.56.3,2.32-1.25,2.94L88.71,64A8.59,8.59,0,0,1,87.81,64.25Z"/><path class="cls-4" d="M14.09,34.19a5.72,5.72,0,0,1,.76.24l8.85,4a1.77,1.77,0,0,1,1,2.61Q19.5,52.51,14.32,64c-.64,1.42-1.45,1.72-2.89,1.07L3,61.29c-1.43-.64-1.75-1.45-1.11-2.88l10.38-23A1.83,1.83,0,0,1,14.09,34.19Z"/><path class="cls-5" d="M38.28,73.43a12.34,12.34,0,0,1-.63,1.7c-.92,1.72-1.87,3.42-2.83,5.11A3.36,3.36,0,1,1,29,77c1-1.8,2-3.61,3-5.38a3.28,3.28,0,0,1,3.84-1.45A3.6,3.6,0,0,1,38.28,73.43Z"/><path class="cls-6" d="M45,77.81a11.35,11.35,0,0,1-.58,1.54c-.82,1.52-1.68,3-2.54,4.52a2.94,2.94,0,0,1-4.11,1.34,3,3,0,0,1-1-4.22c.89-1.61,1.77-3.22,2.71-4.8a2.83,2.83,0,0,1,3.32-1.3A3.08,3.08,0,0,1,45,77.81Z"/><path class="cls-7" d="M30.43,69.18a4.53,4.53,0,0,1-.32.95Q29,72.23,27.8,74.29a2.36,2.36,0,0,1-3.29,1,2.32,2.32,0,0,1-1-3.23c.78-1.5,1.62-3,2.5-4.43a2.28,2.28,0,0,1,2.68-1A2.43,2.43,0,0,1,30.43,69.18Z"/><path class="cls-8" d="M45.75,87.72a2.21,2.21,0,0,1-1.94-3.2c.68-1.34,1.42-2.65,2.2-3.94a2,2,0,0,1,2.77-.75,2,2,0,0,1,.86,2.66,42,42,0,0,1-2.32,4.15C47,87.13,46.28,87.36,45.75,87.72Z"/></g></svg>