<svg id="Layer_1" data-name="Layer 1" xmlns="http://www.w3.org/2000/svg" xmlns:xlink="http://www.w3.org/1999/xlink" viewBox="0 0 100 100"><defs><style>.cls-1{fill:url(#linear-gradient);}.cls-2{fill:url(#linear-gradient-2);}.cls-3{fill:url(#linear-gradient-3);}.cls-4{fill:url(#linear-gradient-4);}.cls-5{fill:url(#linear-gradient-5);}.cls-6{fill:url(#linear-gradient-6);}.cls-7{fill:url(#linear-gradient-7);}.cls-8{fill:url(#linear-gradient-8);}.cls-9{fill:url(#linear-gradient-9);}.cls-10{fill:url(#linear-gradient-10);}</style><linearGradient id="linear-gradient" x1="52.01" y1="103.51" x2="52.01" y2="10.1" gradientUnits="userSpaceOnUse"><stop offset="0" stop-color="#af193d"/><stop offset="1" stop-color="#ff3270"/></linearGradient><linearGradient id="linear-gradient-2" x1="51.95" y1="103.51" x2="51.95" y2="10.1" xlink:href="#linear-gradient"/><linearGradient id="linear-gradient-3" x1="58.94" y1="103.51" x2="58.94" y2="10.1" xlink:href="#linear-gradient"/><linearGradient id="linear-gradient-4" x1="58.93" y1="103.51" x2="58.93" y2="10.1" xlink:href="#linear-gradient"/><linearGradient id="linear-gradient-5" x1="58.96" y1="103.51" x2="58.96" y2="10.1" xlink:href="#linear-gradient"/><linearGradient id="linear-gradient-6" x1="28.14" y1="103.51" x2="28.14" y2="10.1" xlink:href="#linear-gradient"/><linearGradient id="linear-gradient-7" x1="28.14" y1="103.51" x2="28.14" y2="10.1" xlink:href="#linear-gradient"/><linearGradient id="linear-gradient-8" x1="50.6" y1="103.51" x2="50.6" y2="10.1" xlink:href="#linear-gradient"/><linearGradient id="linear-gradient-9" x1="28.16" y1="103.51" x2="28.16" y2="10.1" xlink:href="#linear-gradient"/><linearGradient id="linear-gradient-10" x1="28.14" y1="103.51" x2="28.14" y2="10.1" xlink:href="#linear-gradient"/></defs><g id="Variety_of_formats" data-name="Variety of formats"><path class="cls-1" d="M17.05,50V12c0-5.3,2.76-8.08,8-8.08H78.71C84,3.9,87,6.83,87,12.17q0,32.46,0,64.93A3.9,3.9,0,0,1,85.84,80c-4.79,5-9.52,10.07-14.35,15a3.77,3.77,0,0,1-2.42,1q-22.14.09-44.27,0c-4.88,0-7.74-2.88-7.74-7.77Q17,69.17,17.05,50ZM83.83,77c0-.62.09-1.1.09-1.58q0-31.72,0-63.45c0-3.63-1.53-5.19-5.13-5.19H25c-3.51,0-5.07,1.58-5.07,5.1q0,38.12,0,76.23c0,3.59,1.55,5.15,5.17,5.15q20.88,0,41.76,0c.52,0,1-.07,1.66-.12,0-2.92,0-5.69,0-8.46,0-4.8,2.86-7.66,7.65-7.68Z"/><path class="cls-2" d="M65.72,11c-4.6.17-9.21,0-13.81,0-3.72,0-7.43,0-11.14,0A35.69,35.69,0,0,0,35,11.2a14.55,14.55,0,0,0-4.15,27.14c5.49,2.78,10.8,2.21,15.82-1.28,2.69-1.86,8.06-1.94,10.55,0a15,15,0,0,0,8.66,3c7.41.36,14.51-5.79,14.89-13A14.8,14.8,0,0,0,65.72,11ZM39,26.51H36.2v2.89a1.51,1.51,0,0,1-.62,1.23l-.08.06a1.27,1.27,0,0,1-.82.25h-.15a.51.51,0,0,1-.17,0h-.08A.78.78,0,0,1,34,30.8a.42.42,0,0,1-.2-.1.49.49,0,0,1-.15-.1,1.52,1.52,0,0,1-.59-1.21V26.51c-1,0-1.91,0-2.79,0s-1.65-.43-1.65-1.44.69-1.46,1.66-1.48,1.77,0,2.78,0V20.7a1.54,1.54,0,0,1,1.53-1.55h.06A1.55,1.55,0,0,1,36.2,20.7v2.89c1,0,1.88,0,2.78,0s1.65.42,1.66,1.48S40,26.51,39,26.51Zm17.1.42h-8.3c-1,0-1.72-.42-1.72-1.43s.73-1.43,1.72-1.41c2.77,0,5.53,0,8.3,0,1,0,1.69.43,1.7,1.43S57.07,26.93,56.09,26.93ZM65,26.74a1.38,1.38,0,0,1-.42,1,1.24,1.24,0,0,1-.21.18,1.39,1.39,0,0,1-.91.25h-.1a1.36,1.36,0,0,1-.56-.11,1.25,1.25,0,0,1-.18-.11A1.37,1.37,0,0,1,62,26.74V24.28a1.43,1.43,0,0,1,1.42-1.43h.21A1.43,1.43,0,0,1,65,24.28Zm5.66,5.08a1.36,1.36,0,0,1-1,.4H67.25A1.41,1.41,0,0,1,66,31.48v0a.93.93,0,0,1-.2-.64,1.22,1.22,0,0,1,.06-.51s0,0,0,0a1.42,1.42,0,0,1,1.39-1.14H69.7a1.42,1.42,0,0,1,1.42,1.42v0s0,.07,0,.1A1,1,0,0,1,70.67,31.82Zm.55-11.15a1.42,1.42,0,0,1-1.41,1.42H67.35a1.43,1.43,0,0,1-1.43-1.42v-.22A1.41,1.41,0,0,1,67.35,19h2.46a1.41,1.41,0,0,1,1.41,1.41Zm4.06,6.12a1.41,1.41,0,0,1-1.35,1.41h-.08l-.08,0A1,1,0,0,1,73,28h0a1.38,1.38,0,0,1-.74-1.24V24.34a1.43,1.43,0,0,1,1.42-1.42h.21a1.43,1.43,0,0,1,1.43,1.42Z"/><path class="cls-3" d="M58.89,73.51c-6.59,0-13.17,0-19.76,0-1.05,0-2-.17-2-1.4,0-.51.67-1.08,1.15-1.47.25-.2.76-.08,1.16-.08H79c1,0,1.79.5,1.74,1.59s-.8,1.36-1.78,1.36C72.27,73.5,65.58,73.51,58.89,73.51Z"/><path class="cls-4" d="M58.91,50H39.75c-.4,0-.88.14-1.17,0-.56-.34-1.3-.8-1.43-1.34-.23-.91.48-1.42,1.4-1.51.4,0,.79,0,1.19,0H78.07c1.92,0,2.82.49,2.67,1.55C80.52,50.3,79.18,50,78.08,50Q68.5,50,58.91,50Z"/><path class="cls-5" d="M58.9,61.66H39.59c-.44,0-1,.13-1.31-.07-.48-.29-1.09-.83-1.11-1.28a2,2,0,0,1,1-1.39,3.36,3.36,0,0,1,1.6-.13H78.08c1.93,0,2.8.48,2.66,1.54-.23,1.69-1.59,1.32-2.67,1.32C71.68,61.67,65.29,61.66,58.9,61.66Z"/><path class="cls-6" d="M33,60.23a4.86,4.86,0,1,1-4.89-4.9A4.89,4.89,0,0,1,33,60.23Z"/><path class="cls-7" d="M33,83.8a4.86,4.86,0,1,1-4.79-5A4.8,4.8,0,0,1,33,83.8Z"/><path class="cls-8" d="M50.58,85.13c-3.91,0-7.82,0-11.72,0-1.34,0-2-.73-1.73-1.77s1.07-1,1.89-1H62.6c.94,0,1.53.37,1.52,1.39s-.6,1.39-1.53,1.39Z"/><path class="cls-9" d="M29.75,72.16c1,.76,1.71,1.26,2.35,1.87s.78,1.53,0,2A2.13,2.13,0,0,1,30.17,76a11.76,11.76,0,0,1-2-2.34c-.86,1-1.39,1.73-2,2.35a1.42,1.42,0,1,1-2-2c.63-.56,1.28-1.09,2.4-2-1-.74-1.76-1.21-2.42-1.8a1.32,1.32,0,0,1-.08-2.08,1.3,1.3,0,0,1,2.07.07c.59.6,1.13,1.25,2.09,2.33.67-.88,1.16-1.62,1.73-2.28A1.3,1.3,0,0,1,32.1,68,1.36,1.36,0,0,1,32,70.19C31.42,70.77,30.76,71.29,29.75,72.16Z"/><path class="cls-10" d="M28.25,47c.78-1,1.28-1.73,1.88-2.38s1.55-.75,2,0a2.13,2.13,0,0,1-.08,1.92,12.71,12.71,0,0,1-2.43,2.07c1,.77,1.71,1.24,2.33,1.79a1.34,1.34,0,0,1,.16,2.18,1.41,1.41,0,0,1-2.2-.22c-.54-.57-1-1.21-1.74-2.11-.82.94-1.37,1.63-2,2.24a1.36,1.36,0,0,1-2.1.06,1.33,1.33,0,0,1,.13-2.08c.61-.57,1.24-1.12,2.33-2.09-.92-.67-1.67-1.14-2.33-1.73a1.42,1.42,0,1,1,2-2C26.77,45.22,27.29,45.88,28.25,47Z"/></g></svg>