<svg id="Layer_1" data-name="Layer 1" xmlns="http://www.w3.org/2000/svg" xmlns:xlink="http://www.w3.org/1999/xlink" viewBox="0 0 100 100"><defs><style>.cls-1{fill:url(#linear-gradient);}.cls-2{fill:url(#linear-gradient-2);}.cls-3{fill:url(#linear-gradient-3);}.cls-4{fill:url(#linear-gradient-4);}.cls-5{fill:url(#linear-gradient-5);}.cls-6{fill:url(#linear-gradient-6);}.cls-7{fill:url(#linear-gradient-7);}.cls-8{fill:url(#linear-gradient-8);}.cls-9{fill:url(#linear-gradient-9);}</style><linearGradient id="linear-gradient" x1="49.92" y1="97.64" x2="49.92" y2="38.12" gradientUnits="userSpaceOnUse"><stop offset="0" stop-color="#af193d"/><stop offset="1" stop-color="#ff3270"/></linearGradient><linearGradient id="linear-gradient-2" x1="77.02" y1="97.64" x2="77.02" y2="38.12" xlink:href="#linear-gradient"/><linearGradient id="linear-gradient-3" x1="19.91" y1="97.64" x2="19.91" y2="38.12" xlink:href="#linear-gradient"/><linearGradient id="linear-gradient-4" x1="49.99" y1="97.64" x2="49.99" y2="38.12" xlink:href="#linear-gradient"/><linearGradient id="linear-gradient-5" x1="63.14" y1="97.64" x2="63.14" y2="38.12" xlink:href="#linear-gradient"/><linearGradient id="linear-gradient-6" x1="19.63" y1="97.64" x2="19.63" y2="38.12" xlink:href="#linear-gradient"/><linearGradient id="linear-gradient-7" x1="82.74" y1="97.64" x2="82.74" y2="38.12" xlink:href="#linear-gradient"/><linearGradient id="linear-gradient-8" x1="40.54" y1="97.64" x2="40.54" y2="38.12" xlink:href="#linear-gradient"/><linearGradient id="linear-gradient-9" x1="41.57" y1="97.64" x2="41.57" y2="38.12" xlink:href="#linear-gradient"/></defs><g id="Choosing_captain" data-name="Choosing captain"><path class="cls-1" d="M64.15,46.26a5.77,5.77,0,0,1-2.33.79c-3-.07-6-.37-9-.42a2.45,2.45,0,0,0-1.89,1c-1.33,2.54-2.46,5.17-3.74,7.91l4.49.92-.14.66a35.81,35.81,0,0,0-4.12-.46,4.05,4.05,0,0,0-2.24.74c-1.48,1-2.75,2.4-4.29,3.3A2.8,2.8,0,0,0,39.24,64c.16.84.19,1.71.28,2.56l-.61.11-.65-4.21-9,1.65c-.18-3.25-.41-6-.47-8.84-.08-3.35,0-3.35-3.75-4.25V62.2c-1.44-4.13-1.25-8.3-.47-12.94,3.77.51,7.47.92,11.14,1.56,3.38.58,6.74,1.35,10.07,2.15,1.11.27,1.78.16,2.24-.92.71-1.64,1.47-3.26,2.37-5.26l-4.66.26c-6,.27-12.16.87-18.1-.71A15.35,15.35,0,0,1,22,43.21c-1.65-1.37-1.14-2.56.91-3,1.16-.27,2.28-.74,3.44-.9,3.85-.51,5.56-3,6.71-6.44,2.11-6.24,5.89-11.11,12.2-13.68C54.45,15.43,67,18.68,72.4,25a27.14,27.14,0,0,1,6.38,19.26,48.71,48.71,0,0,1-1.07,7.58c-.14.66-1.06,1.16-1.59,1.75a3.52,3.52,0,0,0-.8,1.08,14.13,14.13,0,0,1-5,7.32c-3,2.29-6.14,4.51-9.24,6.73a2.31,2.31,0,0,1-1.76.39l11.39-8.3c-3.19-.57-5.78-1-8.39-1.47-.35-.06-.7-.07-.82-.19s.29-.34.6-.66c0,0,5.07.73,8.21,1.2a2.17,2.17,0,0,0,1.59-.45c3-2.81,2.43-6.7,2.89-10.26,0-.3-.16-.52-.48-.86-2.33-.79-5.06-1.85-7.44-2.45A5,5,0,0,0,64.15,46.26Zm-34.67,6.2c.15,3.25.23,6.27.48,9.29a1.81,1.81,0,0,0,1.43,1,58.6,58.6,0,0,0,6-1.29,1.53,1.53,0,0,0,1-.89c.31-1.88.48-3.78.7-5.71Zm17.09,2.13-.06-.75L28.22,50.4l-.18.84c5.64,1.31,11.28,2.64,16.93,3.89C45.44,55.23,46,54.78,46.57,54.59Zm-7.33,5.66.58.35,5.59-4.41L40,55.11ZM52.53,40.62c-.87-4-2-7.46-2.29-11s.33-7,.56-10.78C48.44,26.32,49.53,33.32,52.53,40.62Z"/><path class="cls-2" d="M93.47,86.14a17.58,17.58,0,0,1-9.85,8.73,2,2,0,0,1-1.71-.42c-7.26-7.83-14.46-15.71-21.69-23.6l12.38-9,10,10.54c3.47,3.68,6.92,7.39,10.46,11A2,2,0,0,1,93.47,86.14Z"/><path class="cls-3" d="M33.6,77.5c-1.91,2.11-3.78,4.19-5.67,6.25-3.16,3.46-6.37,6.88-9.49,10.38a2,2,0,0,1-2.72.55,17.21,17.21,0,0,1-9.37-9,2.15,2.15,0,0,1,.28-1.91c5.58-6,11.22-11.94,16.86-17.88a1.77,1.77,0,0,1,.46-.28C27.49,74.51,27.49,74.51,33.6,77.5Z"/><path class="cls-4" d="M49.82,79.89c4.74-.13,9.75,4.79,9.61,9.55-.14,5-4.3,9.32-9.28,9.1a9.93,9.93,0,0,1-9.61-9.65A9,9,0,0,1,49.82,79.89Z"/><path class="cls-5" d="M63.61,47.34c.92-.21,2.47-.94,3.28-.73,2.24.56,4.41,1.4,6.61,2.16a.79.79,0,0,1,.52.53,2.27,2.27,0,0,1-1.18,2.8C69.46,54,66.05,56,62.67,57.89c-.61.35-1.16.79-1.74,1.18L61,59a6.84,6.84,0,0,0-.62,1.94c0,1.75.12,3.5.16,5.24s-.61,2.37-3.56,2.9a2.38,2.38,0,0,1-2.73-1.76c-.64-2.56-1.28-5.12-2-7.66a2.08,2.08,0,0,1,1.25-2.73C58,54.7,60.81,51.41,63.61,47.34Z"/><path class="cls-6" d="M31.74,32.44,25.48,25.7C19.28,19,13.11,12.3,6.86,5.65c-1.18-1.26-1.4-2.16,0-3.41s2.22-.76,3.28.39Q21,14.39,32,26.07c1.25,1.33,2,2.45.76,4.14A14.47,14.47,0,0,0,31.74,32.44Z"/><path class="cls-7" d="M74.35,25.75l-3-3.22c1.81-2,3.59-4,5.4-5.89q6.51-7,13-14c1.5-1.61,2-1.58,3.52-.19,1.22,1.11.88,1.95-.1,3C87.76,11.29,82.32,17.16,76.88,23,76.07,23.87,75.27,24.74,74.35,25.75Z"/><path class="cls-8" d="M25.37,64.38c2,3.61,2.26,8.43,6.84,10.51-.95-3-1.82-5.84-2.7-8.64l.73-.24.61,1.74c.59,1.77,1.21,3.53,1.77,5.31.62,2,2.1,2.67,4,2.7s3.91,0,6,0L39.1,69l.63-.37a8.66,8.66,0,0,1,.64,1c3.46,7.29,3.27,5.91,9.12,4.06,1.66-.53,3.22-1.36,4.83-2,.58-.24,1.19-.44,1.79-.67l.27.62c-2,.93-3.9,2-5.93,2.78a29.77,29.77,0,0,1-16.53,1.87c-2.8-.51-5.06-1.72-6.23-4.47l-3-7.05Z"/><path class="cls-9" d="M24.77,63a126.33,126.33,0,0,0,33.61,6.85C55.84,72.1,27.64,66.26,24.77,63Z"/></g></svg>