<svg id="Layer_1" data-name="Layer 1" xmlns="http://www.w3.org/2000/svg" xmlns:xlink="http://www.w3.org/1999/xlink" viewBox="0 0 100 100"><defs><style>.cls-1{fill:url(#linear-gradient);}.cls-2{fill:url(#linear-gradient-2);}.cls-3{fill:url(#linear-gradient-3);}.cls-4{fill:url(#linear-gradient-4);}.cls-5{fill:url(#linear-gradient-6);}</style><linearGradient id="linear-gradient" x1="80.62" y1="97.64" x2="80.62" y2="38.12" gradientUnits="userSpaceOnUse"><stop offset="0" stop-color="#af193d"/><stop offset="1" stop-color="#ff3270"/></linearGradient><linearGradient id="linear-gradient-2" x1="22.92" y1="97.64" x2="22.92" y2="38.12" xlink:href="#linear-gradient"/><linearGradient id="linear-gradient-3" x1="51.77" y1="97.64" x2="51.77" y2="38.12" xlink:href="#linear-gradient"/><linearGradient id="linear-gradient-4" x1="82.43" y1="97.64" x2="82.43" y2="38.12" xlink:href="#linear-gradient"/><linearGradient id="linear-gradient-6" x1="21.12" y1="97.64" x2="21.12" y2="38.12" xlink:href="#linear-gradient"/></defs><g id="Scoring_system" data-name="Scoring system"><path class="cls-1" d="M71.91,14.7c1.29-.07,2.88.28,3.79-.35s1-2.21,1.44-3.39.74-2.21,1.15-3.31a2.37,2.37,0,0,1,2.34-1.72,2.34,2.34,0,0,1,2.31,1.73c.7,2,1.43,4,2.1,6a1.27,1.27,0,0,0,1.45,1c1.89-.06,3.79,0,5.68,0a2.51,2.51,0,0,1,2.7,1.58,2.44,2.44,0,0,1-1,2.95c-1.54,1.25-3.05,2.53-4.62,3.74a1.17,1.17,0,0,0-.44,1.58c.69,1.85,1.25,3.75,1.88,5.62.42,1.25.47,2.43-.73,3.27s-2.19.47-3.24-.24C85,32,83.16,30.84,81.42,29.65a1.15,1.15,0,0,0-1.54,0c-1.77,1.24-3.59,2.4-5.37,3.62a2.53,2.53,0,0,1-3.13.17c-1.12-.81-1.13-1.94-.73-3.16.61-1.92,1.15-3.87,1.81-5.78A1.22,1.22,0,0,0,72,22.9c-1.57-1.21-3.08-2.49-4.62-3.73a2.47,2.47,0,0,1,1.57-4.54h3Z"/><path class="cls-2" d="M23,50.81c-2.07,1.38-4.1,2.71-6.11,4.08a2.55,2.55,0,0,1-3.13.2c-1.16-.8-1.13-2-.77-3.15.58-1.94,1.14-3.89,1.82-5.79a1.18,1.18,0,0,0-.44-1.59c-1.57-1.22-3.08-2.49-4.62-3.74a2.44,2.44,0,0,1-1-3,2.49,2.49,0,0,1,2.69-1.6c1.8,0,3.61-.05,5.41,0A1.52,1.52,0,0,0,18.59,35c.53-1.81,1.25-3.56,1.86-5.35.41-1.21,1.08-2.11,2.47-2.1s2.06.88,2.47,2.1c.64,1.87,1.36,3.72,2,5.6a1.27,1.27,0,0,0,1.46,1c1.89-.06,3.78,0,5.68,0a2.48,2.48,0,0,1,1.65,4.56c-1.54,1.25-3.11,2.46-4.58,3.78A1.69,1.69,0,0,0,31.15,46c.53,1.91,1.18,3.78,1.81,5.66.41,1.23.54,2.42-.65,3.29s-2.26.48-3.36-.25C27,53.4,25,52.12,23,50.81Z"/><path class="cls-3" d="M43.08,25.53c1.29-.08,2.88.25,3.78-.38s1-2.22,1.42-3.4c.36-1,.71-1.94,1-2.92a2.5,2.5,0,0,1,2.49-2.07c1.37,0,2,.91,2.44,2.13.61,1.83,1.3,3.64,1.91,5.48a1.35,1.35,0,0,0,1.54,1.1c1.89-.07,3.78,0,5.67,0A2.46,2.46,0,0,1,66,27,2.54,2.54,0,0,1,65,30c-1.49,1.16-2.91,2.42-4.41,3.56A1.33,1.33,0,0,0,60,35.4c.68,1.8,1.22,3.66,1.82,5.49.41,1.24.52,2.44-.68,3.3A2.64,2.64,0,0,1,57.88,44c-1.72-1.16-3.48-2.25-5.19-3.42a1.34,1.34,0,0,0-1.77,0c-1.69,1.21-3.44,2.31-5.14,3.49a2.6,2.6,0,0,1-3.25.23c-1.19-.86-1.12-2-.71-3.29.62-1.88,1.17-3.78,1.81-5.65a1.21,1.21,0,0,0-.47-1.59c-1.57-1.2-3.07-2.51-4.63-3.73a2.49,2.49,0,0,1-1-3,2.4,2.4,0,0,1,2.57-1.57c1,0,2,0,3,0Z"/><rect class="cls-4" x="69.79" y="46.31" width="25.28" height="50.59" rx="3.35"/><rect class="cls-3" x="39.13" y="52.61" width="25.28" height="44.24" rx="3.35"/><rect class="cls-5" x="8.48" y="65.74" width="25.28" height="31.16" rx="3.35"/></g></svg>