<svg id="Layer_1" data-name="Layer 1" xmlns="http://www.w3.org/2000/svg" xmlns:xlink="http://www.w3.org/1999/xlink" viewBox="0 0 100 100"><defs><style>.cls-1{fill:url(#linear-gradient);}.cls-2{fill:url(#linear-gradient-2);}.cls-3{fill:url(#linear-gradient-3);}</style><linearGradient id="linear-gradient" x1="50" y1="109.55" x2="50" y2="10.93" gradientUnits="userSpaceOnUse"><stop offset="0" stop-color="#af193d"/><stop offset="1" stop-color="#ff3270"/></linearGradient><linearGradient id="linear-gradient-2" x1="49.98" y1="109.55" x2="49.98" y2="10.93" xlink:href="#linear-gradient"/><linearGradient id="linear-gradient-3" x1="82.31" y1="109.55" x2="82.31" y2="10.93" xlink:href="#linear-gradient"/></defs><path class="cls-1" d="M17.22,72.86c2.45-8,8.39-12.06,15.53-14.62,13-4.65,25.85-4.3,38.38,1.7,4.63,2.22,8.47,5.4,10.63,10.25.35.79.62,1.62,1,2.58a10.45,10.45,0,0,0,.76-.92A40,40,0,0,0,90,51c0-.26,0-.52,0-.77a3.13,3.13,0,0,1,3.1-3.31,3,3,0,0,1,3,3.33c-.42,4-.58,8.14-1.7,12-5,17-16.11,28-33.16,32.53C38,101,13.23,87.15,6,64.11A46.09,46.09,0,0,1,38.55,5.29c13.33-3.4,25.81-1.12,37.32,6.43,1.8,1.18,2.32,2.73,1.53,4.3s-2.91,2.18-4.74.95a41.9,41.9,0,0,0-11.34-5.39A40,40,0,0,0,11.19,40.29a39.2,39.2,0,0,0,5.2,31.38C16.6,72,16.85,72.33,17.22,72.86Z"/><path class="cls-2" d="M50.06,17.87a16.12,16.12,0,1,1-16.22,16A16.07,16.07,0,0,1,50.06,17.87ZM50,24.05a9.93,9.93,0,1,0,10,9.87A9.81,9.81,0,0,0,50,24.05Z"/><path class="cls-3" d="M79.23,30c0-1.6,0-3,0-4.45a3.07,3.07,0,0,1,3-3.25,3.11,3.11,0,0,1,3.18,3.23c0,1.43,0,2.85,0,4.47,1.48,0,2.85,0,4.21,0,2.08,0,3.48,1.29,3.48,3.08s-1.41,3.06-3.48,3.08c-1.33,0-2.65,0-4.21,0,0,1.39,0,2.7,0,4,0,2.26-1.18,3.65-3,3.69s-3.11-1.35-3.13-3.71c0-1.27,0-2.54,0-4-1.51,0-2.88,0-4.25,0-2.13,0-3.45-1.21-3.45-3.08S72.87,30,75,30C76.32,30,77.65,30,79.23,30Z"/></svg>