<svg id="Layer_1" data-name="Layer 1" xmlns="http://www.w3.org/2000/svg" xmlns:xlink="http://www.w3.org/1999/xlink" viewBox="0 0 100 100"><defs><style>.cls-1{fill:url(#linear-gradient);}.cls-2{fill:url(#linear-gradient-2);}.cls-3{fill:url(#linear-gradient-3);}</style><linearGradient id="linear-gradient" x1="43.87" y1="109.55" x2="43.87" y2="10.93" gradientUnits="userSpaceOnUse"><stop offset="0" stop-color="#af193d"/><stop offset="1" stop-color="#ff3270"/></linearGradient><linearGradient id="linear-gradient-2" x1="80.88" y1="109.55" x2="80.88" y2="10.93" xlink:href="#linear-gradient"/><linearGradient id="linear-gradient-3" x1="65.81" y1="109.55" x2="65.81" y2="10.93" xlink:href="#linear-gradient"/></defs><path class="cls-1" d="M9.19,98V2.05H52.56v22.6c0,2.51.75,3.26,3.28,3.26h22.6c0,.68.08,1.22.09,1.76,0,7.22,0,14.44,0,21.67a3,3,0,0,1-1.19,2.53c-5.5,4.76-11,9.53-16.41,14.4a6.34,6.34,0,0,0-1.66,3.09c-.82,3.33-1.44,6.72-2.11,10.09-.4,2,.43,3,2.45,2.9,3.88-.18,7.77-.4,11.64-.7a4.1,4.1,0,0,0,2-.91C75,81.4,76.57,80,78.41,78.37V98Zm33.4-43.62H63.94c.55,0,1.24.17,1.63-.09.67-.45,1.58-1.17,1.59-1.79a3.35,3.35,0,0,0-1.35-2.13c-.43-.34-1.28-.22-1.94-.22H21.52c-.66,0-1.51-.13-1.94.22a3.28,3.28,0,0,0-1.37,2.11c0,.62.91,1.35,1.58,1.8.38.27,1.08.1,1.63.1ZM35.84,70.11H46.5c1.72,0,3.44,0,5.16,0a2.09,2.09,0,1,0,0-4.18c-.33,0-.66,0-1,0H21.22a7.37,7.37,0,0,0-1.49.08,2,2,0,0,0-1.2,3.22,3.58,3.58,0,0,0,2.33.89C25.85,70.15,30.85,70.11,35.84,70.11Zm-4.49-31.5H42c1.77,0,2.8-.8,2.81-2.12s-1.07-2.17-2.8-2.17H20.87c-1.79,0-2.79.8-2.79,2.16s1,2.12,2.78,2.13ZM22.29,21.73c0-1.83,0-3.66,0-5.48,0-1.67-.84-2.69-2.13-2.59-1.5.1-2.09,1.08-2.09,2.49,0,3.77,0,7.54,0,11.31,0,1.53.9,2.52,2.14,2.42a2.13,2.13,0,0,0,2.08-2.49C22.27,25.5,22.29,23.62,22.29,21.73ZM20.35,5.8a2,2,0,0,0-2.24,2A1.9,1.9,0,0,0,20,10,1.89,1.89,0,0,0,22.24,8,2,2,0,0,0,20.35,5.8Z"/><path class="cls-2" d="M61.79,80c.6-2.78,1.14-5.38,1.73-8a2,2,0,0,1,.61-.93c9.52-8.35,19-16.68,28.65-25.09l7.19,8.2a7.37,7.37,0,0,0-1.32.77Q85.23,66.69,71.84,78.46a4.64,4.64,0,0,1-3.29,1.25C66.35,79.71,64.14,79.89,61.79,80Z"/><path class="cls-3" d="M56.93,23.51V5.59L74.69,23.51Z"/></svg>