<svg id="Layer_1" data-name="Layer 1" xmlns="http://www.w3.org/2000/svg" xmlns:xlink="http://www.w3.org/1999/xlink" viewBox="0 0 100 100"><defs><style>.cls-1{fill:url(#linear-gradient);}.cls-2{fill:url(#linear-gradient-2);}.cls-3{fill:url(#linear-gradient-3);}.cls-4{fill:url(#linear-gradient-4);}.cls-5{fill:url(#linear-gradient-5);}.cls-6{fill:url(#linear-gradient-6);}.cls-7{fill:url(#linear-gradient-7);}.cls-8{fill:url(#linear-gradient-8);}.cls-9{fill:url(#linear-gradient-9);}.cls-10{fill:url(#linear-gradient-10);}.cls-11{fill:url(#linear-gradient-11);}.cls-12{fill:url(#linear-gradient-12);}.cls-13{fill:url(#linear-gradient-13);}</style><linearGradient id="linear-gradient" x1="48.26" y1="109.55" x2="48.26" y2="10.93" gradientUnits="userSpaceOnUse"><stop offset="0" stop-color="#af193d"/><stop offset="1" stop-color="#ff3270"/></linearGradient><linearGradient id="linear-gradient-2" x1="33.39" y1="109.55" x2="33.39" y2="10.93" xlink:href="#linear-gradient"/><linearGradient id="linear-gradient-3" x1="65.04" y1="109.55" x2="65.04" y2="10.93" xlink:href="#linear-gradient"/><linearGradient id="linear-gradient-4" x1="49.17" y1="109.55" x2="49.17" y2="10.93" xlink:href="#linear-gradient"/><linearGradient id="linear-gradient-5" x1="87.61" y1="109.55" x2="87.61" y2="10.93" xlink:href="#linear-gradient"/><linearGradient id="linear-gradient-6" x1="49.19" y1="109.55" x2="49.19" y2="10.93" xlink:href="#linear-gradient"/><linearGradient id="linear-gradient-7" x1="49.16" y1="109.55" x2="49.16" y2="10.93" xlink:href="#linear-gradient"/><linearGradient id="linear-gradient-8" x1="65.06" y1="109.55" x2="65.06" y2="10.93" xlink:href="#linear-gradient"/><linearGradient id="linear-gradient-9" x1="21.29" y1="109.55" x2="21.29" y2="10.93" xlink:href="#linear-gradient"/><linearGradient id="linear-gradient-10" x1="10.62" y1="109.54" x2="10.62" y2="10.93" xlink:href="#linear-gradient"/><linearGradient id="linear-gradient-11" x1="14.06" y1="109.55" x2="14.06" y2="10.93" xlink:href="#linear-gradient"/><linearGradient id="linear-gradient-12" x1="17.79" y1="109.55" x2="17.79" y2="10.93" xlink:href="#linear-gradient"/><linearGradient id="linear-gradient-13" x1="33.57" y1="109.55" x2="33.57" y2="10.93" xlink:href="#linear-gradient"/></defs><path class="cls-1" d="M83.75,37.08a15.51,15.51,0,0,1-1.16,1.5Q68.07,53.13,53.52,67.67l-27,27c-1.68,1.68-2.09,1.68-3.79,0l-8.93-8.81c-1.34-1.33-1.34-2,0-3.29Q42,54.4,70.19,26.21a2.37,2.37,0,0,1,3.21-.49,22.26,22.26,0,0,1,9.89,10.07A12.57,12.57,0,0,1,83.75,37.08Z"/><path class="cls-2" d="M30.19,61.29V13.19c0-2.5.34-2.84,2.86-2.85.54,0,1.08,0,1.61,0a1.76,1.76,0,0,1,1.91,1.91V13q0,20.5,0,41a3.06,3.06,0,0,1-1,2.4c-1.7,1.65-3.33,3.39-5,5.09Z"/><path class="cls-3" d="M68.2,57.87v35.3c0,2.43-.27,2.7-2.66,2.71-3.63,0-3.63,0-3.63-3.61,0-9,0-18.09,0-27.14A3.21,3.21,0,0,1,63,62.6c1.66-1.62,3.22-3.33,4.82-5Z"/><path class="cls-4" d="M46,45.49V13c0-2.18.48-2.65,2.66-2.66,3.69,0,3.69,0,3.69,3.59,0,8.12,0,16.24,0,24.35a2.88,2.88,0,0,1-.93,2.3C49.7,42.25,48,44,46.36,45.73Z"/><path class="cls-5" d="M84,30.48l-5.52-5.65c.15-.18.36-.49.61-.76q5.48-5.54,11-11.07c1.36-1.38,2-1.37,3.38,0,.85.87,1.67,1.77,2.52,2.63a1.73,1.73,0,0,1,0,2.78Z"/><path class="cls-6" d="M33.46,7.27c-.28-2.72.13-3.2,2.55-3.2q13.18,0,26.38,0c2.39,0,2.86.56,2.49,3.15-3.31-.19-5.75,1-6.24,4.71H55.73c-1.12-3.8-2.28-4.67-6.27-4.66a11.43,11.43,0,0,0-3.32.24c-2.06.62-3.08,2.23-3.31,4.41h-3C39.28,8.35,37,7,33.46,7.27Z"/><path class="cls-7" d="M52.34,73.66v10.6c0,3.21,0,6.41,0,9.62,0,1.32-.53,2-1.89,2-4.41.17-4.47.13-4.47-4.3,0-3.6,0-7.19,0-10.78a3.32,3.32,0,0,1,.81-2C48.49,77,50.25,75.24,52,73.48Z"/><path class="cls-8" d="M61.91,29.65V12a1,1,0,0,1,.05-.43c1-2.08,2.89-1,4.4-1.2A1.54,1.54,0,0,1,68.18,12c0,3.74,0,7.48,0,11.23a1.4,1.4,0,0,1-.35.9C66,26.06,64.12,28,62.25,29.84Z"/><path class="cls-9" d="M13.93,46.69,28.29,32.41c.95,2.16-.08,6.56-2.44,9.44A12.79,12.79,0,0,1,13.93,46.69Z"/><path class="cls-10" d="M18,21.63,3.45,36.17A12.15,12.15,0,0,1,6.39,26,12.43,12.43,0,0,1,18,21.63Z"/><path class="cls-11" d="M5.86,41.47c-1.4-1.54-1.4-1.54.18-3.11L20.17,24.24c1.51-1.52,1.51-1.52,3.12-.2Z"/><path class="cls-12" d="M10.19,45.35,8.44,44.2,26,26.64l1.15,1.74Z"/><path class="cls-13" d="M30.6,95.12l5.93-5.82c0,1.82,0,3.56,0,5.3a1.44,1.44,0,0,1-.52.84C35.14,96.24,31.48,96,30.6,95.12Z"/></svg>