<svg id="Layer_1" data-name="Layer 1" xmlns="http://www.w3.org/2000/svg" xmlns:xlink="http://www.w3.org/1999/xlink" viewBox="0 0 100 100"><defs><style>.cls-1{fill:url(#linear-gradient);}.cls-2{fill:url(#linear-gradient-2);}.cls-3{fill:url(#linear-gradient-3);}.cls-4{fill:url(#linear-gradient-4);}.cls-5{fill:url(#linear-gradient-5);}</style><linearGradient id="linear-gradient" x1="50" y1="107.85" x2="50" y2="14.88" gradientUnits="userSpaceOnUse"><stop offset="0" stop-color="#af193d"/><stop offset="1" stop-color="#ff3270"/></linearGradient><linearGradient id="linear-gradient-2" x1="47.76" y1="107.85" x2="47.76" y2="14.88" xlink:href="#linear-gradient"/><linearGradient id="linear-gradient-3" x1="7.76" y1="107.85" x2="7.76" y2="14.88" xlink:href="#linear-gradient"/><linearGradient id="linear-gradient-4" x1="92.24" y1="107.85" x2="92.24" y2="14.88" xlink:href="#linear-gradient"/><linearGradient id="linear-gradient-5" x1="51.28" y1="107.85" x2="51.28" y2="14.88" xlink:href="#linear-gradient"/></defs><g id="Captivating_Experience" data-name="Captivating Experience"><path class="cls-1" d="M83.39,66.48H68.76c0-2.37,0-4.64,0-6.91,0-4.66-2.55-6.41-7.32-5-2-2.94-3.53-3.49-7.13-2.51-2.83-3.17-3.71-3.49-7.41-2.52,0-3,.05-5.94,0-8.87-.08-3.53-3.66-5.5-7-3.87a3.82,3.82,0,0,0-2.26,3.76c0,6.18,0,12.36,0,18.54v1.32a25.93,25.93,0,0,0-4.24-3.72,4.82,4.82,0,0,0-3.62.16c-5.46,2.49-2.4,6.1-1.07,9.59H16.61v-54H83.39ZM25.84,30.8c.14,1.5,1.26,1,2.09.5,1.85-1.16,3.59-1.47,5.53-.16a5.89,5.89,0,0,0,2.09.41,4.84,4.84,0,0,0,.11-1.84,3.63,3.63,0,0,1,1.61-4.56c.53-.37.75-1.1,1.11-1.67a7.17,7.17,0,0,0-2-.72c-2.11-.05-3.44-.85-4.09-2.72-.21-.59-.9-1-1.37-1.56-.52.54-1.29,1-1.51,1.62a3.79,3.79,0,0,1-4.13,2.65,3.9,3.9,0,0,0-.75.12c-1.49.32-1.8,1-.59,1.82,2.15,1.51,2.82,3.28,2,5.59A2.3,2.3,0,0,0,25.84,30.8Zm19.21-.47c-.1,1.45.51,1.88,1.92,1a5,5,0,0,1,6,0c.39.26,1.38.41,1.54.22A1.87,1.87,0,0,0,54.88,30a4,4,0,0,1,1.88-5.13c.4-.26.56-.85.83-1.28-.52-.26-1-.74-1.56-.75-2.46,0-4.05-1-4.83-3.15-.16-.48-.78-.81-1.19-1.22-.42.4-1,.74-1.21,1.21a4.45,4.45,0,0,1-4.62,3.14c-.58,0-1.18.49-1.77.75a5.6,5.6,0,0,0,1.1,1.53c1.7,1.19,2.42,2.61,1.64,4.53A2.61,2.61,0,0,0,45.05,30.33Zm19.16.05c-.07,1.43.53,1.81,2,.94,2-1.21,3.86-1.45,5.87,0,.42.3,1.17.22,1.76.32.09-.55.39-1.16.22-1.64-.74-2.1-.14-3.69,1.79-5,.44-.3.62-.94.92-1.42-.54-.25-1.07-.71-1.61-.71-2.48,0-4-1-4.8-3.19-.17-.46-.8-.78-1.22-1.17-.4.42-1,.77-1.18,1.25a4.43,4.43,0,0,1-4.65,3.1,5,5,0,0,0-1.67.63c.32.53.49,1.23,1,1.56,1.87,1.27,2.5,2.82,1.7,4.84A2.18,2.18,0,0,0,64.21,30.38Z"/><path class="cls-2" d="M39.57,52.93c0-4,0-7.94,0-11.9,0-2.14.85-3.06,2.72-3S45,39,45,41.1c0,6.47,0,12.95,0,19.42a3.71,3.71,0,0,0,.13,1.38,1.28,1.28,0,0,0,.87.42c.37-.33.84-.77.85-1.18.08-2.45,0-4.9,0-7.35,0-2,.88-2.93,2.64-2.93s2.69,1,2.71,2.92c0,3-.06,5.95.05,8.92,0,.65.61,1.29.94,1.93a6.44,6.44,0,0,0,.87-2c.11-2.21,0-4.43.05-6.65a2.38,2.38,0,0,1,2.63-2.58,2.42,2.42,0,0,1,2.72,2.54c.06,3.09,0,6.19.06,9.28,0,.55.57,1.09.87,1.64.33-.54.92-1.06.95-1.6.1-2.33,0-4.67.06-7a2.24,2.24,0,0,1,2.44-2.39c1.68-.1,2.9.67,2.89,2.15-.06,6.85.86,13.77-1.72,20.46-2.16,5.62-2.11,5.63-8.6,5.63-4.79,0-9.58-.06-14.37,0a2.94,2.94,0,0,1-3-1.59C36.22,77,33.37,71.49,30.57,66c-.64-1.27-1.16-2.59-1.69-3.9a2.62,2.62,0,0,1,1.69-3.71,3,3,0,0,1,4.1,1.46c1,2,1.84,4.09,2.84,6.1.22.44.84.72,1.27,1.07.27-.49.75-1,.76-1.45C39.6,61.33,39.57,57.13,39.57,52.93Z"/><path class="cls-3" d="M14.38,66.53c-2.53,0-4.89.11-7.24,0C3.93,66.29,1.23,64,1.21,61q-.15-21.6,0-43.22c0-2.93,2.73-5.24,5.94-5.44,2.35-.15,4.71,0,7.23,0ZM8.77,39.44c0-1.57.06-3.15,0-4.71,0-.45-.56-.87-.85-1.3-.33.4-.93.8-.94,1.21q-.12,4.8,0,9.59c0,.41.61.81.94,1.21.29-.43.82-.85.85-1.29C8.83,42.58,8.77,41,8.77,39.44Z"/><path class="cls-4" d="M85.62,12.35c2.53,0,4.89-.12,7.24,0,3.21.2,5.91,2.51,5.93,5.45q.15,21.6,0,43.22c0,2.93-2.72,5.24-5.94,5.45-2.34.14-4.71,0-7.23,0Zm7.49,30.57c0-1.57.07-3.15,0-4.71,0-.44-.57-.85-.87-1.28-.32.41-.91.81-.92,1.23-.08,3.19-.08,6.4,0,9.59,0,.41.63.8,1,1.19.29-.43.8-.86.83-1.31C93.18,46.07,93.11,44.49,93.11,42.92Zm.41-11.27-1.25-1.72c-.35.5-1,1-1,1.5s.55,1.17.86,1.76Z"/><path class="cls-5" d="M40.83,94.49V85.94h20.9v8.55Z"/></g></svg>