<svg id="Layer_1" data-name="Layer 1" xmlns="http://www.w3.org/2000/svg" xmlns:xlink="http://www.w3.org/1999/xlink" viewBox="0 0 100 100"><defs><style>.cls-1{fill:url(#linear-gradient);}.cls-2{fill:url(#linear-gradient-2);}.cls-3{fill:url(#linear-gradient-3);}.cls-4{fill:url(#linear-gradient-4);}.cls-5{fill:url(#linear-gradient-5);}.cls-6{fill:url(#linear-gradient-6);}</style><linearGradient id="linear-gradient" x1="60.85" y1="107.85" x2="60.85" y2="14.88" gradientUnits="userSpaceOnUse"><stop offset="0" stop-color="#af193d"/><stop offset="1" stop-color="#ff3270"/></linearGradient><linearGradient id="linear-gradient-2" x1="17.33" y1="107.85" x2="17.33" y2="14.88" xlink:href="#linear-gradient"/><linearGradient id="linear-gradient-3" x1="45.94" y1="107.85" x2="45.94" y2="14.88" xlink:href="#linear-gradient"/><linearGradient id="linear-gradient-4" x1="64.97" y1="107.85" x2="64.97" y2="14.88" xlink:href="#linear-gradient"/><linearGradient id="linear-gradient-5" x1="36.38" y1="107.85" x2="36.38" y2="14.88" xlink:href="#linear-gradient"/><linearGradient id="linear-gradient-6" x1="74.48" y1="107.85" x2="74.48" y2="14.88" xlink:href="#linear-gradient"/></defs><g id="Enhanced_Convinience" data-name="Enhanced Convinience"><path class="cls-1" d="M79.49,85.22c.12.59.25,1.1.33,1.62a8.17,8.17,0,0,1-8.15,9.47c-8.16.08-16.32.06-24.47-.31-5.36-.24-10.47-2-15.55-3.74-.92-.32-.75-1-.75-1.63,0-12,.08-24-.06-36.07,0-2.54.58-3.92,3-5,7.25-3.13,10.45-9.4,12-16.67.68-3.24,1-6.56,1.42-9.86.25-2,1.06-2.81,3-2.92,4.12-.23,7.76.73,10.56,4a10.68,10.68,0,0,1,2.73,7.72c-.25,5.2-.67,10.39-2.6,15.46.58,0,1.09.08,1.59.08,6.47,0,12.94,0,19.41,0a8.57,8.57,0,0,1,8.7,6.82,7.33,7.33,0,0,1-1.33,5.89,1.28,1.28,0,0,0,0,1.75,8.05,8.05,0,0,1-3.54,12.1c-.62.27-.92.46-.79,1.23C85.9,80.11,84.26,83.1,79.49,85.22Z"/><path class="cls-2" d="M9.15,71.83q0-10.5,0-21c0-2.53.95-3.47,3.5-3.48h8.68c3.49,0,4.19.71,4.19,4.26V92.16c0,.39,0,.78,0,1.16-.1,2-1.09,3-3.08,3.05q-5.07,0-10.14,0c-2.14,0-3.14-1.05-3.14-3.26Q9.14,82.48,9.15,71.83Z"/><path class="cls-3" d="M41.86,6.24a2.52,2.52,0,0,1,1.85-2.45,2.39,2.39,0,0,1,3,1A61.64,61.64,0,0,1,49.82,11a2.4,2.4,0,0,1-1.18,3.09,2.38,2.38,0,0,1-3.26-.46c-1.3-2.19-2.34-4.52-3.47-6.8A1.91,1.91,0,0,1,41.86,6.24Z"/><path class="cls-4" d="M63.83,14.75c-2.12-.22-3.51-2.16-2.71-4C62,8.77,63,6.84,64,4.94a2.6,2.6,0,0,1,3.52-1,2.6,2.6,0,0,1,1.27,3.43,59.5,59.5,0,0,1-2.94,5.8C65.47,13.85,64.53,14.23,63.83,14.75Z"/><path class="cls-5" d="M36.4,25.38c-1,0-1.92.05-2.88,0a2.7,2.7,0,0,1-2.59-2.45,2.47,2.47,0,0,1,2-2.77,39.41,39.41,0,0,1,6.87,0,2.49,2.49,0,0,1,2.05,2.74,2.73,2.73,0,0,1-2.7,2.5C38.23,25.42,37.31,25.38,36.4,25.38Z"/><path class="cls-6" d="M74.54,25.38c-1,0-1.93,0-2.89,0a2.64,2.64,0,0,1-2.55-2.32c-.17-1.43.52-2.77,2-2.9a35.15,35.15,0,0,1,6.88,0c1.44.14,2.1,1.47,1.91,2.93a2.58,2.58,0,0,1-2.57,2.28C76.38,25.42,75.46,25.38,74.54,25.38Z"/></g></svg>