<svg id="Layer_1" data-name="Layer 1" xmlns="http://www.w3.org/2000/svg" xmlns:xlink="http://www.w3.org/1999/xlink" viewBox="0 0 100 100"><defs><style>.cls-1{fill:url(#linear-gradient);}.cls-2{fill:url(#linear-gradient-2);}.cls-3{fill:url(#linear-gradient-3);}.cls-4{fill:url(#linear-gradient-4);}.cls-5{fill:url(#linear-gradient-5);}.cls-6{fill:url(#linear-gradient-6);}.cls-7{fill:url(#linear-gradient-7);}</style><linearGradient id="linear-gradient" x1="52.08" y1="107.85" x2="52.08" y2="14.88" gradientUnits="userSpaceOnUse"><stop offset="0" stop-color="#af193d"/><stop offset="1" stop-color="#ff3270"/></linearGradient><linearGradient id="linear-gradient-2" x1="52.07" y1="107.85" x2="52.07" y2="14.88" xlink:href="#linear-gradient"/><linearGradient id="linear-gradient-3" x1="64.19" y1="107.85" x2="64.19" y2="14.88" xlink:href="#linear-gradient"/><linearGradient id="linear-gradient-4" x1="39.96" y1="107.85" x2="39.96" y2="14.88" xlink:href="#linear-gradient"/><linearGradient id="linear-gradient-5" x1="52.05" y1="107.85" x2="52.05" y2="14.88" xlink:href="#linear-gradient"/><linearGradient id="linear-gradient-6" x1="52.09" y1="107.85" x2="52.09" y2="14.88" xlink:href="#linear-gradient"/><linearGradient id="linear-gradient-7" x1="52.06" y1="107.85" x2="52.06" y2="14.88" xlink:href="#linear-gradient"/></defs><g id="Expert_Assistance" data-name="Expert Assistance"><path class="cls-1" d="M75.25,46.84h6.66c1,0,1.5.42,1.49,1.45q0,18.49,0,37a3.78,3.78,0,0,1-.16.53H81.55c-6.57,0-13.14,0-19.7,0-1.39,0-2.37.14-2.3,1.91.05,1-.69,1.62-1.79,1.62H46.4a1.61,1.61,0,0,1-1.81-1.78c.07-1.52-.72-1.75-2-1.75-6.71,0-13.43,0-20.15,0H20.84c0-.68-.08-1.22-.08-1.76q0-17.43,0-34.85c0-2.21.14-2.35,2.29-2.35s4,0,6.32,0c-2.8,4.87-1.65,10-1.83,15.09-.12,3.38,0,6.76,0,10.15,0,2.38,0,2.39,2.34,2.39H73.64c.46,0,.91,0,1.36,0,1.22.08,1.72-.45,1.71-1.7,0-6.51.09-13-.08-19.54C76.57,51.14,75.75,49.06,75.25,46.84Z"/><path class="cls-2" d="M39.9,30.41a34.8,34.8,0,0,1-5.66-.1,2.9,2.9,0,0,1-1.82-2,51.38,51.38,0,0,1-.08-6.8,2.17,2.17,0,0,1,2.09-2.2,1.33,1.33,0,0,0,1.39-1.21A16.6,16.6,0,0,1,51.75,5.79c8,0,14.49,4.71,16.6,12.2.24.84.5,1.23,1.47,1.32a2.13,2.13,0,0,1,2,2.25c0,2.17,0,4.34,0,6.51a2.41,2.41,0,0,1-2,2.37c-.39.13-1,.46-1,.78a5.73,5.73,0,0,1-4.29,4.64c-2.39.73-4.92,1-7.37,1.52a5.46,5.46,0,0,0-1.52.88s-.05.09-.08.13c-1.82,2.14-4.25.94-6.41,1.08-1.3.09-2-1-2.25-2.25a1.3,1.3,0,0,0-.59-.74C42.5,34.15,41.82,33.5,39.9,30.41ZM56,34.64A11.18,11.18,0,0,0,63.52,23C62.84,17.09,58.4,12.83,53,12.56a11.4,11.4,0,0,0-5.82,21.67C49.35,32.06,54.32,32.25,56,34.64Zm9.79-15.19.35-.44c-1.08-6.29-7.45-11.07-14.59-11-6.52.11-12.71,5.14-13.4,11.24a2.09,2.09,0,0,0,1.24-.78c2.6-5.3,6.81-8.29,12.7-8.27s10,2.95,12.58,8.21C64.91,18.86,65.45,19.12,65.83,19.45ZM64.62,30l-3.26,4.33c2.94-.28,4.76-1.6,5.24-3.74Z"/><path class="cls-3" d="M74.28,72.23h-7c0-.55-.08-1.08-.09-1.61V60c0-.84,0-1.75-1.16-1.77s-1.17.88-1.17,1.73v12.2H58.43V65.11c0-.91,0-1.82,0-2.72,0-1.21-.51-1.77-1.75-1.68-.85,0-1.71,0-2.72,0a9.89,9.89,0,0,1,.32-1.21c2.2-5.19,4.43-10.37,6.59-15.58a1.51,1.51,0,0,1,1.65-1.1c5.94,0,10.07,2.84,11.55,8.22a10.22,10.22,0,0,1,.33,2.69c0,5.81,0,11.61,0,17.42A9,9,0,0,1,74.28,72.23Z"/><path class="cls-4" d="M50.12,60.72H48.05c-2.21,0-2.27.06-2.27,2.33V72.2H39.36V61.12a4.15,4.15,0,0,0,0-1.5,6.68,6.68,0,0,0-1.08-1.39c-.42.47-1.15.91-1.19,1.4-.15,1.76-.06,3.53-.06,5.3v7.24H29.83c0-.48-.08-.92-.09-1.36,0-5.56,0-11.11,0-16.67,0-7,5.28-11.82,12.28-11.27a1.39,1.39,0,0,1,1,.61c2.41,5.6,4.77,11.22,7.13,16.84C50.21,60.4,50.15,60.51,50.12,60.72Z"/><path class="cls-5" d="M62,88.07H84.83a25.06,25.06,0,0,1,0,4.34,2.88,2.88,0,0,1-2.69,2.31c-.6.06-1.21,0-1.82,0H24.35c-4.4,0-5.2-.81-5.15-5.22,0-.45.05-.89.08-1.43h22.9c1.25,3,2,3.49,5.34,3.49h9.09C60,91.61,60.73,91.14,62,88.07Z"/><path class="cls-6" d="M58.86,43c-2.24,5.28-4.42,10.41-6.76,15.95L45.33,43Z"/><path class="cls-7" d="M48.11,72.17V63H56v9.15Z"/></g></svg>