<svg id="Layer_1" data-name="Layer 1" xmlns="http://www.w3.org/2000/svg" xmlns:xlink="http://www.w3.org/1999/xlink" viewBox="0 0 100 100"><defs><style>.cls-1{fill:url(#linear-gradient);}.cls-2{fill:url(#linear-gradient-2);}.cls-3{fill:url(#linear-gradient-3);}.cls-4{fill:url(#linear-gradient-4);}.cls-5{fill:url(#linear-gradient-5);}.cls-6{fill:url(#linear-gradient-6);}.cls-7{fill:url(#linear-gradient-7);}.cls-8{fill:url(#linear-gradient-8);}.cls-9{fill:url(#linear-gradient-9);}.cls-10{fill:url(#linear-gradient-10);}</style><linearGradient id="linear-gradient" x1="42.3" y1="107.85" x2="42.3" y2="14.88" gradientUnits="userSpaceOnUse"><stop offset="0" stop-color="#af193d"/><stop offset="1" stop-color="#ff3270"/></linearGradient><linearGradient id="linear-gradient-2" x1="68.73" y1="107.85" x2="68.73" y2="14.88" xlink:href="#linear-gradient"/><linearGradient id="linear-gradient-3" x1="30.7" y1="107.85" x2="30.7" y2="14.88" xlink:href="#linear-gradient"/><linearGradient id="linear-gradient-4" x1="68.67" y1="107.85" x2="68.67" y2="14.88" xlink:href="#linear-gradient"/><linearGradient id="linear-gradient-5" x1="87.54" y1="107.85" x2="87.54" y2="14.88" xlink:href="#linear-gradient"/><linearGradient id="linear-gradient-6" x1="12.26" y1="107.85" x2="12.26" y2="14.88" xlink:href="#linear-gradient"/><linearGradient id="linear-gradient-7" x1="50.52" y1="107.85" x2="50.52" y2="14.88" xlink:href="#linear-gradient"/><linearGradient id="linear-gradient-8" x1="55.41" y1="107.85" x2="55.41" y2="14.88" xlink:href="#linear-gradient"/><linearGradient id="linear-gradient-9" x1="45.49" y1="107.85" x2="45.49" y2="14.88" xlink:href="#linear-gradient"/><linearGradient id="linear-gradient-10" x1="33.7" y1="107.85" x2="33.7" y2="14.88" xlink:href="#linear-gradient"/></defs><g id="Thrilling_Matches" data-name="Thrilling Matches"><path class="cls-1" d="M55.78,39.94c0,2.65,0,5,0,7.38,0,3.72,2,5.7,5.73,5.71l7.81,0a2.29,2.29,0,0,1,.48.19c-.42.46-.78.89-1.17,1.28q-19.5,19.5-39,39a2.49,2.49,0,0,1-3.09.7A18.83,18.83,0,0,1,15,82.46a1.91,1.91,0,0,1,.35-2.33q19.87-19.81,39.7-39.67C55.2,40.35,55.34,40.27,55.78,39.94Z"/><path class="cls-2" d="M52.4,75.56,66.17,61.73c2.65,2.69,5.34,5.42,8,8.14,3.36,3.38,6.72,6.76,10.13,10.1a1.92,1.92,0,0,1,.55,2.29c-2.17,6.13-6.25,10.28-12.51,12.16a1.83,1.83,0,0,1-1.53-.31Q61.68,85,52.58,75.85A.85.85,0,0,1,52.4,75.56Z"/><path class="cls-3" d="M32.84,49.84h-1c-5.77,0-5.83,0-9.59-4.37A6.18,6.18,0,0,1,21,42a28.22,28.22,0,0,1,.43-6.15c.13-.79,1-1.45,1.49-2.19,1.63-2.47,4.16-2.65,6.82-3.18,5.17-1,7.57,2.49,10.43,5.42a2,2,0,0,1,.28,1.22c0,3.42,0,6.83,0,10.25,0,1.91-.61,2.48-2.54,2.5Z"/><path class="cls-4" d="M66.52,49.84H61a1.79,1.79,0,0,1-2-2c0-3.69,0-7.37,0-11.06a1.41,1.41,0,0,1,.21-.91A66.44,66.44,0,0,1,64.41,31c.71-.55,1.94-.49,2.94-.59.58-.07,1.2.19,1.78.12,3.6-.39,6.18,1.29,8.26,4,.1.13.31.23.32.36a54.44,54.44,0,0,1,.64,7.72c0,1.22-1.16,2.45-1.92,3.58a8.08,8.08,0,0,1-8.77,3.66A6.19,6.19,0,0,0,66.52,49.84Z"/><path class="cls-5" d="M80.74,33.16l-4.51-4.39c1.16-1.13,2.33-2.24,3.48-3.38L93.62,11.48c1.37-1.36,1.68-1.37,3,0,2.78,2.81,3,2.43.08,5.35-5,5-10,10-14.94,15A14.92,14.92,0,0,0,80.74,33.16Z"/><path class="cls-6" d="M18.88,32.69,4.39,18.09c-.84-.84-1.69-1.68-2.53-2.53-.23-.23-.58-.45-.64-.72-.48-2.16,1.66-2.66,2.6-3.91.63-.83,1.43-.46,2.08.2l4,4L23.37,28.52Z"/><path class="cls-7" d="M46.88,6.59c2,8.8,4.61,11.4,12.48,12.39-.78,3-4.78,5.48-8.59,5.35a9.53,9.53,0,0,1-8.91-7.66A9.12,9.12,0,0,1,46.88,6.59Z"/><path class="cls-8" d="M50.46,5.56c5.61-.62,10.79,4.57,9.94,9.86C54.78,16.74,49.37,11.45,50.46,5.56Z"/><path class="cls-9" d="M43.68,39.66l3.63,3.93-3.63,3.35Z"/><path class="cls-10" d="M33.85,56.63,30,53.13h7.41Z"/></g></svg>