<svg id="Layer_1" data-name="Layer 1" xmlns="http://www.w3.org/2000/svg" xmlns:xlink="http://www.w3.org/1999/xlink" viewBox="0 0 100 100"><defs><style>.cls-1{fill:url(#linear-gradient);}.cls-2{fill:url(#linear-gradient-2);}.cls-3{fill:url(#linear-gradient-3);}.cls-4{fill:url(#linear-gradient-4);}.cls-5{fill:url(#linear-gradient-5);}.cls-6{fill:url(#linear-gradient-6);}.cls-7{fill:url(#linear-gradient-7);}.cls-8{fill:url(#linear-gradient-8);}.cls-9{fill:url(#linear-gradient-9);}.cls-10{fill:url(#linear-gradient-10);}</style><linearGradient id="linear-gradient" x1="50" y1="94.91" x2="50" y2="9.12" gradientUnits="userSpaceOnUse"><stop offset="0" stop-color="#af193d"/><stop offset="1" stop-color="#ff3270"/></linearGradient><linearGradient id="linear-gradient-2" x1="25.48" y1="94.91" x2="25.48" y2="9.12" xlink:href="#linear-gradient"/><linearGradient id="linear-gradient-3" x1="27" y1="94.91" x2="27" y2="9.12" xlink:href="#linear-gradient"/><linearGradient id="linear-gradient-4" x1="73.01" y1="94.91" x2="73.01" y2="9.12" xlink:href="#linear-gradient"/><linearGradient id="linear-gradient-5" x1="82.86" y1="94.91" x2="82.86" y2="9.12" xlink:href="#linear-gradient"/><linearGradient id="linear-gradient-6" x1="74.56" y1="94.91" x2="74.56" y2="9.12" xlink:href="#linear-gradient"/><linearGradient id="linear-gradient-7" x1="25.44" y1="94.91" x2="25.44" y2="9.12" xlink:href="#linear-gradient"/><linearGradient id="linear-gradient-8" x1="74.56" y1="94.91" x2="74.56" y2="9.12" xlink:href="#linear-gradient"/><linearGradient id="linear-gradient-9" x1="23.66" y1="94.91" x2="23.66" y2="9.12" xlink:href="#linear-gradient"/><linearGradient id="linear-gradient-10" x1="61.96" y1="94.91" x2="61.96" y2="9.12" xlink:href="#linear-gradient"/></defs><g id="Community_Engagement" data-name="Community Engagement"><path class="cls-1" d="M28.54,50.07A21.47,21.47,0,1,1,49.87,71.63,21.45,21.45,0,0,1,28.54,50.07Zm16.72,4.28c-.61-.73-1.1-1.41-1.67-2a1.48,1.48,0,0,0-2.32-.1,1.45,1.45,0,0,0,.13,2.21c.78.79,1.56,1.58,2.35,2.36,1.37,1.36,2,1.36,3.34,0L58.18,45.7a3.65,3.65,0,0,0,.63-.71,1.69,1.69,0,0,0-.51-1.73,1.39,1.39,0,0,0-1.39-.36,3.21,3.21,0,0,0-1.14.86Z"/><path class="cls-2" d="M11.47,37.51A17.23,17.23,0,0,1,7.7,30.39a18.49,18.49,0,0,1,14.78-23c10.89-1.86,21.3,6.81,21.4,17.79a1.48,1.48,0,0,1-1.16,1.67,37.82,37.82,0,0,0-6.22,3c-1.19.74-2,1-3.14.07a6.78,6.78,0,0,0-1-.55c3-2.86,4.37-6.28,3.61-10.38a10.33,10.33,0,0,0-4.22-6.62,10.75,10.75,0,0,0-13.38,16.8,28.63,28.63,0,0,0-4.16,3.48A30.82,30.82,0,0,0,11.47,37.51Z"/><path class="cls-3" d="M42.93,86.47c-.55-.49-1.15-.94-1.65-1.48a1.4,1.4,0,0,1,0-2.11,1.36,1.36,0,0,1,2.09,0c1.57,1.51,3.12,3,4.62,4.62a1.5,1.5,0,0,1-.08,2.24c-1.46,1.49-2.94,3-4.42,4.42a1.45,1.45,0,0,1-2.22.11,1.47,1.47,0,0,1,.12-2.32c.57-.54,1.22-1,2.06-1.67-2.82-.5-5.2-.75-7.48-1.37C20.54,84.66,10.71,74.8,6.67,59.32a54.74,54.74,0,0,1-1.12-8.51c-.14-1.43.5-2.24,1.52-2.17,1.24.1,1.5,1,1.52,2.06A36.9,36.9,0,0,0,39.38,86.48c1.12.19,2.26.25,3.4.38Z"/><path class="cls-4" d="M57.16,13.68c.5.52,1,1,1.5,1.57a1.45,1.45,0,0,1,0,2.22,1.42,1.42,0,0,1-2.2-.08c-1.49-1.46-3-2.93-4.42-4.43a1.53,1.53,0,0,1,0-2.34C53.53,9.16,55,7.73,56.42,6.3a1.47,1.47,0,0,1,2.32-.1,1.5,1.5,0,0,1-.22,2.32,14.21,14.21,0,0,0-1.64,1.65A41.47,41.47,0,0,1,71,13.83c12.63,6,20.34,16,22.87,29.79a49.09,49.09,0,0,1,.57,6.07c.08,1.3-.58,2.08-1.56,2-1.15-.11-1.46-.89-1.49-2-.51-17.18-11.52-31-28.09-35.32-2-.51-4-.71-6-1.05Z"/><path class="cls-5" d="M88.25,86.9a11.2,11.2,0,0,0-6.83-8.44c3.89-3.93,5.07-8.37,2.54-13.39-2-4-6-6-11.17-5.64a16.73,16.73,0,0,1,.86-2.59c.15-.31.79-.51,1.22-.51A18.35,18.35,0,0,1,89.28,85.68C89,86,88.7,86.37,88.25,86.9Z"/><path class="cls-6" d="M82.22,91.48c0-1.15,0-2,0-2.81A1.47,1.47,0,0,0,80.71,87a1.42,1.42,0,0,0-1.53,1.59,10.32,10.32,0,0,0,0,2.08c.26,1.49-.39,2.2-1.8,2.19-2.16,0-4.32-.12-6.48-.18-.8,0-1-.49-1-1.2a25.78,25.78,0,0,0,0-2.78c-.06-1-.5-1.74-1.61-1.7s-1.47.78-1.44,1.81c0,.77,0,1.55,0,2.35-2.69-.58-3.49-1.76-3-4.27a7.38,7.38,0,0,1,6.64-6,52.63,52.63,0,0,1,8,0,7.51,7.51,0,0,1,6.64,7.89A1.66,1.66,0,0,1,84.71,90C84,90.51,83.23,90.89,82.22,91.48Z"/><path class="cls-7" d="M33.09,21.13a7.62,7.62,0,0,1-7.74,7.56,7.67,7.67,0,1,1,.22-15.33A7.57,7.57,0,0,1,33.09,21.13Z"/><path class="cls-8" d="M75.47,77.74c-5.76,0-9.4-4.36-8.46-9a5.33,5.33,0,0,1,.93-1.8c.39-.57.91-1,1.34-1.59a6.9,6.9,0,0,1,11.12-.13,7.28,7.28,0,0,1,1.07,8.17A7.1,7.1,0,0,1,75.47,77.74Z"/><path class="cls-9" d="M17.79,42.17c-3.65-1.51-3.4-1.6-2.83-4.43a7.42,7.42,0,0,1,7.22-5.94c2.27,0,4.55-.08,6.81,0a24.07,24.07,0,0,1,3.69.82,22.81,22.81,0,0,0-2.12,2.61c-1.37,2.5-2.72,5-3.9,7.61-.39.87-.72,1.28-1.66,1.14-1.36-.19-2.72-.33-4.16-.5V39.71c0-1-.4-1.77-1.5-1.77s-1.54.71-1.55,1.73C17.78,40.46,17.79,41.24,17.79,42.17Z"/><path class="cls-10" d="M60.8,86.91a18.3,18.3,0,0,1-4.65-12.76l7.67-3.42a11.06,11.06,0,0,0,3.95,7.7A11.27,11.27,0,0,0,60.8,86.91Z"/></g></svg>