<svg id="Layer_1" data-name="Layer 1" xmlns="http://www.w3.org/2000/svg" xmlns:xlink="http://www.w3.org/1999/xlink" viewBox="0 0 100 100"><defs><style>.cls-1{fill:url(#linear-gradient);}.cls-2{fill:url(#linear-gradient-2);}.cls-3{fill:url(#linear-gradient-3);}.cls-4{fill:url(#linear-gradient-4);}.cls-5{fill:url(#linear-gradient-5);}.cls-6{fill:url(#linear-gradient-6);}.cls-7{fill:url(#linear-gradient-7);}.cls-8{fill:url(#linear-gradient-8);}.cls-9{fill:url(#linear-gradient-9);}.cls-10{fill:url(#linear-gradient-10);}.cls-11{fill:url(#linear-gradient-11);}.cls-12{fill:url(#linear-gradient-12);}</style><linearGradient id="linear-gradient" x1="28.06" y1="94.91" x2="28.06" y2="9.12" gradientUnits="userSpaceOnUse"><stop offset="0" stop-color="#af193d"/><stop offset="1" stop-color="#ff3270"/></linearGradient><linearGradient id="linear-gradient-2" x1="28.08" y1="94.91" x2="28.08" y2="9.12" xlink:href="#linear-gradient"/><linearGradient id="linear-gradient-3" x1="83.06" y1="94.91" x2="83.06" y2="9.12" xlink:href="#linear-gradient"/><linearGradient id="linear-gradient-4" x1="62.32" y1="94.91" x2="62.32" y2="9.12" xlink:href="#linear-gradient"/><linearGradient id="linear-gradient-5" x1="52.74" y1="94.91" x2="52.74" y2="9.12" xlink:href="#linear-gradient"/><linearGradient id="linear-gradient-6" x1="66.09" y1="94.91" x2="66.09" y2="9.12" xlink:href="#linear-gradient"/><linearGradient id="linear-gradient-7" x1="28.07" y1="94.91" x2="28.07" y2="9.12" xlink:href="#linear-gradient"/><linearGradient id="linear-gradient-8" x1="47" y1="94.91" x2="47" y2="9.12" xlink:href="#linear-gradient"/><linearGradient id="linear-gradient-9" x1="9.14" y1="94.91" x2="9.14" y2="9.12" xlink:href="#linear-gradient"/><linearGradient id="linear-gradient-10" x1="45.22" y1="94.91" x2="45.22" y2="9.12" xlink:href="#linear-gradient"/><linearGradient id="linear-gradient-11" x1="28.08" y1="94.91" x2="28.08" y2="9.12" xlink:href="#linear-gradient"/><linearGradient id="linear-gradient-12" x1="66.11" y1="94.91" x2="66.11" y2="9.12" xlink:href="#linear-gradient"/></defs><g id="Thrilling_competition" data-name="Thrilling competition"><path class="cls-1" d="M41.55,13.46v1q0,9.23,0,18.45a13.45,13.45,0,0,1-26,5,15,15,0,0,1-1-5c-.11-6.15,0-12.3-.06-18.45,0-.75.14-1.13,1-1.13,8.39,0,16.79,0,25.18,0C41,13.4,41.2,13.43,41.55,13.46Z"/><path class="cls-2" d="M28,94.67c-5.28,0-10.55,0-15.82,0-1,0-1.21-.28-1.21-1.22,0-7.74,0-15.48,0-23.22,0-1.51.36-1.87,1.88-1.87H43.31c1.44,0,1.85.4,1.85,1.82,0,7.77,0,15.54,0,23.31,0,.89-.25,1.18-1.16,1.18C38.69,94.65,33.35,94.67,28,94.67Zm.08-22.81h0c-2.52,0-5.05,0-7.57,0a5.27,5.27,0,0,0,.09,10.54q7.47,0,15,0a5.47,5.47,0,0,0,1.92-.34,5.21,5.21,0,0,0,3.2-6,5.06,5.06,0,0,0-4.93-4.19C33.22,71.81,30.66,71.86,28.1,71.86Z"/><path class="cls-3" d="M69.75,57.12c2.73-8,5.43-15.8,8.12-23.65q4.35-12.64,8.71-25.3c.06-.18.12-.35.19-.53.37-.95.52-1,1.25-.25,2.62,2.64,5.21,5.3,7.85,7.9A1.44,1.44,0,0,1,96.23,17q-4,11.58-8,23.17t-7.92,23a4.55,4.55,0,0,1-.56.91,5.27,5.27,0,0,1-.79-.7,15.87,15.87,0,0,0-8.36-6C70.34,57.33,70.09,57.24,69.75,57.12Z"/><path class="cls-4" d="M65.2,5.68H83.82c1.33,0,1.38.07,1,1.3-1,2.89-2,5.77-3,8.67a1,1,0,0,1-1.12.81q-13.67,0-27.32,0a1.12,1.12,0,0,1-1.06-.53A1.83,1.83,0,0,0,51,15.4q-3.22-.08-6.45,0c-.69,0-1-.21-.93-.91s0-1.25,0-1.87a1.19,1.19,0,0,0-1.34-1.33c-.71,0-1.43,0-2.15,0-.19,0-.53-.13-.54-.22a.85.85,0,0,1,.21-.64c1.81-1.53,3.63-3,5.48-4.52a2.09,2.09,0,0,1,1.16-.21Z"/><path class="cls-5" d="M62.39,57c-1.53.7-3,1.27-4.39,2a14.7,14.7,0,0,0-4.83,4.49,3.78,3.78,0,0,1-.67.59,3.46,3.46,0,0,1-.56-.79q-4.35-12.69-8.68-25.4c-.41-1.23,0-1.84,1.2-2.12a10,10,0,0,0,7.47-6.31,3.74,3.74,0,0,1,.57-.77,3.41,3.41,0,0,1,.57.77q4.66,13.68,9.3,27.38A.39.39,0,0,1,62.39,57Z"/><path class="cls-6" d="M79.77,72.52A13.68,13.68,0,1,1,66.26,58.83,13.65,13.65,0,0,1,79.77,72.52Zm-24.85-.09A11.19,11.19,0,1,0,66.18,61.27,11.19,11.19,0,0,0,54.92,72.43Z"/><path class="cls-7" d="M28.06,66.32q-6.73,0-13.47,0a3.67,3.67,0,0,1-1-.29c.19-.31.29-.76.56-.89a6.27,6.27,0,0,1,2.06-.73c1.11-.12,2.24,0,3.36,0a5.19,5.19,0,0,0,5.1-3.54,24.35,24.35,0,0,0,1.51-9.45c0-.66,0-1.31-.06-2s.19-.92.86-.86a11.75,11.75,0,0,0,1.68,0c1.42-.06,1.42-.07,1.34,1.41a27.9,27.9,0,0,0,.71,8.35A22.39,22.39,0,0,0,31.59,61a5,5,0,0,0,4.93,3.34c1.15,0,2.31,0,3.46,0a2.91,2.91,0,0,1,2.32,1,.82.82,0,0,1,.22.65c-.06.15-.39.23-.61.27a2.9,2.9,0,0,1-.66,0Z"/><path class="cls-8" d="M48.21,19.52H43.64a7.77,7.77,0,0,1,0-1.62.87.87,0,0,1,.69-.51c1.78-.05,3.56,0,5.34,0,.58,0,.76.26.75.8,0,2.75.07,5.5,0,8.24a7.74,7.74,0,0,1-5.64,7.06,1.3,1.3,0,0,1-1.11-.21,1.59,1.59,0,0,1,.42-1.86c3-1.21,4.18-3.54,4.11-6.66C48.18,23,48.21,21.36,48.21,19.52Z"/><path class="cls-9" d="M7.84,19.49c.11,2.6.06,5.07.36,7.5a5.37,5.37,0,0,0,3.54,4.27,1.61,1.61,0,0,1,.69,2.07,1.09,1.09,0,0,1-1,.16,7.69,7.69,0,0,1-5.55-5.77,6.45,6.45,0,0,1-.2-1.58c0-2.62,0-5.24,0-7.86,0-.69.24-.94.92-.93,1.69,0,3.37,0,5.06,0,.87,0,.82.5.84,1.09s0,1.09-.89,1.06C10.45,19.45,9.27,19.49,7.84,19.49Z"/><path class="cls-10" d="M43.67,30V20.83h3.07c-.14,2.22.42,4.46-.51,6.62A4.49,4.49,0,0,1,43.67,30Z"/><path class="cls-11" d="M28,73.92c2.56,0,5.12,0,7.67,0a3,3,0,0,1,3,2.78,3.13,3.13,0,0,1-2.45,3.57,3.64,3.64,0,0,1-.74.07c-5,0-9.92,0-14.88,0a3,3,0,0,1-3.09-2.47,3.13,3.13,0,0,1,1.9-3.74A5.12,5.12,0,0,1,21,73.92c2.34,0,4.68,0,7,0Z"/><path class="cls-12" d="M57,72.51a9.12,9.12,0,1,1,9.09,9.13A9.09,9.09,0,0,1,57,72.51Zm8.36-4.17v8.32c-.41,0-.75,0-1.09,0a1,1,0,0,0-1,1.08,1,1,0,0,0,1.05,1c1.47,0,2.93,0,4.4,0a.94.94,0,0,0,1-1,1,1,0,0,0-1-1c-.36,0-.73,0-1.2-.06V75.54c0-2.62,0-5.23,0-7.85,0-1.08-.32-1.39-1.39-1.41-.81,0-1.62,0-2.43,0s-1.18.31-1.17,1,.52,1,1.2,1Z"/></g></svg>