<svg id="Layer_1" data-name="Layer 1" xmlns="http://www.w3.org/2000/svg" xmlns:xlink="http://www.w3.org/1999/xlink" viewBox="0 0 100 100"><defs><style>.cls-1{fill:url(#linear-gradient);}.cls-2{fill:url(#linear-gradient-2);}.cls-3{fill:url(#linear-gradient-3);}.cls-4{fill:url(#linear-gradient-4);}.cls-5{fill:url(#linear-gradient-5);}</style><linearGradient id="linear-gradient" x1="73.06" y1="94.91" x2="73.06" y2="9.12" gradientUnits="userSpaceOnUse"><stop offset="0" stop-color="#af193d"/><stop offset="1" stop-color="#ff3270"/></linearGradient><linearGradient id="linear-gradient-2" x1="23.83" y1="94.91" x2="23.83" y2="9.12" xlink:href="#linear-gradient"/><linearGradient id="linear-gradient-3" x1="24.86" y1="94.91" x2="24.86" y2="9.12" xlink:href="#linear-gradient"/><linearGradient id="linear-gradient-4" x1="63.91" y1="94.91" x2="63.91" y2="9.12" xlink:href="#linear-gradient"/><linearGradient id="linear-gradient-5" x1="62.38" y1="94.91" x2="62.38" y2="9.12" xlink:href="#linear-gradient"/></defs><g id="User_Friendly_Platform" data-name="User Friendly Platform"><path class="cls-1" d="M73,95.17A23.46,23.46,0,1,1,96.51,71.75,23.47,23.47,0,0,1,73,95.17ZM70.47,83.43a9.29,9.29,0,0,0,6.36-2.58c3.48-3.35,7-6.68,10.4-10.09a5.11,5.11,0,0,0,1.29-2.37,3.62,3.62,0,0,0-1.92-4,3.77,3.77,0,0,0-4.69.75c-3.35,3.21-6.66,6.44-10,9.66-1.18,1.13-1.82,1.13-3,0-1.57-1.53-3.11-3.1-4.7-4.61a3.9,3.9,0,1,0-5.46,5.56c1.71,1.74,3.45,3.44,5.22,5.13A9.33,9.33,0,0,0,70.47,83.43Z"/><path class="cls-2" d="M42,75.21H37.24c-9.52,0-19-.1-28.57.05-3.45,0-5.89-1.54-5-6,1.75-8.78,9.06-16,17.48-17.18,9.58-1.36,18.29,2.89,22.64,11.07a2.92,2.92,0,0,1,.36,1.74C43.5,68.24,42.75,71.6,42,75.21Z"/><path class="cls-3" d="M11.2,34.13A13.67,13.67,0,1,1,24.83,47.87,13.7,13.7,0,0,1,11.2,34.13Z"/><path class="cls-4" d="M77.57,18.57a13.67,13.67,0,0,1-27.33-.12,13.67,13.67,0,1,1,27.33.12Z"/><path class="cls-5" d="M48.88,56.08c-1.66-1.71-3.29-3.32-4.8-5A1.89,1.89,0,0,1,44,49.43,20.94,20.94,0,0,1,57.56,37a21.49,21.49,0,0,1,22.67,6.67c.21.25.38.54.68,1C67.91,42.31,58.32,42.87,48.88,56.08Z"/></g></svg>