<svg id="Layer_1" data-name="Layer 1" xmlns="http://www.w3.org/2000/svg" xmlns:xlink="http://www.w3.org/1999/xlink" viewBox="0 0 100 100"><defs><style>.cls-1{fill:url(#linear-gradient);}.cls-2{fill:url(#linear-gradient-2);}.cls-3{fill:url(#linear-gradient-3);}.cls-4{fill:url(#linear-gradient-4);}.cls-5{fill:url(#linear-gradient-5);}.cls-6{fill:url(#linear-gradient-6);}</style><linearGradient id="linear-gradient" x1="49.68" y1="84.36" x2="49.68" y2="16.63" gradientUnits="userSpaceOnUse"><stop offset="0" stop-color="#af193d"/><stop offset="1" stop-color="#ff3270"/></linearGradient><linearGradient id="linear-gradient-2" x1="79.59" y1="84.36" x2="79.59" y2="16.63" xlink:href="#linear-gradient"/><linearGradient id="linear-gradient-3" x1="20.47" y1="84.36" x2="20.47" y2="16.63" xlink:href="#linear-gradient"/><linearGradient id="linear-gradient-4" x1="74.28" y1="84.36" x2="74.28" y2="16.63" xlink:href="#linear-gradient"/><linearGradient id="linear-gradient-5" x1="25.65" y1="84.36" x2="25.65" y2="16.63" xlink:href="#linear-gradient"/><linearGradient id="linear-gradient-6" x1="49.97" y1="84.36" x2="49.97" y2="16.63" xlink:href="#linear-gradient"/></defs><path class="cls-1" d="M65.52,83V76.54L65,76.48c-.34,1.91-.79,3.81-1,5.74a2.09,2.09,0,0,1-2,2.1,59.27,59.27,0,0,1-24.06,0c-1.18-.24-1.81-.68-2-2-.21-1.94-.65-3.86-1-5.79l-.52,0v6.82c-1.65-.62-2.91-1.12-4.19-1.57-2.77-1-4.24-2.6-3.78-5.81s.07-6.41.77-9.46c1.37-6,6-8.55,11.51-9.94a13.3,13.3,0,0,1,7.67.22,17.36,17.36,0,0,0,7.92-.17c2.87-1,4.29-.71,7,0,4.27,1.1,8.19,2.89,9.94,7.26A25.7,25.7,0,0,1,72.8,71a70.14,70.14,0,0,1,0,7.81c0,.52-.19,1.3-.55,1.49-2,1.09-4.15,2-6.24,3Z"/><path class="cls-2" d="M90.05,68.41c0-2.15-.19-4.85-.19-7l-.5-.07c-.24,1.22-.5,2.44-.72,3.67-.88,4.82.14,3.69-4.62,4.68-1.93.4-3.94.43-5.9.7-1.42.2-1.9-.31-2-1.75-.37-5.49-2.71-9.93-7.53-12.79A43.88,43.88,0,0,0,63,53.45c-.51-.22-1-.38-1.6-.59a33.32,33.32,0,0,0,2.68-4.33,23.29,23.29,0,0,0,1.56-5.37c.37-2.29,1.19-2.75,3.48-2.12,2,.56,3.36,1.15,5.47,1.09a18.62,18.62,0,0,0,5.65-1.35c1-.4,2.56.14,5,.75C89.84,42.65,94,44.5,96,49a19.8,19.8,0,0,1,1.55,6.15,73.88,73.88,0,0,1,.1,8.29c0,.47-.15,1.2-.47,1.38C95,66.1,90.22,68.58,90.05,68.41Z"/><path class="cls-3" d="M38.69,52.86l-3.18,1.08c-7.22,2.43-11.42,7.36-12.25,15-.13,1.13-.49,1.6-1.64,1.42-2.88-.43-5.78-.77-8.65-1.29a2,2,0,0,1-1.15-1.34c-.48-2.11-.81-4.25-1.19-6.39l-.5,0V68.2a21.34,21.34,0,0,1-7.55-3.43,1.15,1.15,0,0,1-.34-.83c.09-3.59-.05-7.21.37-10.76.69-6,4.57-9.35,10.07-11.08a21.81,21.81,0,0,1,4.4-1,10.72,10.72,0,0,1,4,.32,14.31,14.31,0,0,0,9.64-.21,7.78,7.78,0,0,1,2.42-.35c1.22,0,1.11.4,1.15,1.71a15,15,0,0,0,3,8.42C37.64,51.53,38.09,52.09,38.69,52.86Z"/><path class="cls-4" d="M62.08,26.61A12.2,12.2,0,1,1,74,38.92,12.22,12.22,0,0,1,62.08,26.61Z"/><path class="cls-5" d="M37.85,26.75a12.2,12.2,0,0,1-24.4.07,12.2,12.2,0,1,1,24.4-.07Z"/><path class="cls-6" d="M62.14,41.94A12.17,12.17,0,1,1,50,29.53,12.11,12.11,0,0,1,62.14,41.94Z"/></svg>