<svg id="Layer_1" data-name="Layer 1" xmlns="http://www.w3.org/2000/svg" xmlns:xlink="http://www.w3.org/1999/xlink" viewBox="0 0 100 100"><defs><style>.cls-1{fill:url(#linear-gradient);}.cls-2{fill:url(#linear-gradient-2);}.cls-3{fill:url(#linear-gradient-3);}.cls-4{fill:url(#linear-gradient-4);}.cls-5{fill:url(#linear-gradient-5);}.cls-6{fill:url(#linear-gradient-6);}.cls-7{fill:url(#linear-gradient-7);}.cls-8{fill:url(#linear-gradient-8);}.cls-9{fill:url(#linear-gradient-9);}.cls-10{fill:url(#linear-gradient-10);}.cls-11{fill:url(#linear-gradient-11);}.cls-12{fill:url(#linear-gradient-12);}.cls-13{fill:url(#linear-gradient-13);}.cls-14{fill:url(#linear-gradient-14);}.cls-15{fill:url(#linear-gradient-15);}.cls-16{fill:url(#linear-gradient-16);}.cls-17{fill:url(#linear-gradient-17);}.cls-18{fill:url(#linear-gradient-18);}.cls-19{fill:url(#linear-gradient-19);}</style><linearGradient id="linear-gradient" x1="32.62" y1="84.36" x2="32.62" y2="16.63" gradientUnits="userSpaceOnUse"><stop offset="0" stop-color="#af193d"/><stop offset="1" stop-color="#ff3270"/></linearGradient><linearGradient id="linear-gradient-2" x1="26.75" y1="84.36" x2="26.75" y2="16.63" xlink:href="#linear-gradient"/><linearGradient id="linear-gradient-3" x1="45.28" y1="84.36" x2="45.28" y2="16.63" xlink:href="#linear-gradient"/><linearGradient id="linear-gradient-4" x1="64.97" y1="84.36" x2="64.97" y2="16.63" xlink:href="#linear-gradient"/><linearGradient id="linear-gradient-5" x1="78.42" y1="84.36" x2="78.42" y2="16.63" xlink:href="#linear-gradient"/><linearGradient id="linear-gradient-6" x1="87.03" y1="84.36" x2="87.03" y2="16.63" xlink:href="#linear-gradient"/><linearGradient id="linear-gradient-7" x1="90.86" y1="84.36" x2="90.86" y2="16.63" xlink:href="#linear-gradient"/><linearGradient id="linear-gradient-8" x1="91.19" y1="84.36" x2="91.19" y2="16.63" xlink:href="#linear-gradient"/><linearGradient id="linear-gradient-9" x1="89.02" y1="84.36" x2="89.02" y2="16.63" xlink:href="#linear-gradient"/><linearGradient id="linear-gradient-10" x1="85.49" y1="84.36" x2="85.49" y2="16.63" xlink:href="#linear-gradient"/><linearGradient id="linear-gradient-11" x1="81.44" y1="84.36" x2="81.44" y2="16.63" xlink:href="#linear-gradient"/><linearGradient id="linear-gradient-12" x1="77.12" y1="84.36" x2="77.12" y2="16.63" xlink:href="#linear-gradient"/><linearGradient id="linear-gradient-13" x1="72.59" y1="84.36" x2="72.59" y2="16.63" xlink:href="#linear-gradient"/><linearGradient id="linear-gradient-14" x1="67.79" y1="84.36" x2="67.79" y2="16.63" xlink:href="#linear-gradient"/><linearGradient id="linear-gradient-15" x1="63.67" y1="84.36" x2="63.67" y2="16.63" xlink:href="#linear-gradient"/><linearGradient id="linear-gradient-16" x1="40.72" y1="84.36" x2="40.72" y2="16.63" xlink:href="#linear-gradient"/><linearGradient id="linear-gradient-17" x1="53.09" y1="84.36" x2="53.09" y2="16.63" xlink:href="#linear-gradient"/><linearGradient id="linear-gradient-18" x1="64.4" y1="84.36" x2="64.4" y2="16.63" xlink:href="#linear-gradient"/><linearGradient id="linear-gradient-19" x1="74.83" y1="84.36" x2="74.83" y2="16.63" xlink:href="#linear-gradient"/></defs><path class="cls-1" d="M44.66,92.81c-6.76-.11-12-2.76-16.7-6.43C16.87,77.65,9.26,66.48,6.17,52.61c-1.66-7.49.8-14,6.24-19.36,3.49-3.39,6.23-3.31,9.39.33a70.8,70.8,0,0,1,5.87,8.15,5.17,5.17,0,0,1-3.33,7.69c-2.41.49-4.6,1-5.55,3.61-1.05,2.9-1.1,5.79.72,8.36,3.46,4.9,7,9.76,10.67,14.49,1.59,2.06,4.06,2.69,6.65,2.67,3.08,0,4.48-1,5.65-3.82,1.66-4,6.15-5,9.07-1.9a78.22,78.22,0,0,1,7,8.49c1.74,2.5,1.34,4.32-.84,6.44C53.9,91.42,49.1,92.41,44.66,92.81Z"/><path class="cls-2" d="M22.57,30,18,27A41.28,41.28,0,0,1,33.59,12c.69,1.52,1.38,2.9,1.93,4.35a1.28,1.28,0,0,1-.47,1.17A37.06,37.06,0,0,0,22.57,30Z"/><path class="cls-3" d="M54.57,7.23V12.6A38.3,38.3,0,0,0,38.2,15.94l-2.2-5A39.17,39.17,0,0,1,54.57,7.23Z"/><path class="cls-4" d="M57.39,12.51V7.42A38.67,38.67,0,0,1,72.55,12L69.8,16.38Z"/><path class="cls-5" d="M84.85,21.58l-4.69,3.14c-3.46-3.87-5.39-4.57-8.18-6.95L75,13C78.35,15.92,79.83,16.38,84.85,21.58Z"/><path class="cls-6" d="M86.42,23.64c2,3.64,3.43,4.55,5.81,10.86C90.32,35,87,36.17,87,36.17c-2.18-5.11-3.71-6.57-5.21-9.44Z"/><path class="cls-7" d="M87.49,38.46c6.3-1.65,5.05-2.39,6.3,3.79.26,1.28.29,2.6.45,4.07l-5.39.33C88.39,43.89,88,41.24,87.49,38.46Z"/><path class="cls-8" d="M93.42,57.14,88,55.77c.21-1.88.32-3.64.63-5.37a1.83,1.83,0,0,1,1.19-1.2,40.59,40.59,0,0,1,4.49-.06C94,51.77,93.75,54.29,93.42,57.14Z"/><path class="cls-9" d="M92.71,59.63c-.84,2.23-1.61,4.28-2.47,6.54l-4.91-2.59,2-5.28Z"/><path class="cls-10" d="M86.25,72.65,82,69.06l2-3.21,4.88,2.6Z"/><path class="cls-11" d="M80.43,71.06l4.15,3.62-2.68,3-3.61-4.31Z"/><path class="cls-12" d="M74.3,76.84l2.11-1.68,3.53,4.24L77,81.71Z"/><path class="cls-13" d="M74.82,83.15l-2.64,1.52c-.5-1.17-.84-2.17-1.33-3.1-.81-1.5-.82-2.63,1.4-3.06Z"/><path class="cls-14" d="M69.77,85.77l-2.28,1-1.69-5.2,1.92-.88Z"/><path class="cls-15" d="M64.55,87.92c-.38-.26-1-.43-1.11-.78a24.43,24.43,0,0,1-1-3.46c-.07-.33.17-.74.27-1.12.33.28.84.5,1,.85.48,1.3.83,2.64,1.24,4Z"/><path class="cls-16" d="M42.56,46.83c0-1.3-.59-2.18-2-2.18s-2.08,1-2.1,2.5H35.77c.1-3.34,2.24-4.88,4.86-4.88,3.15,0,4.73,1.86,4.73,4.4,0,3.38-3.27,6-5.59,8h5.91V57H35.79V54.89C39.09,52.09,42.56,49.51,42.56,46.83Z"/><path class="cls-17" d="M47.31,54.33v-2.2l6.54-9.36h3.27v9.12h1.76v2.44H57.12v2.84H54.31V54.33Zm7.19-8.56-4.11,6.12H54.5Z"/><path class="cls-18" d="M68.48,38.23,63.07,60.79H60.33l5.41-22.56Z"/><path class="cls-19" d="M79.66,44.71,74.33,57.17H71.49L76.86,45H70v-2.4h9.65Z"/></svg>