<svg id="Layer_1" data-name="Layer 1" xmlns="http://www.w3.org/2000/svg" xmlns:xlink="http://www.w3.org/1999/xlink" viewBox="0 0 100 100"><defs><style>.cls-1{fill:url(#linear-gradient);}.cls-2{fill:url(#linear-gradient-2);}.cls-3{fill:url(#linear-gradient-3);}.cls-4{fill:url(#linear-gradient-4);}.cls-5{fill:url(#linear-gradient-5);}.cls-6{fill:url(#linear-gradient-6);}.cls-7{fill:url(#linear-gradient-7);}.cls-8{fill:url(#linear-gradient-8);}.cls-9{fill:url(#linear-gradient-9);}</style><linearGradient id="linear-gradient" x1="50" y1="84.36" x2="50" y2="16.63" gradientUnits="userSpaceOnUse"><stop offset="0" stop-color="#af193d"/><stop offset="1" stop-color="#ff3270"/></linearGradient><linearGradient id="linear-gradient-2" x1="50.05" y1="84.36" x2="50.05" y2="16.63" xlink:href="#linear-gradient"/><linearGradient id="linear-gradient-3" x1="50" y1="84.36" x2="50" y2="16.63" xlink:href="#linear-gradient"/><linearGradient id="linear-gradient-4" x1="50" y1="84.36" x2="50" y2="16.63" xlink:href="#linear-gradient"/><linearGradient id="linear-gradient-5" x1="35.44" y1="84.36" x2="35.44" y2="16.63" xlink:href="#linear-gradient"/><linearGradient id="linear-gradient-6" x1="64.51" y1="84.36" x2="64.51" y2="16.63" xlink:href="#linear-gradient"/><linearGradient id="linear-gradient-7" x1="35.3" y1="84.36" x2="35.3" y2="16.63" xlink:href="#linear-gradient"/><linearGradient id="linear-gradient-8" x1="64.7" y1="84.36" x2="64.7" y2="16.63" xlink:href="#linear-gradient"/><linearGradient id="linear-gradient-9" x1="50" y1="84.36" x2="50" y2="16.63" xlink:href="#linear-gradient"/></defs><path class="cls-1" d="M52.22,76.72V70.59c4.89-1.21,8.15-4.08,9.61-8.91a1.26,1.26,0,0,1,.89-.64c.85-.12,1.73,0,2.58-.15A6.39,6.39,0,0,0,71,54.6a15.07,15.07,0,0,0-.23-4.2,6.39,6.39,0,0,0-6.31-4.85c-.7,0-1.39,0-2.21,0,0-.7,0-1.28,0-1.85a2.35,2.35,0,0,0-2.63-2.61c-4.11,0-8.23,0-12.35,0-2.19,0-4.39,0-6.58,0s-2.92.82-2.92,2.9c0,.47,0,.93,0,1.56-.77,0-1.46,0-2.15,0A6.51,6.51,0,0,0,29,52a15.51,15.51,0,0,0,.2,4.09,6.57,6.57,0,0,0,6.5,5c.74,0,1.48,0,2.26,0a12.58,12.58,0,0,0,9.8,9.57v6.14h-4c-2.54,0-2.86.22-3.63,2.58-.59,1.78-.59,1.78-2.45,1.78-5.41,0-10.82,0-16.23,0a6.51,6.51,0,0,1-6.86-6.64c-.05-13.09,0-26.19,0-39.28a5.41,5.41,0,0,1,.08-.61H85.47v1.14q0,19.11,0,38.22c0,3.52-1.77,6-4.86,6.95a6.67,6.67,0,0,1-1.73.22c-5.8,0-11.61,0-17.41,0a1.12,1.12,0,0,1-1.3-1c-1.11-4.07-1.87-3.36-4.89-3.41C54.27,76.7,53.26,76.72,52.22,76.72Z"/><path class="cls-2" d="M52.09,16.16H62.48l0,0c0,1.13,0,2.26,0,3.39a2.24,2.24,0,1,0,4.46,0c0-1.13,0-2.26,0-3.39l0,0c3.92,0,7.84,0,11.75,0a6.41,6.41,0,0,1,6.65,5.72c.26,2.28.12,4.61.15,6.92,0,.38,0,.77,0,1.22H14.71a76.89,76.89,0,0,1,.07-8.6,6.22,6.22,0,0,1,6.31-5.25c4,0,8,0,12,0l0,0c0,1.13,0,2.26,0,3.39a2.24,2.24,0,1,0,4.45,0c0-1.13,0-2.26,0-3.39l0,0H47.91l0,0c0,1.25,0,2.49,0,3.74a2.15,2.15,0,1,0,4.3,0c0-1.25,0-2.49,0-3.74Z"/><path class="cls-3" d="M57.74,45.61c0,4.73.16,9.39-.06,14-.17,3.74-3.78,6.67-7.68,6.67s-7.51-2.93-7.69-6.67c-.21-4.65-.05-9.31-.05-14Zm-5.59,8.07a2.16,2.16,0,1,0-4.31-.09,2.16,2.16,0,1,0,4.31.09Z"/><path class="cls-4" d="M44.13,81.11H55.87c.25.78.52,1.55.76,2.34.33,1.14-.19,2-1.35,2q-5.28.09-10.56,0c-1.16,0-1.69-.91-1.35-2C43.6,82.67,43.87,81.9,44.13,81.11Z"/><path class="cls-5" d="M37.71,50v6.57c-1.4,0-2.94.5-3.87-.88a4.63,4.63,0,0,1-.19-4.49C34.42,49.38,36.18,50.14,37.71,50Z"/><path class="cls-6" d="M62.3,56.49V50c1.39.14,2.87-.53,3.92.88a6.17,6.17,0,0,1,.08,4.63C65.68,56.52,64.59,56.79,62.3,56.49Z"/><path class="cls-7" d="M33.08,16.15c0-1.17,0-2.34,0-3.51a2.23,2.23,0,1,1,4.46,0c0,1.17,0,2.34,0,3.51l0,0h-4.5Z"/><path class="cls-8" d="M62.48,16.15c0-1.17,0-2.34,0-3.51a2.23,2.23,0,1,1,4.46,0c0,1.17,0,2.34,0,3.51l0,0h-4.5Z"/><path class="cls-9" d="M47.91,16.16c0-1.33-.1-2.66,0-4a2.15,2.15,0,0,1,4.28,0c0,1.32,0,2.65,0,4l0,0H47.87Z"/></svg>