<svg id="Layer_1" data-name="Layer 1" xmlns="http://www.w3.org/2000/svg" xmlns:xlink="http://www.w3.org/1999/xlink" viewBox="0 0 100 100"><defs><style>.cls-1{fill:url(#linear-gradient);}.cls-2{fill:url(#linear-gradient-2);}.cls-3{fill:url(#linear-gradient-3);}.cls-4{fill:url(#linear-gradient-4);}</style><linearGradient id="linear-gradient" x1="50" y1="84.36" x2="50" y2="16.63" gradientUnits="userSpaceOnUse"><stop offset="0" stop-color="#af193d"/><stop offset="1" stop-color="#ff3270"/></linearGradient><linearGradient id="linear-gradient-2" x1="69.91" y1="83.44" x2="69.91" y2="17.04" xlink:href="#linear-gradient"/><linearGradient id="linear-gradient-3" x1="40.37" y1="83.44" x2="40.37" y2="17.04" gradientTransform="matrix(-1, 0, 0, 1, 70.19, 0)" xlink:href="#linear-gradient"/><linearGradient id="linear-gradient-4" x1="50" y1="84.36" x2="50" y2="16.63" xlink:href="#linear-gradient"/></defs><path class="cls-1" d="M76.52,59.64a26.53,26.53,0,1,1-26-27.2A26.59,26.59,0,0,1,76.52,59.64ZM39.65,70.77c-.07,2.67,1.2,3.57,3.68,2.58,1.89-.75,3.75-1.56,5.67-2.23a3.16,3.16,0,0,1,2,0c2,.72,4,1.6,6,2.39s3.48-.18,3.39-2.33-.25-4.22-.44-6.33a2.8,2.8,0,0,1,.76-2.33c1.39-1.54,2.69-3.16,4-4.76s.89-3.36-1.22-3.92-4.4-1.09-6.58-1.7a2.4,2.4,0,0,1-1.23-.92c-1.22-1.82-2.35-3.7-3.52-5.55s-3-2-4.24,0-2.26,3.67-3.46,5.45A2.76,2.76,0,0,1,43,52.13c-2.13.62-4.31,1.11-6.46,1.68S33.91,56,35.3,57.71s2.85,3.34,4.2,5.06a2.76,2.76,0,0,1,.57,1.67C40,66.56,39.8,68.66,39.65,70.77Z"/><path class="cls-2" d="M72.32,37.59a30.54,30.54,0,0,0-13-8.08,45.09,45.09,0,0,0-4.9-1.1c-1.47-.27-2-1.19-1.21-2.43,2.93-4.72,7.88-12.56,9.63-15.19L87,10.92C86.53,11.72,78.79,26,72.74,37,72.64,37.2,72.51,37.34,72.32,37.59Z"/><path class="cls-3" d="M27.4,37.59a30.65,30.65,0,0,1,13.05-8.08,45.27,45.27,0,0,1,4.91-1.1c1.47-.27,2-1.19,1.2-2.43-2.92-4.72-7.87-12.56-9.63-15.19l-24.21.13C13.19,11.72,20.94,26,27,37A5.83,5.83,0,0,0,27.4,37.59Z"/><path class="cls-4" d="M40.72,57.31c1.52-.38,2.86-.77,4.23-1.05a3.71,3.71,0,0,0,2.73-2c.67-1.23,1.47-2.37,2.32-3.72.92,1.46,1.67,2.82,2.61,4a4.49,4.49,0,0,0,2,1.46c1.45.52,3,.8,4.69,1.22-1.06,1.29-2,2.48-3,3.6a3.32,3.32,0,0,0-.89,2.68c.15,1.47.23,3,.35,4.64-1.63-.64-3-1.3-4.51-1.73a4.53,4.53,0,0,0-2.45,0c-1.48.44-2.89,1.1-4.52,1.75.09-1.31.08-2.45.26-3.56a4.63,4.63,0,0,0-1.31-4.38C42.34,59.43,41.62,58.39,40.72,57.31Z"/></svg>