<svg id="Layer_1" data-name="Layer 1" xmlns="http://www.w3.org/2000/svg" xmlns:xlink="http://www.w3.org/1999/xlink" viewBox="0 0 50 50"><defs><style>.cls-1{fill:url(#linear-gradient);}.cls-2{fill:url(#linear-gradient-2);}.cls-3{fill:url(#linear-gradient-3);}.cls-4{fill:url(#linear-gradient-4);}.cls-5{fill:url(#linear-gradient-5);}</style><linearGradient id="linear-gradient" x1="25" y1="51.19" x2="25" y2="9.4" gradientUnits="userSpaceOnUse"><stop offset="0" stop-color="#af193d"/><stop offset="1" stop-color="#ff3270"/></linearGradient><linearGradient id="linear-gradient-2" x1="25.01" y1="51.19" x2="25.01" y2="9.4" xlink:href="#linear-gradient"/><linearGradient id="linear-gradient-3" x1="19.67" y1="51.19" x2="19.67" y2="9.4" xlink:href="#linear-gradient"/><linearGradient id="linear-gradient-4" x1="30.32" y1="51.19" x2="30.32" y2="9.4" xlink:href="#linear-gradient"/><linearGradient id="linear-gradient-5" x1="25" y1="51.19" x2="25" y2="9.4" xlink:href="#linear-gradient"/></defs><g id="Constant_support" data-name="Constant support"><path class="cls-1" d="M26,40.63c0,.56,0,1.08,0,1.6a3.63,3.63,0,0,1-3.76,3.7c-1.71,0-3.43,0-5.15,0a3.73,3.73,0,1,1-.06-7.45c2.77,0,5.54,0,8.32,0A16.49,16.49,0,0,0,27.85,5.72,16.62,16.62,0,0,0,8.7,19.2a16.29,16.29,0,0,0,.44,7.47c.35,1.15-.05,1.69-1.24,1.71s-2.33,0-3.49,0A3.21,3.21,0,0,1,1,25c0-2,0-4,0-6a3.17,3.17,0,0,1,3.32-3.35c.8,0,1.6,0,2.41,0,.51,0,.74-.15,1-.66A18.16,18.16,0,0,1,20.39,4,18.52,18.52,0,0,1,42.22,14.9c.23.54.47.77,1.07.74.88-.05,1.77,0,2.66,0a3.12,3.12,0,0,1,3,3c0,2.24,0,4.49,0,6.73a3.12,3.12,0,0,1-2.92,3,25.23,25.23,0,0,1-2.75,0,.92.92,0,0,0-1,.68A18.4,18.4,0,0,1,28.65,40.26c-.43.1-.88.13-1.31.19ZM6.85,26.23a19.26,19.26,0,0,1,0-8.48c-.94,0-1.77,0-2.59,0a1,1,0,0,0-1,1.07q0,3.17,0,6.32a1,1,0,0,0,1,1.07C5.05,26.25,5.88,26.23,6.85,26.23Zm36.3-8.49a19.2,19.2,0,0,1,0,8.5c.88,0,1.68,0,2.47,0s1.17-.37,1.17-1.26c0-2,0-4,0-6,0-.86-.33-1.21-1.2-1.25S44.08,17.74,43.15,17.74ZM23.93,40.62H17.09a1.59,1.59,0,0,0-1.67,1.58,1.54,1.54,0,0,0,1.65,1.59q2.61,0,5.22,0a1.52,1.52,0,0,0,1.63-1.44A16.45,16.45,0,0,0,23.93,40.62Z"/><path class="cls-2" d="M14.91,30.69a13,13,0,0,1-3.08-10.44A12.73,12.73,0,0,1,21,9.33a13.28,13.28,0,1,1,5.92,25.79,41.06,41.06,0,0,1-5,.18c-2.9,0-5.81,0-8.72,0-.61,0-1.17,0-1.45-.69s.15-1.09.58-1.5C13.21,32.31,14.05,31.51,14.91,30.69Zm.54,2.21.15.24c3.16,0,6.31,0,9.46,0A11.16,11.16,0,1,0,13.83,21.87a10.94,10.94,0,0,0,3,7.69c.77.85.77,1.31,0,2.12C16.36,32.11,15.9,32.5,15.45,32.9Z"/><path class="cls-3" d="M19.64,20.94a1,1,0,0,1,1.06,1,1,1,0,1,1-2.06.08A1,1,0,0,1,19.64,20.94Z"/><path class="cls-4" d="M31.36,21.93c-.05.7-.38,1.1-1,1.1a1,1,0,0,1,0-2.07A1,1,0,0,1,31.36,21.93Z"/><path class="cls-5" d="M26,21.9c0,.74-.37,1.12-1,1.13a1,1,0,1,1,1-1.13Z"/></g></svg>