<svg id="Layer_1" data-name="Layer 1" xmlns="http://www.w3.org/2000/svg" xmlns:xlink="http://www.w3.org/1999/xlink" viewBox="0 0 50 50"><defs><style>.cls-1{fill:url(#linear-gradient);}.cls-2{fill:url(#linear-gradient-2);}.cls-3{fill:url(#linear-gradient-3);}.cls-4{fill:url(#linear-gradient-4);}</style><linearGradient id="linear-gradient" x1="25" y1="51.19" x2="25" y2="9.4" gradientUnits="userSpaceOnUse"><stop offset="0" stop-color="#af193d"/><stop offset="1" stop-color="#ff3270"/></linearGradient><linearGradient id="linear-gradient-2" x1="26.37" y1="51.19" x2="26.37" y2="9.4" xlink:href="#linear-gradient"/><linearGradient id="linear-gradient-3" x1="23.63" y1="51.19" x2="23.63" y2="9.4" xlink:href="#linear-gradient"/><linearGradient id="linear-gradient-4" x1="26.37" y1="51.19" x2="26.37" y2="9.4" xlink:href="#linear-gradient"/></defs><g id="Intuitive_interfaces" data-name="Intuitive interfaces"><path class="cls-1" d="M12.65,25c0-5.6,0-11.21,0-16.81C12.65,5,14.58,3,17.76,3H32.24C35.42,3,37.35,5,37.35,8.17q0,16.85,0,33.7A4.73,4.73,0,0,1,32.27,47H17.73a4.73,4.73,0,0,1-5.08-5.1C12.64,36.24,12.65,30.61,12.65,25ZM19.47,4.41H17.75A3.37,3.37,0,0,0,14,8.14v33.7c0,2.42,1.32,3.75,3.72,3.75H32.15c2.55,0,3.83-1.29,3.83-3.84V10.66c0-1,0-2,0-2.95a3.23,3.23,0,0,0-2.79-3.23,19.52,19.52,0,0,0-2.65,0c-.32,2.51-1.81,4-4,4.06-1,0-2.06,0-3.09,0a3.81,3.81,0,0,1-1.2-.23A4.08,4.08,0,0,1,19.47,4.41Zm1.44,0a2.61,2.61,0,0,0,2.48,2.71c1.07.05,2.14,0,3.21,0A2.5,2.5,0,0,0,29,4.43Z"/><path class="cls-2" d="M26.34,18.82H20.72a2.39,2.39,0,0,1-2.58-2.55c0-.64,0-1.28,0-1.92A2.37,2.37,0,0,1,20.54,12q5.84,0,11.65,0a2.36,2.36,0,0,1,2.41,2.38c0,.69,0,1.37,0,2.06a2.38,2.38,0,0,1-2.44,2.42C30.23,18.84,28.28,18.82,26.34,18.82Zm0-1.37H32c.86,0,1.21-.35,1.23-1.19,0-.6,0-1.19,0-1.79a1,1,0,0,0-1.1-1.12H20.61c-.72,0-1.07.39-1.09,1.13,0,.5,0,1,0,1.5,0,1.17.3,1.48,1.45,1.48Z"/><path class="cls-3" d="M23.59,27.06c-1.85,0-3.7,0-5.55,0a2.42,2.42,0,0,1-2.65-2.63c0-.6,0-1.19,0-1.78a2.37,2.37,0,0,1,2.42-2.45q5.82,0,11.65,0a2.36,2.36,0,0,1,2.4,2.39c0,.68,0,1.37,0,2.05a2.39,2.39,0,0,1-2.45,2.42C27.47,27.08,25.53,27.06,23.59,27.06Zm.11-5.49c-1.9,0-3.8,0-5.69,0-.87,0-1.22.36-1.24,1.2,0,.59,0,1.19,0,1.78a1,1,0,0,0,1.1,1.13q5.76,0,11.52,0c.72,0,1.07-.39,1.09-1.13,0-.48,0-1,0-1.44,0-1.26-.27-1.54-1.51-1.54Z"/><path class="cls-4" d="M26.33,35.3H20.78a2.42,2.42,0,0,1-2.64-2.64c0-.59,0-1.18,0-1.78a2.36,2.36,0,0,1,2.41-2.44q5.84,0,11.65,0a2.35,2.35,0,0,1,2.4,2.38c0,.69,0,1.37,0,2.06a2.37,2.37,0,0,1-2.45,2.41C30.22,35.31,28.27,35.3,26.33,35.3Zm0-5.49H20.75c-.86,0-1.22.36-1.23,1.2,0,.59,0,1.19,0,1.78s.37,1.12,1.09,1.12q5.76,0,11.52,0c.72,0,1.07-.39,1.1-1.12,0-.53,0-1.05,0-1.58,0-1.08-.32-1.4-1.37-1.4Z"/><path class="cls-1" d="M25,38.73a2.75,2.75,0,1,1-2.72,2.76A2.74,2.74,0,0,1,25,38.73Zm0,1.38a1.37,1.37,0,1,0,1.35,1.36A1.39,1.39,0,0,0,25,40.11Z"/></g></svg>