<svg id="Layer_1" data-name="Layer 1" xmlns="http://www.w3.org/2000/svg" xmlns:xlink="http://www.w3.org/1999/xlink" viewBox="0 0 50 50"><defs><style>.cls-1{fill:url(#linear-gradient);}.cls-2{fill:url(#linear-gradient-2);}.cls-3{fill:url(#linear-gradient-3);}</style><linearGradient id="linear-gradient" x1="25" y1="51.19" x2="25" y2="9.4" gradientUnits="userSpaceOnUse"><stop offset="0" stop-color="#af193d"/><stop offset="1" stop-color="#ff3270"/></linearGradient><linearGradient id="linear-gradient-2" x1="25" y1="51.19" x2="25" y2="9.4" xlink:href="#linear-gradient"/><linearGradient id="linear-gradient-3" x1="25" y1="51.19" x2="25" y2="9.4" xlink:href="#linear-gradient"/></defs><g id="Seamless_contsts" data-name="Seamless contsts"><path class="cls-1" d="M45.16,21.79l-.47-.32c.09-.22.19-.43.28-.66.27-.62.53-1.21.75-1.83.7-2,.37-2.95-1.39-3.85l.41-3.58a2.54,2.54,0,0,0-.58-2.05,2.65,2.65,0,0,0-2-.84,3.25,3.25,0,0,0-.44,0l-.93.08a4.4,4.4,0,0,0-.31-4,4.88,4.88,0,0,0-4.17-2.05H36c-1.55.07-3.2.1-5.22.1L27,2.81h-.14c-1.32,0-2.64,0-4,0h-9.7A4.32,4.32,0,0,0,9.65,4.54a4.16,4.16,0,0,0-.59,3.72c0,.16.11.32.19.51L8.17,8.68l-.32,0a2.57,2.57,0,0,0-1.95.76,2.57,2.57,0,0,0-.64,2c.06.92.17,1.84.28,2.72l.12,1C4,15.94,3.58,17,4.23,18.8c.23.66.5,1.31.78,2l.28.69-.23.16a3.13,3.13,0,0,0-1.64,2.1,3,3,0,0,0,1,2.37C5.19,27,6,27.7,6.89,28.52l1,.93C7.42,31,7.8,32.08,9,32.67a13.15,13.15,0,0,0,5.66,1.47A9.36,9.36,0,0,0,16.09,34a18.19,18.19,0,0,0,2.37-.58l.47-.14c-.19,1.51-.3,1.51-2.16,1.52h-.16a3.05,3.05,0,0,0-3.23,3.28c0,.4,0,.8,0,1.2v.48l-.28.05a3.66,3.66,0,0,0-3.3,4.09,3.73,3.73,0,0,0,3.88,3.33H36.45A3.73,3.73,0,0,0,37.72,40a5.34,5.34,0,0,0-.9-.2l-.2,0v-.41c0-.49,0-1,0-1.45a3,3,0,0,0-3-3.07H31.85c-.12,0-.24,0-.27,0h0c-.19-.49-.33-1-.49-1.53a7.63,7.63,0,0,0,1,.42,10.06,10.06,0,0,0,3.07.49,13.78,13.78,0,0,0,6-1.58,2.07,2.07,0,0,0,1.15-2.11,4.9,4.9,0,0,0-.19-1l1.1-1.05c.89-.85,1.74-1.65,2.54-2.54a2.69,2.69,0,0,0,.83-2.14A2.89,2.89,0,0,0,45.16,21.79ZM38.64,44a2.1,2.1,0,0,1-2,1.68c-.53,0-1.07,0-1.6,0H18.53l-5.1,0a2.14,2.14,0,0,1-1-4A4.07,4.07,0,0,1,14,41.34H36.12a4,4,0,0,1,1.41.27A2.09,2.09,0,0,1,38.64,44Zm-3.56-4.26H14.92v-.47c0-.53,0-1.06,0-1.58a1.39,1.39,0,0,1,1.18-1.24,5.2,5.2,0,0,1,.85,0H33c1.59,0,2,.46,2,2ZM14.81,32.58a12.09,12.09,0,0,1-5-1.24.86.86,0,0,1-.57-1.1,11.85,11.85,0,0,1,3.62-4.59,12.67,12.67,0,0,0,5.23,6.29l-.52.16a10.65,10.65,0,0,1-1.82.42A7.57,7.57,0,0,1,14.81,32.58ZM6.05,16.7a11,11,0,0,1,3.61-.56,7.71,7.71,0,0,1,2.34.31v3h-.07a11.88,11.88,0,0,0-5.3,1.34L6.37,20a23.41,23.41,0,0,1-.87-2.56A1.28,1.28,0,0,1,6.05,16.7Zm1-6.23a1,1,0,0,1,.73-.24h0a9.6,9.6,0,0,1,4,.75.47.47,0,0,1,.22.25c0,.95,0,1.9,0,2.88v.66l-.62,0c-.74-.05-1.44-.09-2.15-.11H9.09a5.42,5.42,0,0,0-1.24.13,1.25,1.25,0,0,1-.31,0c-.16,0-.35,0-.4-.48s-.08-.74-.13-1.11c-.08-.62-.17-1.32-.21-2A1,1,0,0,1,7,10.47Zm5.91-6.08c1.39,0,2.78,0,4.17,0H36.8a2.87,2.87,0,0,1,2.1.81,2.62,2.62,0,0,1-1.69,4.38c-.21,0-.43,0-.65,0H13.4A2.65,2.65,0,0,1,10.64,8a2.61,2.61,0,0,1,.15-2.47A2.49,2.49,0,0,1,12.91,4.39Zm31.54,13.4c-.24.76-.52,1.49-.82,2.23a4.91,4.91,0,0,1-.31.6l0,.08a11.5,11.5,0,0,0-5.11-1.29H38v-3a8.3,8.3,0,0,1,2.23-.29,14.19,14.19,0,0,1,2.28.21,11.49,11.49,0,0,1,1.27.27,1,1,0,0,1,.63.44A.91.91,0,0,1,44.45,17.79ZM43.18,11c-.08,1.18-.24,2.33-.43,3.59a.44.44,0,0,1-.19.17c-.89,0-1.77,0-2.68,0H38V14c0-1,0-1.92,0-2.86a.4.4,0,0,1,.13-.16,9.32,9.32,0,0,1,4-.76h.28a.87.87,0,0,1,.64.24A.66.66,0,0,1,43.18,11ZM12,21.53c.12.84.23,1.62.32,2.4a.62.62,0,0,1,0,.16,12.91,12.91,0,0,0-3.56,3.83,12.41,12.41,0,0,1-3.58-3.38.72.72,0,0,1,.06-1.08A10.87,10.87,0,0,1,11.93,21h0ZM25,34a13.52,13.52,0,0,0,4.42-.76l.51,1.6H20.07l.48-1.6A13.74,13.74,0,0,0,25,34ZM13.57,20.76V11.23H36.31c0,1.08,0,2.16,0,3.23v.14a79.09,79.09,0,0,1-.11,8,11.1,11.1,0,0,1-10.92,9.79H25.2A11.39,11.39,0,0,1,13.57,20.76Zm23.56,4.85a11.4,11.4,0,0,1,3.62,4.72.66.66,0,0,1-.37.88,12,12,0,0,1-5.19,1.36A8.59,8.59,0,0,1,32,31.94,13.22,13.22,0,0,0,37.13,25.61Zm.53-1.68c.09-.76.19-1.52.31-2.35l.08-.61a5.12,5.12,0,0,1,.56,0,6.53,6.53,0,0,1,2.43.52,26.41,26.41,0,0,1,3.42,1.74,1.08,1.08,0,0,1,.55.63,1.23,1.23,0,0,1-.3.91,12.53,12.53,0,0,1-3.46,3.16,13.37,13.37,0,0,0-3.54-3.8A.34.34,0,0,1,37.66,23.93Z"/><path class="cls-2" d="M32.54,19.48A7.55,7.55,0,1,0,25,27.1H25A7.58,7.58,0,0,0,32.54,19.48Zm-7.52-6a6,6,0,1,1-4.3,10.29A6,6,0,0,1,19,19.44a6.12,6.12,0,0,1,6-6Z"/><path class="cls-3" d="M23.16,15.67a1.87,1.87,0,0,1-1.52,1.11A2.08,2.08,0,0,0,20,18.16a2.06,2.06,0,0,0,.44,2.07c.54.59.9,1.05.62,1.74a2.56,2.56,0,0,0,.65,1.89,1.92,1.92,0,0,0,1.39.59,2.46,2.46,0,0,0,1.12-.29,1.82,1.82,0,0,1,.79-.22,1.62,1.62,0,0,1,.74.2,2.41,2.41,0,0,0,1.17.31,1.94,1.94,0,0,0,1.45-.62,2.3,2.3,0,0,0,.54-1.78,2,2,0,0,1,.56-1.74A2.07,2.07,0,0,0,30,18.22a2.17,2.17,0,0,0-1.72-1.45,1.81,1.81,0,0,1-1.45-1.07A2.08,2.08,0,0,0,25,14.54,2,2,0,0,0,23.16,15.67Zm1.11,1.19a1.36,1.36,0,0,1,.78-.69.32.32,0,0,1,.13,0c.21,0,.37.21.54.7a2,2,0,0,0,1.88,1.37,1.29,1.29,0,0,1,.84.47,1.26,1.26,0,0,1-.39.87,2.24,2.24,0,0,0-.73,2.27,1.18,1.18,0,0,1-.24,1,.4.4,0,0,1-.21,0,1.34,1.34,0,0,1-.64-.16,2.17,2.17,0,0,0-1.17-.37,2.84,2.84,0,0,0-1.41.45,1.09,1.09,0,0,1-.53.17.44.44,0,0,1-.33-.13,1.07,1.07,0,0,1-.18-.79,1.57,1.57,0,0,1,0-.23A2,2,0,0,0,22,19.6a1.39,1.39,0,0,1-.45-1c0-.12,0-.43.84-.45A2,2,0,0,0,24.27,16.86Z"/></g></svg>