<svg id="Layer_1" data-name="Layer 1" xmlns="http://www.w3.org/2000/svg" xmlns:xlink="http://www.w3.org/1999/xlink" viewBox="0 0 100 100"><defs><style>.cls-1{fill:url(#linear-gradient);}.cls-2{fill:url(#linear-gradient-2);}.cls-3{fill:url(#linear-gradient-3);}.cls-4{fill:url(#linear-gradient-4);}.cls-5{fill:url(#linear-gradient-5);}.cls-6{fill:url(#linear-gradient-6);}.cls-7{fill:url(#linear-gradient-7);}</style><linearGradient id="linear-gradient" x1="21.81" y1="93.21" x2="21.81" y2="15.17" gradientUnits="userSpaceOnUse"><stop offset="0" stop-color="#af193d"/><stop offset="1" stop-color="#ff3270"/></linearGradient><linearGradient id="linear-gradient-2" x1="78.16" y1="93.21" x2="78.16" y2="15.17" xlink:href="#linear-gradient"/><linearGradient id="linear-gradient-3" x1="49.95" y1="93.21" x2="49.95" y2="15.17" xlink:href="#linear-gradient"/><linearGradient id="linear-gradient-4" x1="49.96" y1="93.21" x2="49.96" y2="15.17" xlink:href="#linear-gradient"/><linearGradient id="linear-gradient-5" x1="49.96" y1="93.21" x2="49.96" y2="15.17" xlink:href="#linear-gradient"/><linearGradient id="linear-gradient-6" x1="70.69" y1="93.21" x2="70.69" y2="15.17" xlink:href="#linear-gradient"/><linearGradient id="linear-gradient-7" x1="29.17" y1="93.21" x2="29.17" y2="15.17" xlink:href="#linear-gradient"/></defs><g id="Create_Team" data-name="Create Team"><path class="cls-1" d="M41.79,46C29.14,50.85,22.57,60.47,19.56,73.4c-3.13-.8-6.24-1.49-9.28-2.4-2.57-.78-5.07-1.78-7.57-2.77a1.61,1.61,0,0,1-.89-1.16c.43-11.41,6.79-25.33,20.53-29.79a23.15,23.15,0,0,1,11.39-.65c.51.09,1.26.39,1.39.77A16.77,16.77,0,0,0,41.79,46Z"/><path class="cls-2" d="M98.18,68.25l-17.77,5.4c-3-13.1-9.59-22.77-22.28-27.65a17.18,17.18,0,0,0,6.64-8.45c.18-.51,1.25-.87,2-1,9.76-1.44,17.52,2.23,23.65,9.63C95.54,52.44,97.83,59.77,98.18,68.25Z"/><path class="cls-3" d="M32.59,83.78c-3.42-1.28-6.41-2.38-9.37-3.56a1.43,1.43,0,0,1-.75-1.09C22.91,67.76,29.21,53.65,43,49.38c9.64-3,18-.09,25,6.94,5.89,5.94,9.75,15.81,9.4,23.76l-10,3.63c3.24-10.51,1-19-8.45-24.41-7-4-14.19-3.36-20.49,1.57C31.07,66.67,29.46,74.43,32.59,83.78Z"/><path class="cls-4" d="M50,60.34A15.5,15.5,0,1,1,34.46,75.89,15.53,15.53,0,0,1,50,60.34ZM48.24,74.13c-1.68,0-3.11,0-4.53,0-1.22,0-2.28.29-2.3,1.69s1,1.77,2.24,1.75c1.52,0,3,0,4.59,0,0,1.77,0,3.26,0,4.75,0,1.19.45,2.1,1.73,2.08s1.71-.93,1.71-2.11c0-1.53,0-3.06,0-4.72,1.67,0,3.15,0,4.63,0,1.24,0,2.24-.38,2.21-1.78s-1-1.67-2.16-1.66c-1.52,0-3.05,0-4.68,0V69.29c0-1.12-.46-2-1.64-2s-1.79.83-1.79,2Z"/><path class="cls-5" d="M62,32.76a12.05,12.05,0,1,1-12-12A12.07,12.07,0,0,1,62,32.76Z"/><path class="cls-6" d="M82.68,20.73A12.07,12.07,0,0,1,66.79,32.17a2.06,2.06,0,0,1-1.61-1.88,14.65,14.65,0,0,0-5.55-9.56,1.93,1.93,0,0,1-.87-2.14,12.05,12.05,0,0,1,23.92,2.14Z"/><path class="cls-7" d="M28.71,8.68c6.51,0,11.54,4.29,12.39,10a2.34,2.34,0,0,1-.67,1.82,15.33,15.33,0,0,0-5.71,9.86,1.93,1.93,0,0,1-1.53,1.75,12.09,12.09,0,0,1-12.73-3.23,11.91,11.91,0,0,1-2.14-13.1A11.7,11.7,0,0,1,28.71,8.68Z"/></g></svg>