<svg id="Layer_1" data-name="Layer 1" xmlns="http://www.w3.org/2000/svg" xmlns:xlink="http://www.w3.org/1999/xlink" viewBox="0 0 100 100"><defs><style>.cls-1{fill:url(#linear-gradient);}.cls-2{fill:url(#linear-gradient-2);}.cls-3{fill:url(#linear-gradient-3);}.cls-4{fill:url(#linear-gradient-4);}.cls-5{fill:url(#linear-gradient-5);}.cls-6{fill:url(#linear-gradient-6);}.cls-7{fill:url(#linear-gradient-7);}.cls-8{fill:url(#linear-gradient-8);}.cls-9{fill:url(#linear-gradient-9);}</style><linearGradient id="linear-gradient" x1="49.99" y1="93.21" x2="49.99" y2="15.17" gradientUnits="userSpaceOnUse"><stop offset="0" stop-color="#af193d"/><stop offset="1" stop-color="#ff3270"/></linearGradient><linearGradient id="linear-gradient-2" x1="50" y1="93.21" x2="50" y2="15.17" xlink:href="#linear-gradient"/><linearGradient id="linear-gradient-3" x1="85.64" y1="93.21" x2="85.64" y2="15.17" xlink:href="#linear-gradient"/><linearGradient id="linear-gradient-4" x1="14.34" y1="93.21" x2="14.34" y2="15.17" xlink:href="#linear-gradient"/><linearGradient id="linear-gradient-5" x1="17.44" y1="93.21" x2="17.44" y2="15.17" xlink:href="#linear-gradient"/><linearGradient id="linear-gradient-6" x1="82.48" y1="93.21" x2="82.48" y2="15.17" xlink:href="#linear-gradient"/><linearGradient id="linear-gradient-7" x1="21.3" y1="93.21" x2="21.3" y2="15.17" xlink:href="#linear-gradient"/><linearGradient id="linear-gradient-8" x1="78.7" y1="93.21" x2="78.7" y2="15.17" xlink:href="#linear-gradient"/><linearGradient id="linear-gradient-9" x1="50" y1="93.21" x2="50" y2="15.17" xlink:href="#linear-gradient"/></defs><g id="Follow_Action" data-name="Follow Action"><path class="cls-1" d="M33.85,11.93a12.75,12.75,0,0,0,.08-1.31c-.12-1.45.57-1.95,2-1.95,9,0,17.94,0,26.91,0,2.76,0,3.18-.66,3.35,3.21,1.22,0,2.45,0,3.69,0,2.58,0,3.6,1.31,3.3,3.87a25.92,25.92,0,0,1-4.89,12.74A21,21,0,0,1,59.66,35c-1.74.78-3.16,2.27-4.7,3.47-.15.12-.15.47-.16.72a23.31,23.31,0,0,0,1.89,11.41c.41.88.91,1.41,1.94,1.24a7.64,7.64,0,0,1,1.07,0c2.78,0,2.72,0,3.21,2.76.1.59.84,1.08,1.33,1.57s1.21.87,1.53,1.46a24.33,24.33,0,0,1,1.45,3.5c.5,1.4,0,2.18-1.51,2.19q-15.73,0-31.47,0c-1.39,0-1.93-.78-1.46-2.1a40.44,40.44,0,0,1,1.6-3.93,2.08,2.08,0,0,1,1.19-1c1.34-.3,1.63-1.14,1.64-2.34,0-1.88.25-2.09,2.11-2.1,3.82,0,3.77,0,5-3.86a24.86,24.86,0,0,0,.9-8.7c0-.3,0-.7-.2-.85-1.39-1.16-2.66-2.71-4.27-3.32-7.33-2.77-11.23-8.32-13.19-15.54a33.21,33.21,0,0,1-.75-4.33,2.75,2.75,0,0,1,2.83-3.33C31,11.87,32.35,11.93,33.85,11.93ZM44.33,27.69c0,1.65,1.21,2.4,2.34,1.58,2.3-1.66,4.4-1.74,6.66,0a1.73,1.73,0,0,0,1.65,0,2,2,0,0,0,.57-1.68c-.74-2.59-.36-4.72,2.06-6.22a1.14,1.14,0,0,0,.11-.11c1-1.19.68-2.52-.88-2.58-2.77-.12-4.53-1.19-5.45-3.93a1.42,1.42,0,0,0-2.78,0,5.08,5.08,0,0,1-5.47,3.87.38.38,0,0,0-.15,0c-1.28.31-1.84,1.57-.86,2.36C44.5,22.92,45.7,25,44.33,27.69Zm-6.21,3s.07-.1.06-.13a46.76,46.76,0,0,1-4-15.12c0-.28-.35-.74-.55-.75-1.38-.06-2.76,0-4.14,0C29.74,21.32,33.88,28.85,38.12,30.66Zm23.48.19C67,28.24,70.69,19.5,70.38,14.58c-1.23,0-2.48-.05-3.73,0a1.22,1.22,0,0,0-.79.83A44.72,44.72,0,0,1,61.6,30.85Z"/><path class="cls-2" d="M30.43,91.2c0-.49-.08-1-.08-1.48v-21c0-2.14.24-2.38,2.33-2.38H67.33c2,0,2.31.27,2.31,1.94q0,11,0,22c0,.25,0,.49-.09.85Z"/><path class="cls-3" d="M72.66,91.24V73.48c.58,0,1.11-.09,1.65-.09H96.19c2.21,0,2.43.23,2.43,2.46,0,4.51,0,9,0,13.52,0,1.29-.42,2-1.84,2-7.75,0-15.51,0-23.26,0C73.29,91.32,73,91.27,72.66,91.24Z"/><path class="cls-4" d="M27.31,91.23c-.51,0-.95.09-1.4.09H3.57c-1.92,0-2.18-.27-2.19-2.21,0-3.55,0-7.1,0-10.64,0-1.19.33-2,1.7-2q11.85,0,23.71,0a3.6,3.6,0,0,1,.53.13Z"/><path class="cls-5" d="M23.15,34.68a12.72,12.72,0,0,1-2.75-.24c-.51-.17-.88-.77-1.31-1.18.46-.45.9-1.25,1.37-1.27a36.43,36.43,0,0,1,5.91.19,2.12,2.12,0,0,1,1.31,1.51,32.14,32.14,0,0,1,.12,5.46c0,.5-.74,1-1.13,1.45-.46-.43-1.11-.77-1.33-1.3A10.46,10.46,0,0,1,25,36.78c-.54.49-.94.83-1.31,1.2Q16.79,44.91,9.87,51.83c-.32.32-.62.79-1,.89s-1.37.2-1.59-.08a2.44,2.44,0,0,1-.17-1.73c.05-.33.51-.6.8-.88q6.86-6.89,13.72-13.75C22.05,35.85,22.45,35.41,23.15,34.68Z"/><path class="cls-6" d="M75,36.6a13,13,0,0,1-.35,2.81c-.18.49-.84,1.12-1.26,1.1a1.65,1.65,0,0,1-1.16-1.17,34.72,34.72,0,0,1,.14-5.77,2.21,2.21,0,0,1,1.57-1.4A30.16,30.16,0,0,1,79.36,32a1.94,1.94,0,0,1,1.44,1.13c.18.83-.45,1.35-1.38,1.37-.75,0-1.49.12-2.54.21.61.64,1,1.08,1.42,1.5L92.05,50c.22.21.57.4.61.65a15,15,0,0,1,.16,2c-.67,0-1.59.17-2-.19-1.92-1.72-3.7-3.6-5.52-5.43C82,43.66,78.62,40.28,75,36.6Z"/><path class="cls-7" d="M24.3,47.17a10.19,10.19,0,0,1-2.37-.25c-.51-.18-1.21-.81-1.2-1.22s.72-1.3,1.13-1.31a44.89,44.89,0,0,1,6.35.34c.42.06,1,1,1,1.6.17,1.71.12,3.44.16,5.16,0,.85-.23,1.54-1.21,1.59s-1.29-.61-1.36-1.47c-.05-.7-.13-1.4-.22-2.37-.53.47-.9.77-1.24,1.11l-9,9-.43.43c-.69.72-1.48,1.27-2.33.35s-.27-1.56.41-2.23c2.19-2.18,4.36-4.38,6.55-6.55,1.29-1.27,2.62-2.51,3.94-3.76Z"/><path class="cls-8" d="M75.33,47.64c1,.89,2.1,1.73,3.06,2.68C81,52.84,83.48,55.4,86,57.94c.67.67,1.13,1.42.34,2.23s-1.55.35-2.22-.32q-4.73-4.74-9.46-9.45c-.35-.35-.73-.67-1.31-1.2a10.75,10.75,0,0,1-.3,2.58c-.21.53-.88.87-1.34,1.3-.38-.45-1.07-.89-1.1-1.35-.08-1.87,0-3.75.09-5.62a1.46,1.46,0,0,1,1.53-1.54l5.31-.28c.94,0,1.66.33,1.72,1.3S78.64,47,77.7,47c-.69,0-1.38.1-2.07.16Z"/><path class="cls-9" d="M54.15,21a3.81,3.81,0,0,0-1.48,4.95,3.81,3.81,0,0,0-5.26.1c.23-2.91.23-2.91-1.56-5.12,1.94-.14,3.55-.69,4.07-2.94C50.73,19.86,51.92,21.06,54.15,21Z"/></g></svg>