<svg id="Layer_1" data-name="Layer 1" xmlns="http://www.w3.org/2000/svg" xmlns:xlink="http://www.w3.org/1999/xlink" viewBox="0 0 100 100"><defs><style>.cls-1{fill:url(#linear-gradient);}.cls-2{fill:url(#linear-gradient-2);}.cls-3{fill:url(#linear-gradient-3);}.cls-4{fill:url(#linear-gradient-5);}.cls-5{fill:url(#linear-gradient-6);}.cls-6{fill:url(#linear-gradient-7);}.cls-7{fill:url(#linear-gradient-8);}.cls-8{fill:url(#linear-gradient-9);}.cls-9{fill:url(#linear-gradient-10);}.cls-10{fill:url(#linear-gradient-11);}</style><linearGradient id="linear-gradient" x1="17.8" y1="93.21" x2="17.8" y2="15.17" gradientUnits="userSpaceOnUse"><stop offset="0" stop-color="#af193d"/><stop offset="1" stop-color="#ff3270"/></linearGradient><linearGradient id="linear-gradient-2" x1="82.2" y1="93.21" x2="82.2" y2="15.17" xlink:href="#linear-gradient"/><linearGradient id="linear-gradient-3" x1="17.8" y1="93.21" x2="17.8" y2="15.17" xlink:href="#linear-gradient"/><linearGradient id="linear-gradient-5" x1="58.42" y1="93.21" x2="58.42" y2="15.17" xlink:href="#linear-gradient"/><linearGradient id="linear-gradient-6" x1="30.56" y1="93.21" x2="30.56" y2="15.17" xlink:href="#linear-gradient"/><linearGradient id="linear-gradient-7" x1="69.46" y1="93.21" x2="69.46" y2="15.17" xlink:href="#linear-gradient"/><linearGradient id="linear-gradient-8" x1="30.58" y1="93.21" x2="30.58" y2="15.17" xlink:href="#linear-gradient"/><linearGradient id="linear-gradient-9" x1="72.69" y1="93.21" x2="72.69" y2="15.17" xlink:href="#linear-gradient"/><linearGradient id="linear-gradient-10" x1="53.17" y1="93.21" x2="53.17" y2="15.17" xlink:href="#linear-gradient"/><linearGradient id="linear-gradient-11" x1="54.95" y1="93.21" x2="54.95" y2="15.17" xlink:href="#linear-gradient"/></defs><g id="Dominate_Competition" data-name="Dominate Competition"><path class="cls-1" d="M17.75,90.7a8.51,8.51,0,1,1,8.56-8.49A8.52,8.52,0,0,1,17.75,90.7ZM16,83c-.39-.5-.67-.91-1-1.28-.62-.68-1.36-1-2.11-.26s-.51,1.46.16,2.13,1.22,1.2,1.82,1.82a1.55,1.55,0,0,0,2.47,0c1.66-1.54,3.34-3,5-4.55.72-.65,1.11-1.38.33-2.21s-1.44-.47-2.12.16C19.18,80.2,17.73,81.5,16,83Z"/><path class="cls-2" d="M82.2,90.71a8.51,8.51,0,1,1,8.51-8.55A8.54,8.54,0,0,1,82.2,90.71Zm-1.6-7.83c-.47-.44-.84-.77-1.18-1.13-.64-.68-1.37-1-2.11-.25s-.52,1.45.16,2.12,1.23,1.2,1.82,1.82a1.53,1.53,0,0,0,2.46,0c1.66-1.54,3.34-3,5-4.55.73-.66,1.1-1.4.34-2.21s-1.51-.38-2.21.26C83.51,80.28,82.09,81.53,80.6,82.88Z"/><path class="cls-3" d="M9.29,17.8a8.51,8.51,0,1,1,8.55,8.51A8.54,8.54,0,0,1,9.29,17.8Zm6.69.89c-.44-.57-.73-1.26-1.24-1.53A2.11,2.11,0,0,0,13,17.1a1.16,1.16,0,0,0-.1,1.88c.67.74,1.41,1.41,2.1,2.13a1.47,1.47,0,0,0,2.35,0q2.49-2.31,5-4.57c.71-.63,1.2-1.34.42-2.19s-1.53-.46-2.23.18C19.12,15.84,17.71,17.11,16,18.69Z"/><path class="cls-2" d="M82.23,9.3a8.51,8.51,0,1,1-8.54,8.5A8.5,8.5,0,0,1,82.23,9.3Zm-1.82,9.35a19,19,0,0,0-1.2-1.48,1.22,1.22,0,0,0-1.91-.07,1.25,1.25,0,0,0,0,1.92c.64.7,1.34,1.34,2,2a1.53,1.53,0,0,0,2.46.06c1.65-1.53,3.33-3.05,5-4.55.74-.66,1.11-1.42.37-2.22s-1.53-.4-2.23.24C83.5,15.87,82.09,17.13,80.41,18.65Z"/><path class="cls-4" d="M67,83.8v2.5H49.86V83.8Z"/><path class="cls-5" d="M24.93,26.66l1.63-1.77,9.63,9.79-1.72,1.51Z"/><path class="cls-6" d="M73.46,24.92l1.61,1.62-9.73,9.62-1.49-1.67Z"/><path class="cls-7" d="M26.58,75l-1.43-1.63,9.59-9.47L36,65.59Z"/><path class="cls-8" d="M70.72,69.23c1.31,1.32,3,2.91,4.23,4.19l-1.63,1.63a28.61,28.61,0,0,1-2.88-2.77A14.17,14.17,0,0,1,70.72,69.23Z"/><path class="cls-9" d="M64.23,49l-11.7,6.76V50.73a6.09,6.09,0,0,0-.12-1.44,2.63,2.63,0,0,0-2.81-2.15,2.57,2.57,0,0,0-2.54,2.38A14,14,0,0,0,47,51v8L43,61.26a.93.93,0,0,1-1.39-.81V36a.93.93,0,0,1,1.39-.8l21.2,12.24A.93.93,0,0,1,64.23,49Z"/><path class="cls-10" d="M68.24,79.76c0,1-.47,1.29-1.44,1.29C61,81,55.23,81,49.44,81a2.92,2.92,0,0,1-1.27-.33c-1.15-.62-2.27-1.3-3.4-2a5,5,0,0,1-2.71-4.38c0-1.44-.31-2.88-.41-4.32a3.42,3.42,0,0,1,3.64-3.92c0,1.44,0,2.79,0,4.14,0,1-.21,2.3,1.37,2.27S48,71.28,48,70.29q0-5.94,0-11.89V51c0-.45,0-1.15.06-1.33.22-1.22.91-1.55,1.57-1.55a1.64,1.64,0,0,1,1.83,1.37,6.05,6.05,0,0,1,.09,1.35V61.31c0,.83,0,1.71,1,1.95s1.34-.54,1.79-1.27A2.25,2.25,0,0,1,56,60.94a2.39,2.39,0,0,1,1.66,1.23c.91,2.08,1.34,2.22,2.94.73a1.85,1.85,0,0,1,1.54-.42,2.13,2.13,0,0,1,1.11,1.34c.49,2,1,2.27,2.63,1.1a1.43,1.43,0,0,1,2.4,1.14C68.29,70.63,68.24,75.19,68.24,79.76Z"/></g></svg>