<svg id="Layer_1" data-name="Layer 1" xmlns="http://www.w3.org/2000/svg" xmlns:xlink="http://www.w3.org/1999/xlink" viewBox="0 0 100 100"><defs><style>.cls-1{fill:url(#linear-gradient);}.cls-2{fill:url(#linear-gradient-2);}.cls-3{fill:url(#linear-gradient-3);}.cls-4{fill:url(#linear-gradient-4);}.cls-5{fill:url(#linear-gradient-5);}.cls-6{fill:url(#linear-gradient-6);}.cls-7{fill:url(#linear-gradient-7);}.cls-8{fill:url(#linear-gradient-8);}.cls-9{fill:url(#linear-gradient-9);}.cls-10{fill:url(#linear-gradient-10);}.cls-11{fill:url(#linear-gradient-11);}.cls-12{fill:url(#linear-gradient-12);}.cls-13{fill:url(#linear-gradient-13);}</style><linearGradient id="linear-gradient" x1="47.07" y1="93.21" x2="47.07" y2="15.17" gradientUnits="userSpaceOnUse"><stop offset="0" stop-color="#af193d"/><stop offset="1" stop-color="#ff3270"/></linearGradient><linearGradient id="linear-gradient-2" x1="47.1" y1="93.21" x2="47.1" y2="15.17" xlink:href="#linear-gradient"/><linearGradient id="linear-gradient-3" x1="76.3" y1="93.21" x2="76.3" y2="15.17" xlink:href="#linear-gradient"/><linearGradient id="linear-gradient-4" x1="89.15" y1="93.21" x2="89.15" y2="15.17" xlink:href="#linear-gradient"/><linearGradient id="linear-gradient-5" x1="37.48" y1="93.21" x2="37.48" y2="15.17" xlink:href="#linear-gradient"/><linearGradient id="linear-gradient-6" x1="47.1" y1="93.21" x2="47.1" y2="15.17" xlink:href="#linear-gradient"/><linearGradient id="linear-gradient-7" x1="47.2" y1="93.21" x2="47.2" y2="15.17" xlink:href="#linear-gradient"/><linearGradient id="linear-gradient-8" x1="47.1" y1="93.21" x2="47.1" y2="15.17" xlink:href="#linear-gradient"/><linearGradient id="linear-gradient-9" x1="35.06" y1="93.21" x2="35.06" y2="15.17" xlink:href="#linear-gradient"/><linearGradient id="linear-gradient-10" x1="59.29" y1="93.21" x2="59.29" y2="15.17" xlink:href="#linear-gradient"/><linearGradient id="linear-gradient-11" x1="71.78" y1="93.21" x2="71.78" y2="15.17" xlink:href="#linear-gradient"/><linearGradient id="linear-gradient-12" x1="22.52" y1="93.21" x2="22.52" y2="15.17" xlink:href="#linear-gradient"/><linearGradient id="linear-gradient-13" x1="47.12" y1="93.21" x2="47.12" y2="15.17" xlink:href="#linear-gradient"/></defs><g id="Select_Contest" data-name="Select Contest"><path class="cls-1" d="M9.4,20.33H84.74V73.89c-1,.11-2,.26-3,.32a1.39,1.39,0,0,1-1-.29,4.6,4.6,0,0,0-4.7-1.23c0-1.44,0-2.82,0-4.2,0-2.79-1.86-4.75-4.4-4.71s-4.27,2-4.29,4.68c0,3.23,0,6.45,0,9.75a4.31,4.31,0,0,1-.82.05c-5.73-.88-11.44.35-17.18.07s-11.5-.06-17.26-.06H14.76C11,78.27,9.4,76.7,9.4,72.9V20.33Zm37.77,4.29c-5.56,0-11.11,0-16.66,0a2.66,2.66,0,0,0-2.44,1.22c-1,1.5-2.12,3-3.3,4.39a2.31,2.31,0,0,0-.15,3.22c4,6,7.84,12,11.79,18a1.5,1.5,0,0,1,0,2,13,13,0,1,0,21.49.1,1.68,1.68,0,0,1,0-2.26c4-6,7.84-12.05,11.79-18.06a2.09,2.09,0,0,0-.08-2.85c-1.19-1.46-2.31-3-3.39-4.52a2.75,2.75,0,0,0-2.53-1.31C58.18,24.65,52.67,24.62,47.17,24.62Zm24.29,32.1.67,0a5.71,5.71,0,0,0,1-1.76c.45-2.8,1.48-3.81,4.23-4.28a2.25,2.25,0,0,0,1.52-1.34c.21-.94-.56-1.4-1.51-1.51-2.76-.31-3.84-1.41-4.2-4.23-.11-.89-.5-1.5-1.42-1.52s-1.35.56-1.47,1.46c-.42,3-1.34,3.91-4.28,4.3-.89.12-1.49.53-1.48,1.45s.6,1.33,1.49,1.44C69,51.1,69.82,52,70.36,55,70.47,55.63,71.08,56.16,71.46,56.72Zm-49.3,16,.68,0a6,6,0,0,0,1-1.76c.46-2.8,1.48-3.81,4.24-4.28a2.24,2.24,0,0,0,1.51-1.34c.21-.94-.56-1.4-1.51-1.51-2.76-.31-3.84-1.41-4.19-4.23-.11-.89-.5-1.5-1.42-1.52s-1.35.56-1.48,1.45c-.42,3-1.34,3.92-4.27,4.31-.89.12-1.49.53-1.49,1.45s.6,1.33,1.49,1.44c2.93.39,3.79,1.33,4.32,4.3C21.17,71.58,21.78,72.1,22.16,72.67Z"/><path class="cls-2" d="M9.42,17.27c0-1.58-.08-3.08,0-4.56a4.3,4.3,0,0,1,4-4c.44,0,.87,0,1.31,0H79.42c3.81,0,5.39,1.56,5.39,5.34v3.27Zm5.72-5.59H12.43v2.7h2.71Zm5.8,0H18.2v2.71h2.74Zm3,2.73H26.7v-2.7H23.94Z"/><path class="cls-3" d="M90.6,91.32H78.28c-3.34,0-6.67,0-10,0a1.67,1.67,0,0,1-1.7-1c-1.33-2.4-2.72-4.77-4.11-7.14-.55-.94-.81-1.86.31-2.49s1.69.08,2.19,1c.73,1.31,1.49,2.59,2.23,3.89.45.78.91,1.6,2,1.33s1.13-1.28,1.12-2.23V69.17c0-.39-.14-.89,0-1.14.38-.52,1-1.26,1.43-1.25a2,2,0,0,1,1.35,1.29,16.68,16.68,0,0,1,.08,3.32c0,3,0,6.09,0,9.13,0,1.07.19,2.06,1.47,2s1.46-1,1.43-2.08,0-2.12,0-3.18.37-1.89,1.51-1.89,1.41.83,1.4,1.82c0,1.21,0,2.41,0,3.62,0,1,.42,1.75,1.5,1.72s1.39-.75,1.39-1.69,0-1.64,0-2.46c0-1,.5-1.6,1.5-1.57a1.38,1.38,0,0,1,1.39,1.54c0,1.25,0,2.51,0,3.76,0,1,.32,1.9,1.5,1.86s1.41-.84,1.39-1.82c0-.78,0-1.55,0-2.32,0-1,.5-1.6,1.5-1.57a1.37,1.37,0,0,1,1.39,1.54C90.61,83.6,90.6,87.36,90.6,91.32Z"/><path class="cls-4" d="M87.7,14.73a4.54,4.54,0,0,1,2.91,4.54c0,5.07,0,10.14,0,15.22v41H87.7Z"/><path class="cls-5" d="M15.49,81.22H59l.5,2.77c-.36,0-.72.08-1.08.08q-19.11,0-38.24,0A4.63,4.63,0,0,1,15.49,81.22Z"/><path class="cls-6" d="M47,50.72A10.15,10.15,0,1,1,37,60.91,10.17,10.17,0,0,1,47,50.72Zm3.32,5.75a5.56,5.56,0,0,1-.32-.65c-.43-1.4-1.19-2.43-2.8-2.48a2.81,2.81,0,0,0-3,2.38c-.23.84-.78.81-1.43.81a2.89,2.89,0,0,0-1.73,5.29,1.3,1.3,0,0,1,.62,1.77,2.74,2.74,0,0,0,1,3.36,3.06,3.06,0,0,0,3.64-.07,1.83,1.83,0,0,1,1.58,0A3.08,3.08,0,0,0,51.5,67c1.33-.91,1.33-2.21,1-3.62a1.52,1.52,0,0,1,.34-1.29c1.25-.94,1.91-2.09,1.39-3.62s-1.79-2-3.33-2C50.75,56.52,50.56,56.49,50.35,56.47Z"/><path class="cls-7" d="M57,34.83,52.7,41.34c-1.27,1.93-2.53,3.87-3.82,5.79-.65,1-2.84,1.06-3.46.12-2.65-4-5.26-8-7.87-12a2.62,2.62,0,0,1-.15-.47Z"/><path class="cls-8" d="M32.45,27.57H61.76C60.83,29,60,30.29,59.14,31.52c-.19.26-.76.34-1.16.34-7.25,0-14.5,0-21.75,0A2.23,2.23,0,0,1,34.76,31C34,30,33.31,28.88,32.45,27.57Z"/><path class="cls-9" d="M39.17,50.41c-1.11-1.68-2.23-3.35-3.32-5-2.65-4.08-5.27-8.18-8-12.23-.59-.89-.77-1.51.06-2.33a19.11,19.11,0,0,0,1.69-2.22C34,35.27,38.38,41.84,42.74,48.46Z"/><path class="cls-10" d="M67.1,31.92l-12,18.5-3.6-2L64.57,28.6Z"/><path class="cls-11" d="M71.85,48.13l1,1.24-1.1.91-1.11-1.15Z"/><path class="cls-12" d="M21.43,65.11l1-1,1.15,1.07-1.06,1.11Z"/><path class="cls-13" d="M43,59.53c2.32.25,3.79-.42,4.07-3.07.53,2.37,1.78,3.48,4.26,3-2,1.19-2.84,2.65-1.53,4.93-1.83-1.65-3.5-1.75-5.29.08C45.58,62.27,45.23,60.66,43,59.53Z"/></g></svg>